<svg xmlns="http://www.w3.org/2000/svg" xmlns:xlink="http://www.w3.org/1999/xlink" style="margin:auto;background:rgba(NaN,NaN,NaN,0);display:block;z-index:1;position:relative" width="1084" height="322" preserveAspectRatio="xMidYMid" viewBox="0 0 1084 322"><defs><pattern id="pid-0.5239578789186163" width="1057.28" height="1057.28" x="0" y="0" patternUnits="userSpaceOnUse"><g transform="scale(4.13)"><defs><filter id="pat-0.28056686700481603" width="300%" height="300%" x="-100%" y="-100%" color-interpolation-filters="sRGB"><feGaussianBlur in="SourceGraphic" stdDeviation="7.16"/><feComponentTransfer result="cutoff"><feFuncA intercept="-40" slope="60" type="linear"/></feComponentTransfer></filter></defs><g style="isolation:isolate" filter="url(#pat-0.28056686700481603)"><g><circle cx="-117.478" cy="65.737" r="21.556" fill="#93dbe9"/><circle cx="138.522" cy="65.737" r="21.556" fill="#93dbe9"/><circle cx="394.522" cy="65.737" r="21.556" fill="#93dbe9"/><circle cx="-117.478" cy="321.737" r="21.556" fill="#93dbe9"/><circle cx="138.522" cy="321.737" r="21.556" fill="#93dbe9"/><circle cx="394.522" cy="321.737" r="21.556" fill="#93dbe9"/><circle cx="-117.478" cy="577.737" r="21.556" fill="#93dbe9"/><circle cx="138.522" cy="577.737" r="21.556" fill="#93dbe9"/><circle cx="394.522" cy="577.737" r="21.556" fill="#93dbe9"/><circle cx="-162.639" cy="209.539" r="24.527" fill="#93dbe9"/><circle cx="93.361" cy="209.539" r="24.527" fill="#93dbe9"/><circle cx="349.361" cy="209.539" r="24.527" fill="#93dbe9"/><circle cx="-162.639" cy="465.539" r="24.527" fill="#93dbe9"/><circle cx="93.361" cy="465.539" r="24.527" fill="#93dbe9"/><circle cx="349.361" cy="465.539" r="24.527" fill="#93dbe9"/><circle cx="-162.639" cy="721.539" r="24.527" fill="#93dbe9"/><circle cx="93.361" cy="721.539" r="24.527" fill="#93dbe9"/><circle cx="349.361" cy="721.539" r="24.527" fill="#93dbe9"/><circle cx="-147.374" cy="152.911" r="21.51" fill="#93dbe9"/><circle cx="108.626" cy="152.911" r="21.51" fill="#93dbe9"/><circle cx="364.626" cy="152.911" r="21.51" fill="#93dbe9"/><circle cx="-147.374" cy="408.911" r="21.51" fill="#93dbe9"/><circle cx="108.626" cy="408.911" r="21.51" fill="#93dbe9"/><circle cx="364.626" cy="408.911" r="21.51" fill="#93dbe9"/><circle cx="-147.374" cy="664.911" r="21.51" fill="#93dbe9"/><circle cx="108.626" cy="664.911" r="21.51" fill="#93dbe9"/><circle cx="364.626" cy="664.911" r="21.51" fill="#93dbe9"/><circle cx="-192.592" cy="77.186" r="23.208" fill="#93dbe9"/><circle cx="63.408" cy="77.186" r="23.208" fill="#93dbe9"/><circle cx="319.408" cy="77.186" r="23.208" fill="#93dbe9"/><circle cx="-192.592" cy="333.186" r="23.208" fill="#93dbe9"/><circle cx="63.408" cy="333.186" r="23.208" fill="#93dbe9"/><circle cx="319.408" cy="333.186" r="23.208" fill="#93dbe9"/><circle cx="-192.592" cy="589.186" r="23.208" fill="#93dbe9"/><circle cx="63.408" cy="589.186" r="23.208" fill="#93dbe9"/><circle cx="319.408" cy="589.186" r="23.208" fill="#93dbe9"/><circle cx="-79.42" cy="200.407" r="15.486" fill="#93dbe9"/><circle cx="176.58" cy="200.407" r="15.486" fill="#93dbe9"/><circle cx="432.58" cy="200.407" r="15.486" fill="#93dbe9"/><circle cx="-79.42" cy="456.407" r="15.486" fill="#93dbe9"/><circle cx="176.58" cy="456.407" r="15.486" fill="#93dbe9"/><circle cx="432.58" cy="456.407" r="15.486" fill="#93dbe9"/><circle cx="-79.42" cy="712.407" r="15.486" fill="#93dbe9"/><circle cx="176.58" cy="712.407" r="15.486" fill="#93dbe9"/><circle cx="432.58" cy="712.407" r="15.486" fill="#93dbe9"/><circle cx="-121.438" cy="56.491" r="16.928" fill="#93dbe9"/><circle cx="134.562" cy="56.491" r="16.928" fill="#93dbe9"/><circle cx="390.562" cy="56.491" r="16.928" fill="#93dbe9"/><circle cx="-121.438" cy="312.491" r="16.928" fill="#93dbe9"/><circle cx="134.562" cy="312.491" r="16.928" fill="#93dbe9"/><circle cx="390.562" cy="312.491" r="16.928" fill="#93dbe9"/><circle cx="-121.438" cy="568.491" r="16.928" fill="#93dbe9"/><circle cx="134.562" cy="568.491" r="16.928" fill="#93dbe9"/><circle cx="390.562" cy="568.491" r="16.928" fill="#93dbe9"/><circle cx="-124.106" cy="-1.019" r="19.313" fill="#93dbe9"/><circle cx="131.894" cy="-1.019" r="19.313" fill="#93dbe9"/><circle cx="387.894" cy="-1.019" r="19.313" fill="#93dbe9"/><circle cx="-124.106" cy="254.981" r="19.313" fill="#93dbe9"/><circle cx="131.894" cy="254.981" r="19.313" fill="#93dbe9"/><circle cx="387.894" cy="254.981" r="19.313" fill="#93dbe9"/><circle cx="-124.106" cy="510.981" r="19.313" fill="#93dbe9"/><circle cx="131.894" cy="510.981" r="19.313" fill="#93dbe9"/><circle cx="387.894" cy="510.981" r="19.313" fill="#93dbe9"/><circle cx="-124.106" cy="766.981" r="19.313" fill="#93dbe9"/><circle cx="131.894" cy="766.981" r="19.313" fill="#93dbe9"/><circle cx="387.894" cy="766.981" r="19.313" fill="#93dbe9"/><circle cx="-21.244" cy="208.854" r="19.381" fill="#93dbe9"/><circle cx="234.756" cy="208.854" r="19.381" fill="#93dbe9"/><circle cx="490.756" cy="208.854" r="19.381" fill="#93dbe9"/><circle cx="-21.244" cy="464.854" r="19.381" fill="#93dbe9"/><circle cx="234.756" cy="464.854" r="19.381" fill="#93dbe9"/><circle cx="490.756" cy="464.854" r="19.381" fill="#93dbe9"/><circle cx="-21.244" cy="720.854" r="19.381" fill="#93dbe9"/><circle cx="234.756" cy="720.854" r="19.381" fill="#93dbe9"/><circle cx="490.756" cy="720.854" r="19.381" fill="#93dbe9"/><circle cx="-73.583" cy="46.052" r="20.674" fill="#93dbe9"/><circle cx="182.417" cy="46.052" r="20.674" fill="#93dbe9"/><circle cx="438.417" cy="46.052" r="20.674" fill="#93dbe9"/><circle cx="-73.583" cy="302.052" r="20.674" fill="#93dbe9"/><circle cx="182.417" cy="302.052" r="20.674" fill="#93dbe9"/><circle cx="438.417" cy="302.052" r="20.674" fill="#93dbe9"/><circle cx="-73.583" cy="558.052" r="20.674" fill="#93dbe9"/><circle cx="182.417" cy="558.052" r="20.674" fill="#93dbe9"/><circle cx="438.417" cy="558.052" r="20.674" fill="#93dbe9"/><circle cx="-235.581" cy="20.119" r="18.094" fill="#93dbe9"/><circle cx="20.419" cy="20.119" r="18.094" fill="#93dbe9"/><circle cx="276.419" cy="20.119" r="18.094" fill="#93dbe9"/><circle cx="-235.581" cy="276.119" r="18.094" fill="#93dbe9"/><circle cx="20.419" cy="276.119" r="18.094" fill="#93dbe9"/><circle cx="276.419" cy="276.119" r="18.094" fill="#93dbe9"/><circle cx="-235.581" cy="532.119" r="18.094" fill="#93dbe9"/><circle cx="20.419" cy="532.119" r="18.094" fill="#93dbe9"/><circle cx="276.419" cy="532.119" r="18.094" fill="#93dbe9"/><animateTransform attributeName="transform" dur="50s" keyTimes="0;1" repeatCount="indefinite" type="translate" values="0 0;0 -256"/></g><g><circle cx="-29.282" cy="206.748" r="16.357" fill="#689cc5"/><circle cx="226.718" cy="206.748" r="16.357" fill="#689cc5"/><circle cx="482.718" cy="206.748" r="16.357" fill="#689cc5"/><circle cx="-29.282" cy="462.748" r="16.357" fill="#689cc5"/><circle cx="226.718" cy="462.748" r="16.357" fill="#689cc5"/><circle cx="482.718" cy="462.748" r="16.357" fill="#689cc5"/><circle cx="-29.282" cy="718.748" r="16.357" fill="#689cc5"/><circle cx="226.718" cy="718.748" r="16.357" fill="#689cc5"/><circle cx="482.718" cy="718.748" r="16.357" fill="#689cc5"/><circle cx="-119.771" cy="147.593" r="21.166" fill="#689cc5"/><circle cx="136.229" cy="147.593" r="21.166" fill="#689cc5"/><circle cx="392.229" cy="147.593" r="21.166" fill="#689cc5"/><circle cx="-119.771" cy="403.593" r="21.166" fill="#689cc5"/><circle cx="136.229" cy="403.593" r="21.166" fill="#689cc5"/><circle cx="392.229" cy="403.593" r="21.166" fill="#689cc5"/><circle cx="-119.771" cy="659.593" r="21.166" fill="#689cc5"/><circle cx="136.229" cy="659.593" r="21.166" fill="#689cc5"/><circle cx="392.229" cy="659.593" r="21.166" fill="#689cc5"/><circle cx="-99.195" cy="90.605" r="18.263" fill="#689cc5"/><circle cx="156.805" cy="90.605" r="18.263" fill="#689cc5"/><circle cx="412.805" cy="90.605" r="18.263" fill="#689cc5"/><circle cx="-99.195" cy="346.605" r="18.263" fill="#689cc5"/><circle cx="156.805" cy="346.605" r="18.263" fill="#689cc5"/><circle cx="412.805" cy="346.605" r="18.263" fill="#689cc5"/><circle cx="-99.195" cy="602.605" r="18.263" fill="#689cc5"/><circle cx="156.805" cy="602.605" r="18.263" fill="#689cc5"/><circle cx="412.805" cy="602.605" r="18.263" fill="#689cc5"/><circle cx="-190.208" cy="133.643" r="16.438" fill="#689cc5"/><circle cx="65.792" cy="133.643" r="16.438" fill="#689cc5"/><circle cx="321.792" cy="133.643" r="16.438" fill="#689cc5"/><circle cx="-190.208" cy="389.643" r="16.438" fill="#689cc5"/><circle cx="65.792" cy="389.643" r="16.438" fill="#689cc5"/><circle cx="321.792" cy="389.643" r="16.438" fill="#689cc5"/><circle cx="-190.208" cy="645.643" r="16.438" fill="#689cc5"/><circle cx="65.792" cy="645.643" r="16.438" fill="#689cc5"/><circle cx="321.792" cy="645.643" r="16.438" fill="#689cc5"/><circle cx="-75.366" cy="227.171" r="24.489" fill="#689cc5"/><circle cx="180.634" cy="227.171" r="24.489" fill="#689cc5"/><circle cx="436.634" cy="227.171" r="24.489" fill="#689cc5"/><circle cx="-75.366" cy="483.171" r="24.489" fill="#689cc5"/><circle cx="180.634" cy="483.171" r="24.489" fill="#689cc5"/><circle cx="436.634" cy="483.171" r="24.489" fill="#689cc5"/><circle cx="-75.366" cy="739.171" r="24.489" fill="#689cc5"/><circle cx="180.634" cy="739.171" r="24.489" fill="#689cc5"/><circle cx="436.634" cy="739.171" r="24.489" fill="#689cc5"/><circle cx="-52.054" cy="-12.529" r="18.64" fill="#689cc5"/><circle cx="203.946" cy="-12.529" r="18.64" fill="#689cc5"/><circle cx="459.946" cy="-12.529" r="18.64" fill="#689cc5"/><circle cx="-52.054" cy="243.471" r="18.64" fill="#689cc5"/><circle cx="203.946" cy="243.471" r="18.64" fill="#689cc5"/><circle cx="459.946" cy="243.471" r="18.64" fill="#689cc5"/><circle cx="-52.054" cy="499.471" r="18.64" fill="#689cc5"/><circle cx="203.946" cy="499.471" r="18.64" fill="#689cc5"/><circle cx="459.946" cy="499.471" r="18.64" fill="#689cc5"/><circle cx="-52.054" cy="755.471" r="18.64" fill="#689cc5"/><circle cx="203.946" cy="755.471" r="18.64" fill="#689cc5"/><circle cx="459.946" cy="755.471" r="18.64" fill="#689cc5"/><circle cx="-220.143" cy="191.895" r="23.919" fill="#689cc5"/><circle cx="35.857" cy="191.895" r="23.919" fill="#689cc5"/><circle cx="291.857" cy="191.895" r="23.919" fill="#689cc5"/><circle cx="-220.143" cy="447.895" r="23.919" fill="#689cc5"/><circle cx="35.857" cy="447.895" r="23.919" fill="#689cc5"/><circle cx="291.857" cy="447.895" r="23.919" fill="#689cc5"/><circle cx="-220.143" cy="703.895" r="23.919" fill="#689cc5"/><circle cx="35.857" cy="703.895" r="23.919" fill="#689cc5"/><circle cx="291.857" cy="703.895" r="23.919" fill="#689cc5"/><circle cx="-231.607" cy="190.425" r="21.52" fill="#689cc5"/><circle cx="24.393" cy="190.425" r="21.52" fill="#689cc5"/><circle cx="280.393" cy="190.425" r="21.52" fill="#689cc5"/><circle cx="-231.607" cy="446.425" r="21.52" fill="#689cc5"/><circle cx="24.393" cy="446.425" r="21.52" fill="#689cc5"/><circle cx="280.393" cy="446.425" r="21.52" fill="#689cc5"/><circle cx="-231.607" cy="702.425" r="21.52" fill="#689cc5"/><circle cx="24.393" cy="702.425" r="21.52" fill="#689cc5"/><circle cx="280.393" cy="702.425" r="21.52" fill="#689cc5"/><circle cx="-214.735" cy="40.797" r="21.495" fill="#689cc5"/><circle cx="41.265" cy="40.797" r="21.495" fill="#689cc5"/><circle cx="297.265" cy="40.797" r="21.495" fill="#689cc5"/><circle cx="-214.735" cy="296.797" r="21.495" fill="#689cc5"/><circle cx="41.265" cy="296.797" r="21.495" fill="#689cc5"/><circle cx="297.265" cy="296.797" r="21.495" fill="#689cc5"/><circle cx="-214.735" cy="552.797" r="21.495" fill="#689cc5"/><circle cx="41.265" cy="552.797" r="21.495" fill="#689cc5"/><circle cx="297.265" cy="552.797" r="21.495" fill="#689cc5"/><animateTransform attributeName="transform" dur="25s" keyTimes="0;1" repeatCount="indefinite" type="translate" values="0 0;0 -256"/></g><g><circle cx="-61.819" cy="223.731" r="19.49" fill="#5e6fa3"/><circle cx="194.181" cy="223.731" r="19.49" fill="#5e6fa3"/><circle cx="450.181" cy="223.731" r="19.49" fill="#5e6fa3"/><circle cx="-61.819" cy="479.731" r="19.49" fill="#5e6fa3"/><circle cx="194.181" cy="479.731" r="19.49" fill="#5e6fa3"/><circle cx="450.181" cy="479.731" r="19.49" fill="#5e6fa3"/><circle cx="-61.819" cy="735.731" r="19.49" fill="#5e6fa3"/><circle cx="194.181" cy="735.731" r="19.49" fill="#5e6fa3"/><circle cx="450.181" cy="735.731" r="19.49" fill="#5e6fa3"/><circle cx="-130.993" cy="32.267" r="20.251" fill="#5e6fa3"/><circle cx="125.007" cy="32.267" r="20.251" fill="#5e6fa3"/><circle cx="381.007" cy="32.267" r="20.251" fill="#5e6fa3"/><circle cx="-130.993" cy="288.267" r="20.251" fill="#5e6fa3"/><circle cx="125.007" cy="288.267" r="20.251" fill="#5e6fa3"/><circle cx="381.007" cy="288.267" r="20.251" fill="#5e6fa3"/><circle cx="-130.993" cy="544.267" r="20.251" fill="#5e6fa3"/><circle cx="125.007" cy="544.267" r="20.251" fill="#5e6fa3"/><circle cx="381.007" cy="544.267" r="20.251" fill="#5e6fa3"/><circle cx="-114.941" cy="20.453" r="18.104" fill="#5e6fa3"/><circle cx="141.059" cy="20.453" r="18.104" fill="#5e6fa3"/><circle cx="397.059" cy="20.453" r="18.104" fill="#5e6fa3"/><circle cx="-114.941" cy="276.453" r="18.104" fill="#5e6fa3"/><circle cx="141.059" cy="276.453" r="18.104" fill="#5e6fa3"/><circle cx="397.059" cy="276.453" r="18.104" fill="#5e6fa3"/><circle cx="-114.941" cy="532.453" r="18.104" fill="#5e6fa3"/><circle cx="141.059" cy="532.453" r="18.104" fill="#5e6fa3"/><circle cx="397.059" cy="532.453" r="18.104" fill="#5e6fa3"/><circle cx="-104.807" cy="44.919" r="21.64" fill="#5e6fa3"/><circle cx="151.193" cy="44.919" r="21.64" fill="#5e6fa3"/><circle cx="407.193" cy="44.919" r="21.64" fill="#5e6fa3"/><circle cx="-104.807" cy="300.919" r="21.64" fill="#5e6fa3"/><circle cx="151.193" cy="300.919" r="21.64" fill="#5e6fa3"/><circle cx="407.193" cy="300.919" r="21.64" fill="#5e6fa3"/><circle cx="-104.807" cy="556.919" r="21.64" fill="#5e6fa3"/><circle cx="151.193" cy="556.919" r="21.64" fill="#5e6fa3"/><circle cx="407.193" cy="556.919" r="21.64" fill="#5e6fa3"/><circle cx="-237.853" cy="132.118" r="13.549" fill="#5e6fa3"/><circle cx="18.147" cy="132.118" r="13.549" fill="#5e6fa3"/><circle cx="274.147" cy="132.118" r="13.549" fill="#5e6fa3"/><circle cx="-237.853" cy="388.118" r="13.549" fill="#5e6fa3"/><circle cx="18.147" cy="388.118" r="13.549" fill="#5e6fa3"/><circle cx="274.147" cy="388.118" r="13.549" fill="#5e6fa3"/><circle cx="-237.853" cy="644.118" r="13.549" fill="#5e6fa3"/><circle cx="18.147" cy="644.118" r="13.549" fill="#5e6fa3"/><circle cx="274.147" cy="644.118" r="13.549" fill="#5e6fa3"/><circle cx="-114.106" cy="143.46" r="19.364" fill="#5e6fa3"/><circle cx="141.894" cy="143.46" r="19.364" fill="#5e6fa3"/><circle cx="397.894" cy="143.46" r="19.364" fill="#5e6fa3"/><circle cx="-114.106" cy="399.46" r="19.364" fill="#5e6fa3"/><circle cx="141.894" cy="399.46" r="19.364" fill="#5e6fa3"/><circle cx="397.894" cy="399.46" r="19.364" fill="#5e6fa3"/><circle cx="-114.106" cy="655.46" r="19.364" fill="#5e6fa3"/><circle cx="141.894" cy="655.46" r="19.364" fill="#5e6fa3"/><circle cx="397.894" cy="655.46" r="19.364" fill="#5e6fa3"/><circle cx="-230.386" cy="236.392" r="17.184" fill="#5e6fa3"/><circle cx="25.614" cy="236.392" r="17.184" fill="#5e6fa3"/><circle cx="281.614" cy="236.392" r="17.184" fill="#5e6fa3"/><circle cx="-230.386" cy="492.392" r="17.184" fill="#5e6fa3"/><circle cx="25.614" cy="492.392" r="17.184" fill="#5e6fa3"/><circle cx="281.614" cy="492.392" r="17.184" fill="#5e6fa3"/><circle cx="-230.386" cy="748.392" r="17.184" fill="#5e6fa3"/><circle cx="25.614" cy="748.392" r="17.184" fill="#5e6fa3"/><circle cx="281.614" cy="748.392" r="17.184" fill="#5e6fa3"/><circle cx="-29.934" cy="168.684" r="24.47" fill="#5e6fa3"/><circle cx="226.066" cy="168.684" r="24.47" fill="#5e6fa3"/><circle cx="482.066" cy="168.684" r="24.47" fill="#5e6fa3"/><circle cx="-29.934" cy="424.684" r="24.47" fill="#5e6fa3"/><circle cx="226.066" cy="424.684" r="24.47" fill="#5e6fa3"/><circle cx="482.066" cy="424.684" r="24.47" fill="#5e6fa3"/><circle cx="-29.934" cy="680.684" r="24.47" fill="#5e6fa3"/><circle cx="226.066" cy="680.684" r="24.47" fill="#5e6fa3"/><circle cx="482.066" cy="680.684" r="24.47" fill="#5e6fa3"/><circle cx="-19.652" cy="30.216" r="18.721" fill="#5e6fa3"/><circle cx="236.348" cy="30.216" r="18.721" fill="#5e6fa3"/><circle cx="492.348" cy="30.216" r="18.721" fill="#5e6fa3"/><circle cx="-19.652" cy="286.216" r="18.721" fill="#5e6fa3"/><circle cx="236.348" cy="286.216" r="18.721" fill="#5e6fa3"/><circle cx="492.348" cy="286.216" r="18.721" fill="#5e6fa3"/><circle cx="-19.652" cy="542.216" r="18.721" fill="#5e6fa3"/><circle cx="236.348" cy="542.216" r="18.721" fill="#5e6fa3"/><circle cx="492.348" cy="542.216" r="18.721" fill="#5e6fa3"/><animateTransform attributeName="transform" dur="16.666666666666668s" keyTimes="0;1" repeatCount="indefinite" type="translate" values="0 0;0 -256"/></g></g></g></pattern></defs><rect width="1084" height="322" x="0" y="0" fill="url(#pid-0.5239578789186163)"/></svg>