<svg xmlns="http://www.w3.org/2000/svg" xmlns:svgjs="http://svgjs.dev/svgjs" xmlns:xlink="http://www.w3.org/1999/xlink" height="100%" version="1.1" viewBox="0 0 600 600"><rect width="600" height="600" fill="transparent"/><mask id="mask" mask-type="alpha" maskUnits="userSpaceOnUse"><rect width="600" height="600" fill="#fff" transform="translate(0, 0)"/></mask><g mask="url(#mask)" mix-blend-mode="multiply" name="doubleStripes"><rect width="60" height="120" fill="none" transform="translate(0, 0) rotate(0)"/><path fill="#90e0ef" d="M48.0004 120.462H52.0004L52.0004 0.461672L48.0004 0.461672L48.0004 120.462Z" transform="translate(0, 0) rotate(0)"/><path fill="#90e0ef" d="M38.0004 0.461671L38.0004 120.462H42.0004L42.0004 0.461671L38.0004 0.461671Z" transform="translate(0, 0) rotate(0)"/><path fill="#90e0ef" d="M28.0004 0.461671L32.0004 0.461671L32.0004 120.462H28.0004L28.0004 0.461671Z" transform="translate(0, 0) rotate(0)"/><path fill="#90e0ef" d="M18.0004 0.46167L18.0004 120.462H22.0004L22.0004 0.461671L18.0004 0.46167Z" transform="translate(0, 0) rotate(0)"/><path fill="#90e0ef" d="M8.00037 0.46167L8.00037 120.462H12.0004L12.0004 0.46167L8.00037 0.46167Z" transform="translate(0, 0) rotate(0)"/></g><g mask="url(#mask)" mix-blend-mode="multiply" name="doubleStripes"><rect width="60" height="120" fill="none" transform="translate(0, 60) rotate(90)"/><path fill="#0096c7" d="M48.0004 120.462H52.0004L52.0004 0.461672L48.0004 0.461672L48.0004 120.462Z" transform="translate(0, 60) rotate(90)"/><path fill="#0096c7" d="M38.0004 0.461671L38.0004 120.462H42.0004L42.0004 0.461671L38.0004 0.461671Z" transform="translate(0, 60) rotate(90)"/><path fill="#0096c7" d="M28.0004 0.461671L32.0004 0.461671L32.0004 120.462H28.0004L28.0004 0.461671Z" transform="translate(0, 60) rotate(90)"/><path fill="#0096c7" d="M18.0004 0.46167L18.0004 120.462H22.0004L22.0004 0.461671L18.0004 0.46167Z" transform="translate(0, 60) rotate(90)"/><path fill="#0096c7" d="M8.00037 0.46167L8.00037 120.462H12.0004L12.0004 0.46167L8.00037 0.46167Z" transform="translate(0, 60) rotate(90)"/></g><g mask="url(#mask)" mix-blend-mode="multiply" name="doubleStripes"><rect width="60" height="120" fill="none" transform="translate(0, 120) rotate(90)"/><path fill="#0077b6" d="M48.0004 120.462H52.0004L52.0004 0.461672L48.0004 0.461672L48.0004 120.462Z" transform="translate(0, 120) rotate(90)"/><path fill="#0077b6" d="M38.0004 0.461671L38.0004 120.462H42.0004L42.0004 0.461671L38.0004 0.461671Z" transform="translate(0, 120) rotate(90)"/><path fill="#0077b6" d="M28.0004 0.461671L32.0004 0.461671L32.0004 120.462H28.0004L28.0004 0.461671Z" transform="translate(0, 120) rotate(90)"/><path fill="#0077b6" d="M18.0004 0.46167L18.0004 120.462H22.0004L22.0004 0.461671L18.0004 0.46167Z" transform="translate(0, 120) rotate(90)"/><path fill="#0077b6" d="M8.00037 0.46167L8.00037 120.462H12.0004L12.0004 0.46167L8.00037 0.46167Z" transform="translate(0, 120) rotate(90)"/></g><g mask="url(#mask)" mix-blend-mode="multiply" name="doubleStripes"><rect width="60" height="120" fill="none" transform="translate(0, 180) rotate(0)"/><path fill="#0077b6" d="M48.0004 120.462H52.0004L52.0004 0.461672L48.0004 0.461672L48.0004 120.462Z" transform="translate(0, 180) rotate(0)"/><path fill="#0077b6" d="M38.0004 0.461671L38.0004 120.462H42.0004L42.0004 0.461671L38.0004 0.461671Z" transform="translate(0, 180) rotate(0)"/><path fill="#0077b6" d="M28.0004 0.461671L32.0004 0.461671L32.0004 120.462H28.0004L28.0004 0.461671Z" transform="translate(0, 180) rotate(0)"/><path fill="#0077b6" d="M18.0004 0.46167L18.0004 120.462H22.0004L22.0004 0.461671L18.0004 0.46167Z" transform="translate(0, 180) rotate(0)"/><path fill="#0077b6" d="M8.00037 0.46167L8.00037 120.462H12.0004L12.0004 0.46167L8.00037 0.46167Z" transform="translate(0, 180) rotate(0)"/></g><g mask="url(#mask)" mix-blend-mode="multiply" name="doubleStripes"><rect width="60" height="120" fill="none" transform="translate(0, 240) rotate(90)"/><path fill="#00b4d8" d="M48.0004 120.462H52.0004L52.0004 0.461672L48.0004 0.461672L48.0004 120.462Z" transform="translate(0, 240) rotate(90)"/><path fill="#00b4d8" d="M38.0004 0.461671L38.0004 120.462H42.0004L42.0004 0.461671L38.0004 0.461671Z" transform="translate(0, 240) rotate(90)"/><path fill="#00b4d8" d="M28.0004 0.461671L32.0004 0.461671L32.0004 120.462H28.0004L28.0004 0.461671Z" transform="translate(0, 240) rotate(90)"/><path fill="#00b4d8" d="M18.0004 0.46167L18.0004 120.462H22.0004L22.0004 0.461671L18.0004 0.46167Z" transform="translate(0, 240) rotate(90)"/><path fill="#00b4d8" d="M8.00037 0.46167L8.00037 120.462H12.0004L12.0004 0.46167L8.00037 0.46167Z" transform="translate(0, 240) rotate(90)"/></g><g mask="url(#mask)" mix-blend-mode="multiply" name="doubleStripes"><rect width="60" height="120" fill="none" transform="translate(0, 300) rotate(0)"/><path fill="#48cae4" d="M48.0004 120.462H52.0004L52.0004 0.461672L48.0004 0.461672L48.0004 120.462Z" transform="translate(0, 300) rotate(0)"/><path fill="#48cae4" d="M38.0004 0.461671L38.0004 120.462H42.0004L42.0004 0.461671L38.0004 0.461671Z" transform="translate(0, 300) rotate(0)"/><path fill="#48cae4" d="M28.0004 0.461671L32.0004 0.461671L32.0004 120.462H28.0004L28.0004 0.461671Z" transform="translate(0, 300) rotate(0)"/><path fill="#48cae4" d="M18.0004 0.46167L18.0004 120.462H22.0004L22.0004 0.461671L18.0004 0.46167Z" transform="translate(0, 300) rotate(0)"/><path fill="#48cae4" d="M8.00037 0.46167L8.00037 120.462H12.0004L12.0004 0.46167L8.00037 0.46167Z" transform="translate(0, 300) rotate(0)"/></g><g mask="url(#mask)" mix-blend-mode="multiply" name="doubleStripes"><rect width="60" height="120" fill="none" transform="translate(0, 360) rotate(90)"/><path fill="#0077b6" d="M48.0004 120.462H52.0004L52.0004 0.461672L48.0004 0.461672L48.0004 120.462Z" transform="translate(0, 360) rotate(90)"/><path fill="#0077b6" d="M38.0004 0.461671L38.0004 120.462H42.0004L42.0004 0.461671L38.0004 0.461671Z" transform="translate(0, 360) rotate(90)"/><path fill="#0077b6" d="M28.0004 0.461671L32.0004 0.461671L32.0004 120.462H28.0004L28.0004 0.461671Z" transform="translate(0, 360) rotate(90)"/><path fill="#0077b6" d="M18.0004 0.46167L18.0004 120.462H22.0004L22.0004 0.461671L18.0004 0.46167Z" transform="translate(0, 360) rotate(90)"/><path fill="#0077b6" d="M8.00037 0.46167L8.00037 120.462H12.0004L12.0004 0.46167L8.00037 0.46167Z" transform="translate(0, 360) rotate(90)"/></g><g mask="url(#mask)" mix-blend-mode="multiply" name="doubleStripes"><rect width="60" height="120" fill="none" transform="translate(0, 420) rotate(0)"/><path fill="#48cae4" d="M48.0004 120.462H52.0004L52.0004 0.461672L48.0004 0.461672L48.0004 120.462Z" transform="translate(0, 420) rotate(0)"/><path fill="#48cae4" d="M38.0004 0.461671L38.0004 120.462H42.0004L42.0004 0.461671L38.0004 0.461671Z" transform="translate(0, 420) rotate(0)"/><path fill="#48cae4" d="M28.0004 0.461671L32.0004 0.461671L32.0004 120.462H28.0004L28.0004 0.461671Z" transform="translate(0, 420) rotate(0)"/><path fill="#48cae4" d="M18.0004 0.46167L18.0004 120.462H22.0004L22.0004 0.461671L18.0004 0.46167Z" transform="translate(0, 420) rotate(0)"/><path fill="#48cae4" d="M8.00037 0.46167L8.00037 120.462H12.0004L12.0004 0.46167L8.00037 0.46167Z" transform="translate(0, 420) rotate(0)"/></g><g mask="url(#mask)" mix-blend-mode="multiply" name="doubleStripes"><rect width="60" height="120" fill="none" transform="translate(0, 480) rotate(90)"/><path fill="#0077b6" d="M48.0004 120.462H52.0004L52.0004 0.461672L48.0004 0.461672L48.0004 120.462Z" transform="translate(0, 480) rotate(90)"/><path fill="#0077b6" d="M38.0004 0.461671L38.0004 120.462H42.0004L42.0004 0.461671L38.0004 0.461671Z" transform="translate(0, 480) rotate(90)"/><path fill="#0077b6" d="M28.0004 0.461671L32.0004 0.461671L32.0004 120.462H28.0004L28.0004 0.461671Z" transform="translate(0, 480) rotate(90)"/><path fill="#0077b6" d="M18.0004 0.46167L18.0004 120.462H22.0004L22.0004 0.461671L18.0004 0.46167Z" transform="translate(0, 480) rotate(90)"/><path fill="#0077b6" d="M8.00037 0.46167L8.00037 120.462H12.0004L12.0004 0.46167L8.00037 0.46167Z" transform="translate(0, 480) rotate(90)"/></g><g mask="url(#mask)" mix-blend-mode="multiply" name="doubleStripes"><rect width="60" height="120" fill="none" transform="translate(0, 540) rotate(0)"/><path fill="#caf0f8" d="M48.0004 120.462H52.0004L52.0004 0.461672L48.0004 0.461672L48.0004 120.462Z" transform="translate(0, 540) rotate(0)"/><path fill="#caf0f8" d="M38.0004 0.461671L38.0004 120.462H42.0004L42.0004 0.461671L38.0004 0.461671Z" transform="translate(0, 540) rotate(0)"/><path fill="#caf0f8" d="M28.0004 0.461671L32.0004 0.461671L32.0004 120.462H28.0004L28.0004 0.461671Z" transform="translate(0, 540) rotate(0)"/><path fill="#caf0f8" d="M18.0004 0.46167L18.0004 120.462H22.0004L22.0004 0.461671L18.0004 0.46167Z" transform="translate(0, 540) rotate(0)"/><path fill="#caf0f8" d="M8.00037 0.46167L8.00037 120.462H12.0004L12.0004 0.46167L8.00037 0.46167Z" transform="translate(0, 540) rotate(0)"/></g><g mask="url(#mask)" mix-blend-mode="multiply" name="doubleStripes"><rect width="60" height="120" fill="none" transform="translate(60, 0) rotate(0)"/><path fill="#0077b6" d="M48.0004 120.462H52.0004L52.0004 0.461672L48.0004 0.461672L48.0004 120.462Z" transform="translate(60, 0) rotate(0)"/><path fill="#0077b6" d="M38.0004 0.461671L38.0004 120.462H42.0004L42.0004 0.461671L38.0004 0.461671Z" transform="translate(60, 0) rotate(0)"/><path fill="#0077b6" d="M28.0004 0.461671L32.0004 0.461671L32.0004 120.462H28.0004L28.0004 0.461671Z" transform="translate(60, 0) rotate(0)"/><path fill="#0077b6" d="M18.0004 0.46167L18.0004 120.462H22.0004L22.0004 0.461671L18.0004 0.46167Z" transform="translate(60, 0) rotate(0)"/><path fill="#0077b6" d="M8.00037 0.46167L8.00037 120.462H12.0004L12.0004 0.46167L8.00037 0.46167Z" transform="translate(60, 0) rotate(0)"/></g><g mask="url(#mask)" mix-blend-mode="multiply" name="doubleStripes"><rect width="60" height="120" fill="none" transform="translate(60, 60) rotate(90)"/><path fill="#023e8a" d="M48.0004 120.462H52.0004L52.0004 0.461672L48.0004 0.461672L48.0004 120.462Z" transform="translate(60, 60) rotate(90)"/><path fill="#023e8a" d="M38.0004 0.461671L38.0004 120.462H42.0004L42.0004 0.461671L38.0004 0.461671Z" transform="translate(60, 60) rotate(90)"/><path fill="#023e8a" d="M28.0004 0.461671L32.0004 0.461671L32.0004 120.462H28.0004L28.0004 0.461671Z" transform="translate(60, 60) rotate(90)"/><path fill="#023e8a" d="M18.0004 0.46167L18.0004 120.462H22.0004L22.0004 0.461671L18.0004 0.46167Z" transform="translate(60, 60) rotate(90)"/><path fill="#023e8a" d="M8.00037 0.46167L8.00037 120.462H12.0004L12.0004 0.46167L8.00037 0.46167Z" transform="translate(60, 60) rotate(90)"/></g><g mask="url(#mask)" mix-blend-mode="multiply" name="doubleStripes"><rect width="60" height="120" fill="none" transform="translate(60, 120) rotate(0)"/><path fill="#ade8f4" d="M48.0004 120.462H52.0004L52.0004 0.461672L48.0004 0.461672L48.0004 120.462Z" transform="translate(60, 120) rotate(0)"/><path fill="#ade8f4" d="M38.0004 0.461671L38.0004 120.462H42.0004L42.0004 0.461671L38.0004 0.461671Z" transform="translate(60, 120) rotate(0)"/><path fill="#ade8f4" d="M28.0004 0.461671L32.0004 0.461671L32.0004 120.462H28.0004L28.0004 0.461671Z" transform="translate(60, 120) rotate(0)"/><path fill="#ade8f4" d="M18.0004 0.46167L18.0004 120.462H22.0004L22.0004 0.461671L18.0004 0.46167Z" transform="translate(60, 120) rotate(0)"/><path fill="#ade8f4" d="M8.00037 0.46167L8.00037 120.462H12.0004L12.0004 0.46167L8.00037 0.46167Z" transform="translate(60, 120) rotate(0)"/></g><g mask="url(#mask)" mix-blend-mode="multiply" name="doubleStripes"><rect width="60" height="120" fill="none" transform="translate(60, 180) rotate(0)"/><path fill="#023e8a" d="M48.0004 120.462H52.0004L52.0004 0.461672L48.0004 0.461672L48.0004 120.462Z" transform="translate(60, 180) rotate(0)"/><path fill="#023e8a" d="M38.0004 0.461671L38.0004 120.462H42.0004L42.0004 0.461671L38.0004 0.461671Z" transform="translate(60, 180) rotate(0)"/><path fill="#023e8a" d="M28.0004 0.461671L32.0004 0.461671L32.0004 120.462H28.0004L28.0004 0.461671Z" transform="translate(60, 180) rotate(0)"/><path fill="#023e8a" d="M18.0004 0.46167L18.0004 120.462H22.0004L22.0004 0.461671L18.0004 0.46167Z" transform="translate(60, 180) rotate(0)"/><path fill="#023e8a" d="M8.00037 0.46167L8.00037 120.462H12.0004L12.0004 0.46167L8.00037 0.46167Z" transform="translate(60, 180) rotate(0)"/></g><g mask="url(#mask)" mix-blend-mode="multiply" name="doubleStripes"><rect width="60" height="120" fill="none" transform="translate(60, 240) rotate(0)"/><path fill="#48cae4" d="M48.0004 120.462H52.0004L52.0004 0.461672L48.0004 0.461672L48.0004 120.462Z" transform="translate(60, 240) rotate(0)"/><path fill="#48cae4" d="M38.0004 0.461671L38.0004 120.462H42.0004L42.0004 0.461671L38.0004 0.461671Z" transform="translate(60, 240) rotate(0)"/><path fill="#48cae4" d="M28.0004 0.461671L32.0004 0.461671L32.0004 120.462H28.0004L28.0004 0.461671Z" transform="translate(60, 240) rotate(0)"/><path fill="#48cae4" d="M18.0004 0.46167L18.0004 120.462H22.0004L22.0004 0.461671L18.0004 0.46167Z" transform="translate(60, 240) rotate(0)"/><path fill="#48cae4" d="M8.00037 0.46167L8.00037 120.462H12.0004L12.0004 0.46167L8.00037 0.46167Z" transform="translate(60, 240) rotate(0)"/></g><g mask="url(#mask)" mix-blend-mode="multiply" name="doubleStripes"><rect width="60" height="120" fill="none" transform="translate(60, 300) rotate(90)"/><path fill="#ade8f4" d="M48.0004 120.462H52.0004L52.0004 0.461672L48.0004 0.461672L48.0004 120.462Z" transform="translate(60, 300) rotate(90)"/><path fill="#ade8f4" d="M38.0004 0.461671L38.0004 120.462H42.0004L42.0004 0.461671L38.0004 0.461671Z" transform="translate(60, 300) rotate(90)"/><path fill="#ade8f4" d="M28.0004 0.461671L32.0004 0.461671L32.0004 120.462H28.0004L28.0004 0.461671Z" transform="translate(60, 300) rotate(90)"/><path fill="#ade8f4" d="M18.0004 0.46167L18.0004 120.462H22.0004L22.0004 0.461671L18.0004 0.46167Z" transform="translate(60, 300) rotate(90)"/><path fill="#ade8f4" d="M8.00037 0.46167L8.00037 120.462H12.0004L12.0004 0.46167L8.00037 0.46167Z" transform="translate(60, 300) rotate(90)"/></g><g mask="url(#mask)" mix-blend-mode="multiply" name="doubleStripes"><rect width="60" height="120" fill="none" transform="translate(60, 360) rotate(90)"/><path fill="#03045e" d="M48.0004 120.462H52.0004L52.0004 0.461672L48.0004 0.461672L48.0004 120.462Z" transform="translate(60, 360) rotate(90)"/><path fill="#03045e" d="M38.0004 0.461671L38.0004 120.462H42.0004L42.0004 0.461671L38.0004 0.461671Z" transform="translate(60, 360) rotate(90)"/><path fill="#03045e" d="M28.0004 0.461671L32.0004 0.461671L32.0004 120.462H28.0004L28.0004 0.461671Z" transform="translate(60, 360) rotate(90)"/><path fill="#03045e" d="M18.0004 0.46167L18.0004 120.462H22.0004L22.0004 0.461671L18.0004 0.46167Z" transform="translate(60, 360) rotate(90)"/><path fill="#03045e" d="M8.00037 0.46167L8.00037 120.462H12.0004L12.0004 0.46167L8.00037 0.46167Z" transform="translate(60, 360) rotate(90)"/></g><g mask="url(#mask)" mix-blend-mode="multiply" name="doubleStripes"><rect width="60" height="120" fill="none" transform="translate(60, 420) rotate(90)"/><path fill="#00b4d8" d="M48.0004 120.462H52.0004L52.0004 0.461672L48.0004 0.461672L48.0004 120.462Z" transform="translate(60, 420) rotate(90)"/><path fill="#00b4d8" d="M38.0004 0.461671L38.0004 120.462H42.0004L42.0004 0.461671L38.0004 0.461671Z" transform="translate(60, 420) rotate(90)"/><path fill="#00b4d8" d="M28.0004 0.461671L32.0004 0.461671L32.0004 120.462H28.0004L28.0004 0.461671Z" transform="translate(60, 420) rotate(90)"/><path fill="#00b4d8" d="M18.0004 0.46167L18.0004 120.462H22.0004L22.0004 0.461671L18.0004 0.46167Z" transform="translate(60, 420) rotate(90)"/><path fill="#00b4d8" d="M8.00037 0.46167L8.00037 120.462H12.0004L12.0004 0.46167L8.00037 0.46167Z" transform="translate(60, 420) rotate(90)"/></g><g mask="url(#mask)" mix-blend-mode="multiply" name="doubleStripes"><rect width="60" height="120" fill="none" transform="translate(60, 480) rotate(90)"/><path fill="#0077b6" d="M48.0004 120.462H52.0004L52.0004 0.461672L48.0004 0.461672L48.0004 120.462Z" transform="translate(60, 480) rotate(90)"/><path fill="#0077b6" d="M38.0004 0.461671L38.0004 120.462H42.0004L42.0004 0.461671L38.0004 0.461671Z" transform="translate(60, 480) rotate(90)"/><path fill="#0077b6" d="M28.0004 0.461671L32.0004 0.461671L32.0004 120.462H28.0004L28.0004 0.461671Z" transform="translate(60, 480) rotate(90)"/><path fill="#0077b6" d="M18.0004 0.46167L18.0004 120.462H22.0004L22.0004 0.461671L18.0004 0.46167Z" transform="translate(60, 480) rotate(90)"/><path fill="#0077b6" d="M8.00037 0.46167L8.00037 120.462H12.0004L12.0004 0.46167L8.00037 0.46167Z" transform="translate(60, 480) rotate(90)"/></g><g mask="url(#mask)" mix-blend-mode="multiply" name="doubleStripes"><rect width="60" height="120" fill="none" transform="translate(60, 540) rotate(90)"/><path fill="#48cae4" d="M48.0004 120.462H52.0004L52.0004 0.461672L48.0004 0.461672L48.0004 120.462Z" transform="translate(60, 540) rotate(90)"/><path fill="#48cae4" d="M38.0004 0.461671L38.0004 120.462H42.0004L42.0004 0.461671L38.0004 0.461671Z" transform="translate(60, 540) rotate(90)"/><path fill="#48cae4" d="M28.0004 0.461671L32.0004 0.461671L32.0004 120.462H28.0004L28.0004 0.461671Z" transform="translate(60, 540) rotate(90)"/><path fill="#48cae4" d="M18.0004 0.46167L18.0004 120.462H22.0004L22.0004 0.461671L18.0004 0.46167Z" transform="translate(60, 540) rotate(90)"/><path fill="#48cae4" d="M8.00037 0.46167L8.00037 120.462H12.0004L12.0004 0.46167L8.00037 0.46167Z" transform="translate(60, 540) rotate(90)"/></g><g mask="url(#mask)" mix-blend-mode="multiply" name="doubleStripes"><rect width="60" height="120" fill="none" transform="translate(120, 0) rotate(0)"/><path fill="#48cae4" d="M48.0004 120.462H52.0004L52.0004 0.461672L48.0004 0.461672L48.0004 120.462Z" transform="translate(120, 0) rotate(0)"/><path fill="#48cae4" d="M38.0004 0.461671L38.0004 120.462H42.0004L42.0004 0.461671L38.0004 0.461671Z" transform="translate(120, 0) rotate(0)"/><path fill="#48cae4" d="M28.0004 0.461671L32.0004 0.461671L32.0004 120.462H28.0004L28.0004 0.461671Z" transform="translate(120, 0) rotate(0)"/><path fill="#48cae4" d="M18.0004 0.46167L18.0004 120.462H22.0004L22.0004 0.461671L18.0004 0.46167Z" transform="translate(120, 0) rotate(0)"/><path fill="#48cae4" d="M8.00037 0.46167L8.00037 120.462H12.0004L12.0004 0.46167L8.00037 0.46167Z" transform="translate(120, 0) rotate(0)"/></g><g mask="url(#mask)" mix-blend-mode="multiply" name="doubleStripes"><rect width="60" height="120" fill="none" transform="translate(120, 60) rotate(90)"/><path fill="#ade8f4" d="M48.0004 120.462H52.0004L52.0004 0.461672L48.0004 0.461672L48.0004 120.462Z" transform="translate(120, 60) rotate(90)"/><path fill="#ade8f4" d="M38.0004 0.461671L38.0004 120.462H42.0004L42.0004 0.461671L38.0004 0.461671Z" transform="translate(120, 60) rotate(90)"/><path fill="#ade8f4" d="M28.0004 0.461671L32.0004 0.461671L32.0004 120.462H28.0004L28.0004 0.461671Z" transform="translate(120, 60) rotate(90)"/><path fill="#ade8f4" d="M18.0004 0.46167L18.0004 120.462H22.0004L22.0004 0.461671L18.0004 0.46167Z" transform="translate(120, 60) rotate(90)"/><path fill="#ade8f4" d="M8.00037 0.46167L8.00037 120.462H12.0004L12.0004 0.46167L8.00037 0.46167Z" transform="translate(120, 60) rotate(90)"/></g><g mask="url(#mask)" mix-blend-mode="multiply" name="doubleStripes"><rect width="60" height="120" fill="none" transform="translate(120, 120) rotate(0)"/><path fill="#90e0ef" d="M48.0004 120.462H52.0004L52.0004 0.461672L48.0004 0.461672L48.0004 120.462Z" transform="translate(120, 120) rotate(0)"/><path fill="#90e0ef" d="M38.0004 0.461671L38.0004 120.462H42.0004L42.0004 0.461671L38.0004 0.461671Z" transform="translate(120, 120) rotate(0)"/><path fill="#90e0ef" d="M28.0004 0.461671L32.0004 0.461671L32.0004 120.462H28.0004L28.0004 0.461671Z" transform="translate(120, 120) rotate(0)"/><path fill="#90e0ef" d="M18.0004 0.46167L18.0004 120.462H22.0004L22.0004 0.461671L18.0004 0.46167Z" transform="translate(120, 120) rotate(0)"/><path fill="#90e0ef" d="M8.00037 0.46167L8.00037 120.462H12.0004L12.0004 0.46167L8.00037 0.46167Z" transform="translate(120, 120) rotate(0)"/></g><g mask="url(#mask)" mix-blend-mode="multiply" name="doubleStripes"><rect width="60" height="120" fill="none" transform="translate(120, 180) rotate(0)"/><path fill="#48cae4" d="M48.0004 120.462H52.0004L52.0004 0.461672L48.0004 0.461672L48.0004 120.462Z" transform="translate(120, 180) rotate(0)"/><path fill="#48cae4" d="M38.0004 0.461671L38.0004 120.462H42.0004L42.0004 0.461671L38.0004 0.461671Z" transform="translate(120, 180) rotate(0)"/><path fill="#48cae4" d="M28.0004 0.461671L32.0004 0.461671L32.0004 120.462H28.0004L28.0004 0.461671Z" transform="translate(120, 180) rotate(0)"/><path fill="#48cae4" d="M18.0004 0.46167L18.0004 120.462H22.0004L22.0004 0.461671L18.0004 0.46167Z" transform="translate(120, 180) rotate(0)"/><path fill="#48cae4" d="M8.00037 0.46167L8.00037 120.462H12.0004L12.0004 0.46167L8.00037 0.46167Z" transform="translate(120, 180) rotate(0)"/></g><g mask="url(#mask)" mix-blend-mode="multiply" name="doubleStripes"><rect width="60" height="120" fill="none" transform="translate(120, 240) rotate(90)"/><path fill="#ade8f4" d="M48.0004 120.462H52.0004L52.0004 0.461672L48.0004 0.461672L48.0004 120.462Z" transform="translate(120, 240) rotate(90)"/><path fill="#ade8f4" d="M38.0004 0.461671L38.0004 120.462H42.0004L42.0004 0.461671L38.0004 0.461671Z" transform="translate(120, 240) rotate(90)"/><path fill="#ade8f4" d="M28.0004 0.461671L32.0004 0.461671L32.0004 120.462H28.0004L28.0004 0.461671Z" transform="translate(120, 240) rotate(90)"/><path fill="#ade8f4" d="M18.0004 0.46167L18.0004 120.462H22.0004L22.0004 0.461671L18.0004 0.46167Z" transform="translate(120, 240) rotate(90)"/><path fill="#ade8f4" d="M8.00037 0.46167L8.00037 120.462H12.0004L12.0004 0.46167L8.00037 0.46167Z" transform="translate(120, 240) rotate(90)"/></g><g mask="url(#mask)" mix-blend-mode="multiply" name="doubleStripes"><rect width="60" height="120" fill="none" transform="translate(120, 300) rotate(0)"/><path fill="#ade8f4" d="M48.0004 120.462H52.0004L52.0004 0.461672L48.0004 0.461672L48.0004 120.462Z" transform="translate(120, 300) rotate(0)"/><path fill="#ade8f4" d="M38.0004 0.461671L38.0004 120.462H42.0004L42.0004 0.461671L38.0004 0.461671Z" transform="translate(120, 300) rotate(0)"/><path fill="#ade8f4" d="M28.0004 0.461671L32.0004 0.461671L32.0004 120.462H28.0004L28.0004 0.461671Z" transform="translate(120, 300) rotate(0)"/><path fill="#ade8f4" d="M18.0004 0.46167L18.0004 120.462H22.0004L22.0004 0.461671L18.0004 0.46167Z" transform="translate(120, 300) rotate(0)"/><path fill="#ade8f4" d="M8.00037 0.46167L8.00037 120.462H12.0004L12.0004 0.46167L8.00037 0.46167Z" transform="translate(120, 300) rotate(0)"/></g><g mask="url(#mask)" mix-blend-mode="multiply" name="doubleStripes"><rect width="60" height="120" fill="none" transform="translate(120, 360) rotate(90)"/><path fill="#48cae4" d="M48.0004 120.462H52.0004L52.0004 0.461672L48.0004 0.461672L48.0004 120.462Z" transform="translate(120, 360) rotate(90)"/><path fill="#48cae4" d="M38.0004 0.461671L38.0004 120.462H42.0004L42.0004 0.461671L38.0004 0.461671Z" transform="translate(120, 360) rotate(90)"/><path fill="#48cae4" d="M28.0004 0.461671L32.0004 0.461671L32.0004 120.462H28.0004L28.0004 0.461671Z" transform="translate(120, 360) rotate(90)"/><path fill="#48cae4" d="M18.0004 0.46167L18.0004 120.462H22.0004L22.0004 0.461671L18.0004 0.46167Z" transform="translate(120, 360) rotate(90)"/><path fill="#48cae4" d="M8.00037 0.46167L8.00037 120.462H12.0004L12.0004 0.46167L8.00037 0.46167Z" transform="translate(120, 360) rotate(90)"/></g><g mask="url(#mask)" mix-blend-mode="multiply" name="doubleStripes"><rect width="60" height="120" fill="none" transform="translate(120, 420) rotate(0)"/><path fill="#03045e" d="M48.0004 120.462H52.0004L52.0004 0.461672L48.0004 0.461672L48.0004 120.462Z" transform="translate(120, 420) rotate(0)"/><path fill="#03045e" d="M38.0004 0.461671L38.0004 120.462H42.0004L42.0004 0.461671L38.0004 0.461671Z" transform="translate(120, 420) rotate(0)"/><path fill="#03045e" d="M28.0004 0.461671L32.0004 0.461671L32.0004 120.462H28.0004L28.0004 0.461671Z" transform="translate(120, 420) rotate(0)"/><path fill="#03045e" d="M18.0004 0.46167L18.0004 120.462H22.0004L22.0004 0.461671L18.0004 0.46167Z" transform="translate(120, 420) rotate(0)"/><path fill="#03045e" d="M8.00037 0.46167L8.00037 120.462H12.0004L12.0004 0.46167L8.00037 0.46167Z" transform="translate(120, 420) rotate(0)"/></g><g mask="url(#mask)" mix-blend-mode="multiply" name="doubleStripes"><rect width="60" height="120" fill="none" transform="translate(120, 480) rotate(90)"/><path fill="#90e0ef" d="M48.0004 120.462H52.0004L52.0004 0.461672L48.0004 0.461672L48.0004 120.462Z" transform="translate(120, 480) rotate(90)"/><path fill="#90e0ef" d="M38.0004 0.461671L38.0004 120.462H42.0004L42.0004 0.461671L38.0004 0.461671Z" transform="translate(120, 480) rotate(90)"/><path fill="#90e0ef" d="M28.0004 0.461671L32.0004 0.461671L32.0004 120.462H28.0004L28.0004 0.461671Z" transform="translate(120, 480) rotate(90)"/><path fill="#90e0ef" d="M18.0004 0.46167L18.0004 120.462H22.0004L22.0004 0.461671L18.0004 0.46167Z" transform="translate(120, 480) rotate(90)"/><path fill="#90e0ef" d="M8.00037 0.46167L8.00037 120.462H12.0004L12.0004 0.46167L8.00037 0.46167Z" transform="translate(120, 480) rotate(90)"/></g><g mask="url(#mask)" mix-blend-mode="multiply" name="doubleStripes"><rect width="60" height="120" fill="none" transform="translate(120, 540) rotate(0)"/><path fill="#0077b6" d="M48.0004 120.462H52.0004L52.0004 0.461672L48.0004 0.461672L48.0004 120.462Z" transform="translate(120, 540) rotate(0)"/><path fill="#0077b6" d="M38.0004 0.461671L38.0004 120.462H42.0004L42.0004 0.461671L38.0004 0.461671Z" transform="translate(120, 540) rotate(0)"/><path fill="#0077b6" d="M28.0004 0.461671L32.0004 0.461671L32.0004 120.462H28.0004L28.0004 0.461671Z" transform="translate(120, 540) rotate(0)"/><path fill="#0077b6" d="M18.0004 0.46167L18.0004 120.462H22.0004L22.0004 0.461671L18.0004 0.46167Z" transform="translate(120, 540) rotate(0)"/><path fill="#0077b6" d="M8.00037 0.46167L8.00037 120.462H12.0004L12.0004 0.46167L8.00037 0.46167Z" transform="translate(120, 540) rotate(0)"/></g><g mask="url(#mask)" mix-blend-mode="multiply" name="doubleStripes"><rect width="60" height="120" fill="none" transform="translate(180, 0) rotate(0)"/><path fill="#00b4d8" d="M48.0004 120.462H52.0004L52.0004 0.461672L48.0004 0.461672L48.0004 120.462Z" transform="translate(180, 0) rotate(0)"/><path fill="#00b4d8" d="M38.0004 0.461671L38.0004 120.462H42.0004L42.0004 0.461671L38.0004 0.461671Z" transform="translate(180, 0) rotate(0)"/><path fill="#00b4d8" d="M28.0004 0.461671L32.0004 0.461671L32.0004 120.462H28.0004L28.0004 0.461671Z" transform="translate(180, 0) rotate(0)"/><path fill="#00b4d8" d="M18.0004 0.46167L18.0004 120.462H22.0004L22.0004 0.461671L18.0004 0.46167Z" transform="translate(180, 0) rotate(0)"/><path fill="#00b4d8" d="M8.00037 0.46167L8.00037 120.462H12.0004L12.0004 0.46167L8.00037 0.46167Z" transform="translate(180, 0) rotate(0)"/></g><g mask="url(#mask)" mix-blend-mode="multiply" name="doubleStripes"><rect width="60" height="120" fill="none" transform="translate(180, 60) rotate(90)"/><path fill="#48cae4" d="M48.0004 120.462H52.0004L52.0004 0.461672L48.0004 0.461672L48.0004 120.462Z" transform="translate(180, 60) rotate(90)"/><path fill="#48cae4" d="M38.0004 0.461671L38.0004 120.462H42.0004L42.0004 0.461671L38.0004 0.461671Z" transform="translate(180, 60) rotate(90)"/><path fill="#48cae4" d="M28.0004 0.461671L32.0004 0.461671L32.0004 120.462H28.0004L28.0004 0.461671Z" transform="translate(180, 60) rotate(90)"/><path fill="#48cae4" d="M18.0004 0.46167L18.0004 120.462H22.0004L22.0004 0.461671L18.0004 0.46167Z" transform="translate(180, 60) rotate(90)"/><path fill="#48cae4" d="M8.00037 0.46167L8.00037 120.462H12.0004L12.0004 0.46167L8.00037 0.46167Z" transform="translate(180, 60) rotate(90)"/></g><g mask="url(#mask)" mix-blend-mode="multiply" name="doubleStripes"><rect width="60" height="120" fill="none" transform="translate(180, 120) rotate(90)"/><path fill="#ade8f4" d="M48.0004 120.462H52.0004L52.0004 0.461672L48.0004 0.461672L48.0004 120.462Z" transform="translate(180, 120) rotate(90)"/><path fill="#ade8f4" d="M38.0004 0.461671L38.0004 120.462H42.0004L42.0004 0.461671L38.0004 0.461671Z" transform="translate(180, 120) rotate(90)"/><path fill="#ade8f4" d="M28.0004 0.461671L32.0004 0.461671L32.0004 120.462H28.0004L28.0004 0.461671Z" transform="translate(180, 120) rotate(90)"/><path fill="#ade8f4" d="M18.0004 0.46167L18.0004 120.462H22.0004L22.0004 0.461671L18.0004 0.46167Z" transform="translate(180, 120) rotate(90)"/><path fill="#ade8f4" d="M8.00037 0.46167L8.00037 120.462H12.0004L12.0004 0.46167L8.00037 0.46167Z" transform="translate(180, 120) rotate(90)"/></g><g mask="url(#mask)" mix-blend-mode="multiply" name="doubleStripes"><rect width="60" height="120" fill="none" transform="translate(180, 180) rotate(0)"/><path fill="#023e8a" d="M48.0004 120.462H52.0004L52.0004 0.461672L48.0004 0.461672L48.0004 120.462Z" transform="translate(180, 180) rotate(0)"/><path fill="#023e8a" d="M38.0004 0.461671L38.0004 120.462H42.0004L42.0004 0.461671L38.0004 0.461671Z" transform="translate(180, 180) rotate(0)"/><path fill="#023e8a" d="M28.0004 0.461671L32.0004 0.461671L32.0004 120.462H28.0004L28.0004 0.461671Z" transform="translate(180, 180) rotate(0)"/><path fill="#023e8a" d="M18.0004 0.46167L18.0004 120.462H22.0004L22.0004 0.461671L18.0004 0.46167Z" transform="translate(180, 180) rotate(0)"/><path fill="#023e8a" d="M8.00037 0.46167L8.00037 120.462H12.0004L12.0004 0.46167L8.00037 0.46167Z" transform="translate(180, 180) rotate(0)"/></g><g mask="url(#mask)" mix-blend-mode="multiply" name="doubleStripes"><rect width="60" height="120" fill="none" transform="translate(180, 240) rotate(0)"/><path fill="#03045e" d="M48.0004 120.462H52.0004L52.0004 0.461672L48.0004 0.461672L48.0004 120.462Z" transform="translate(180, 240) rotate(0)"/><path fill="#03045e" d="M38.0004 0.461671L38.0004 120.462H42.0004L42.0004 0.461671L38.0004 0.461671Z" transform="translate(180, 240) rotate(0)"/><path fill="#03045e" d="M28.0004 0.461671L32.0004 0.461671L32.0004 120.462H28.0004L28.0004 0.461671Z" transform="translate(180, 240) rotate(0)"/><path fill="#03045e" d="M18.0004 0.46167L18.0004 120.462H22.0004L22.0004 0.461671L18.0004 0.46167Z" transform="translate(180, 240) rotate(0)"/><path fill="#03045e" d="M8.00037 0.46167L8.00037 120.462H12.0004L12.0004 0.46167L8.00037 0.46167Z" transform="translate(180, 240) rotate(0)"/></g><g mask="url(#mask)" mix-blend-mode="multiply" name="doubleStripes"><rect width="60" height="120" fill="none" transform="translate(180, 300) rotate(0)"/><path fill="#0096c7" d="M48.0004 120.462H52.0004L52.0004 0.461672L48.0004 0.461672L48.0004 120.462Z" transform="translate(180, 300) rotate(0)"/><path fill="#0096c7" d="M38.0004 0.461671L38.0004 120.462H42.0004L42.0004 0.461671L38.0004 0.461671Z" transform="translate(180, 300) rotate(0)"/><path fill="#0096c7" d="M28.0004 0.461671L32.0004 0.461671L32.0004 120.462H28.0004L28.0004 0.461671Z" transform="translate(180, 300) rotate(0)"/><path fill="#0096c7" d="M18.0004 0.46167L18.0004 120.462H22.0004L22.0004 0.461671L18.0004 0.46167Z" transform="translate(180, 300) rotate(0)"/><path fill="#0096c7" d="M8.00037 0.46167L8.00037 120.462H12.0004L12.0004 0.46167L8.00037 0.46167Z" transform="translate(180, 300) rotate(0)"/></g><g mask="url(#mask)" mix-blend-mode="multiply" name="doubleStripes"><rect width="60" height="120" fill="none" transform="translate(180, 360) rotate(90)"/><path fill="#0077b6" d="M48.0004 120.462H52.0004L52.0004 0.461672L48.0004 0.461672L48.0004 120.462Z" transform="translate(180, 360) rotate(90)"/><path fill="#0077b6" d="M38.0004 0.461671L38.0004 120.462H42.0004L42.0004 0.461671L38.0004 0.461671Z" transform="translate(180, 360) rotate(90)"/><path fill="#0077b6" d="M28.0004 0.461671L32.0004 0.461671L32.0004 120.462H28.0004L28.0004 0.461671Z" transform="translate(180, 360) rotate(90)"/><path fill="#0077b6" d="M18.0004 0.46167L18.0004 120.462H22.0004L22.0004 0.461671L18.0004 0.46167Z" transform="translate(180, 360) rotate(90)"/><path fill="#0077b6" d="M8.00037 0.46167L8.00037 120.462H12.0004L12.0004 0.46167L8.00037 0.46167Z" transform="translate(180, 360) rotate(90)"/></g><g mask="url(#mask)" mix-blend-mode="multiply" name="doubleStripes"><rect width="60" height="120" fill="none" transform="translate(180, 420) rotate(90)"/><path fill="#90e0ef" d="M48.0004 120.462H52.0004L52.0004 0.461672L48.0004 0.461672L48.0004 120.462Z" transform="translate(180, 420) rotate(90)"/><path fill="#90e0ef" d="M38.0004 0.461671L38.0004 120.462H42.0004L42.0004 0.461671L38.0004 0.461671Z" transform="translate(180, 420) rotate(90)"/><path fill="#90e0ef" d="M28.0004 0.461671L32.0004 0.461671L32.0004 120.462H28.0004L28.0004 0.461671Z" transform="translate(180, 420) rotate(90)"/><path fill="#90e0ef" d="M18.0004 0.46167L18.0004 120.462H22.0004L22.0004 0.461671L18.0004 0.46167Z" transform="translate(180, 420) rotate(90)"/><path fill="#90e0ef" d="M8.00037 0.46167L8.00037 120.462H12.0004L12.0004 0.46167L8.00037 0.46167Z" transform="translate(180, 420) rotate(90)"/></g><g mask="url(#mask)" mix-blend-mode="multiply" name="doubleStripes"><rect width="60" height="120" fill="none" transform="translate(180, 480) rotate(90)"/><path fill="#48cae4" d="M48.0004 120.462H52.0004L52.0004 0.461672L48.0004 0.461672L48.0004 120.462Z" transform="translate(180, 480) rotate(90)"/><path fill="#48cae4" d="M38.0004 0.461671L38.0004 120.462H42.0004L42.0004 0.461671L38.0004 0.461671Z" transform="translate(180, 480) rotate(90)"/><path fill="#48cae4" d="M28.0004 0.461671L32.0004 0.461671L32.0004 120.462H28.0004L28.0004 0.461671Z" transform="translate(180, 480) rotate(90)"/><path fill="#48cae4" d="M18.0004 0.46167L18.0004 120.462H22.0004L22.0004 0.461671L18.0004 0.46167Z" transform="translate(180, 480) rotate(90)"/><path fill="#48cae4" d="M8.00037 0.46167L8.00037 120.462H12.0004L12.0004 0.46167L8.00037 0.46167Z" transform="translate(180, 480) rotate(90)"/></g><g mask="url(#mask)" mix-blend-mode="multiply" name="doubleStripes"><rect width="60" height="120" fill="none" transform="translate(180, 540) rotate(0)"/><path fill="#00b4d8" d="M48.0004 120.462H52.0004L52.0004 0.461672L48.0004 0.461672L48.0004 120.462Z" transform="translate(180, 540) rotate(0)"/><path fill="#00b4d8" d="M38.0004 0.461671L38.0004 120.462H42.0004L42.0004 0.461671L38.0004 0.461671Z" transform="translate(180, 540) rotate(0)"/><path fill="#00b4d8" d="M28.0004 0.461671L32.0004 0.461671L32.0004 120.462H28.0004L28.0004 0.461671Z" transform="translate(180, 540) rotate(0)"/><path fill="#00b4d8" d="M18.0004 0.46167L18.0004 120.462H22.0004L22.0004 0.461671L18.0004 0.46167Z" transform="translate(180, 540) rotate(0)"/><path fill="#00b4d8" d="M8.00037 0.46167L8.00037 120.462H12.0004L12.0004 0.46167L8.00037 0.46167Z" transform="translate(180, 540) rotate(0)"/></g><g mask="url(#mask)" mix-blend-mode="multiply" name="doubleStripes"><rect width="60" height="120" fill="none" transform="translate(240, 0) rotate(90)"/><path fill="#48cae4" d="M48.0004 120.462H52.0004L52.0004 0.461672L48.0004 0.461672L48.0004 120.462Z" transform="translate(240, 0) rotate(90)"/><path fill="#48cae4" d="M38.0004 0.461671L38.0004 120.462H42.0004L42.0004 0.461671L38.0004 0.461671Z" transform="translate(240, 0) rotate(90)"/><path fill="#48cae4" d="M28.0004 0.461671L32.0004 0.461671L32.0004 120.462H28.0004L28.0004 0.461671Z" transform="translate(240, 0) rotate(90)"/><path fill="#48cae4" d="M18.0004 0.46167L18.0004 120.462H22.0004L22.0004 0.461671L18.0004 0.46167Z" transform="translate(240, 0) rotate(90)"/><path fill="#48cae4" d="M8.00037 0.46167L8.00037 120.462H12.0004L12.0004 0.46167L8.00037 0.46167Z" transform="translate(240, 0) rotate(90)"/></g><g mask="url(#mask)" mix-blend-mode="multiply" name="doubleStripes"><rect width="60" height="120" fill="none" transform="translate(240, 60) rotate(0)"/><path fill="#ade8f4" d="M48.0004 120.462H52.0004L52.0004 0.461672L48.0004 0.461672L48.0004 120.462Z" transform="translate(240, 60) rotate(0)"/><path fill="#ade8f4" d="M38.0004 0.461671L38.0004 120.462H42.0004L42.0004 0.461671L38.0004 0.461671Z" transform="translate(240, 60) rotate(0)"/><path fill="#ade8f4" d="M28.0004 0.461671L32.0004 0.461671L32.0004 120.462H28.0004L28.0004 0.461671Z" transform="translate(240, 60) rotate(0)"/><path fill="#ade8f4" d="M18.0004 0.46167L18.0004 120.462H22.0004L22.0004 0.461671L18.0004 0.46167Z" transform="translate(240, 60) rotate(0)"/><path fill="#ade8f4" d="M8.00037 0.46167L8.00037 120.462H12.0004L12.0004 0.46167L8.00037 0.46167Z" transform="translate(240, 60) rotate(0)"/></g><g mask="url(#mask)" mix-blend-mode="multiply" name="doubleStripes"><rect width="60" height="120" fill="none" transform="translate(240, 120) rotate(0)"/><path fill="#0077b6" d="M48.0004 120.462H52.0004L52.0004 0.461672L48.0004 0.461672L48.0004 120.462Z" transform="translate(240, 120) rotate(0)"/><path fill="#0077b6" d="M38.0004 0.461671L38.0004 120.462H42.0004L42.0004 0.461671L38.0004 0.461671Z" transform="translate(240, 120) rotate(0)"/><path fill="#0077b6" d="M28.0004 0.461671L32.0004 0.461671L32.0004 120.462H28.0004L28.0004 0.461671Z" transform="translate(240, 120) rotate(0)"/><path fill="#0077b6" d="M18.0004 0.46167L18.0004 120.462H22.0004L22.0004 0.461671L18.0004 0.46167Z" transform="translate(240, 120) rotate(0)"/><path fill="#0077b6" d="M8.00037 0.46167L8.00037 120.462H12.0004L12.0004 0.46167L8.00037 0.46167Z" transform="translate(240, 120) rotate(0)"/></g><g mask="url(#mask)" mix-blend-mode="multiply" name="doubleStripes"><rect width="60" height="120" fill="none" transform="translate(240, 180) rotate(0)"/><path fill="#00b4d8" d="M48.0004 120.462H52.0004L52.0004 0.461672L48.0004 0.461672L48.0004 120.462Z" transform="translate(240, 180) rotate(0)"/><path fill="#00b4d8" d="M38.0004 0.461671L38.0004 120.462H42.0004L42.0004 0.461671L38.0004 0.461671Z" transform="translate(240, 180) rotate(0)"/><path fill="#00b4d8" d="M28.0004 0.461671L32.0004 0.461671L32.0004 120.462H28.0004L28.0004 0.461671Z" transform="translate(240, 180) rotate(0)"/><path fill="#00b4d8" d="M18.0004 0.46167L18.0004 120.462H22.0004L22.0004 0.461671L18.0004 0.46167Z" transform="translate(240, 180) rotate(0)"/><path fill="#00b4d8" d="M8.00037 0.46167L8.00037 120.462H12.0004L12.0004 0.46167L8.00037 0.46167Z" transform="translate(240, 180) rotate(0)"/></g><g mask="url(#mask)" mix-blend-mode="multiply" name="doubleStripes"><rect width="60" height="120" fill="none" transform="translate(240, 240) rotate(90)"/><path fill="#48cae4" d="M48.0004 120.462H52.0004L52.0004 0.461672L48.0004 0.461672L48.0004 120.462Z" transform="translate(240, 240) rotate(90)"/><path fill="#48cae4" d="M38.0004 0.461671L38.0004 120.462H42.0004L42.0004 0.461671L38.0004 0.461671Z" transform="translate(240, 240) rotate(90)"/><path fill="#48cae4" d="M28.0004 0.461671L32.0004 0.461671L32.0004 120.462H28.0004L28.0004 0.461671Z" transform="translate(240, 240) rotate(90)"/><path fill="#48cae4" d="M18.0004 0.46167L18.0004 120.462H22.0004L22.0004 0.461671L18.0004 0.46167Z" transform="translate(240, 240) rotate(90)"/><path fill="#48cae4" d="M8.00037 0.46167L8.00037 120.462H12.0004L12.0004 0.46167L8.00037 0.46167Z" transform="translate(240, 240) rotate(90)"/></g><g mask="url(#mask)" mix-blend-mode="multiply" name="doubleStripes"><rect width="60" height="120" fill="none" transform="translate(240, 300) rotate(0)"/><path fill="#90e0ef" d="M48.0004 120.462H52.0004L52.0004 0.461672L48.0004 0.461672L48.0004 120.462Z" transform="translate(240, 300) rotate(0)"/><path fill="#90e0ef" d="M38.0004 0.461671L38.0004 120.462H42.0004L42.0004 0.461671L38.0004 0.461671Z" transform="translate(240, 300) rotate(0)"/><path fill="#90e0ef" d="M28.0004 0.461671L32.0004 0.461671L32.0004 120.462H28.0004L28.0004 0.461671Z" transform="translate(240, 300) rotate(0)"/><path fill="#90e0ef" d="M18.0004 0.46167L18.0004 120.462H22.0004L22.0004 0.461671L18.0004 0.46167Z" transform="translate(240, 300) rotate(0)"/><path fill="#90e0ef" d="M8.00037 0.46167L8.00037 120.462H12.0004L12.0004 0.46167L8.00037 0.46167Z" transform="translate(240, 300) rotate(0)"/></g><g mask="url(#mask)" mix-blend-mode="multiply" name="doubleStripes"><rect width="60" height="120" fill="none" transform="translate(240, 360) rotate(0)"/><path fill="#023e8a" d="M48.0004 120.462H52.0004L52.0004 0.461672L48.0004 0.461672L48.0004 120.462Z" transform="translate(240, 360) rotate(0)"/><path fill="#023e8a" d="M38.0004 0.461671L38.0004 120.462H42.0004L42.0004 0.461671L38.0004 0.461671Z" transform="translate(240, 360) rotate(0)"/><path fill="#023e8a" d="M28.0004 0.461671L32.0004 0.461671L32.0004 120.462H28.0004L28.0004 0.461671Z" transform="translate(240, 360) rotate(0)"/><path fill="#023e8a" d="M18.0004 0.46167L18.0004 120.462H22.0004L22.0004 0.461671L18.0004 0.46167Z" transform="translate(240, 360) rotate(0)"/><path fill="#023e8a" d="M8.00037 0.46167L8.00037 120.462H12.0004L12.0004 0.46167L8.00037 0.46167Z" transform="translate(240, 360) rotate(0)"/></g><g mask="url(#mask)" mix-blend-mode="multiply" name="doubleStripes"><rect width="60" height="120" fill="none" transform="translate(240, 420) rotate(0)"/><path fill="#90e0ef" d="M48.0004 120.462H52.0004L52.0004 0.461672L48.0004 0.461672L48.0004 120.462Z" transform="translate(240, 420) rotate(0)"/><path fill="#90e0ef" d="M38.0004 0.461671L38.0004 120.462H42.0004L42.0004 0.461671L38.0004 0.461671Z" transform="translate(240, 420) rotate(0)"/><path fill="#90e0ef" d="M28.0004 0.461671L32.0004 0.461671L32.0004 120.462H28.0004L28.0004 0.461671Z" transform="translate(240, 420) rotate(0)"/><path fill="#90e0ef" d="M18.0004 0.46167L18.0004 120.462H22.0004L22.0004 0.461671L18.0004 0.46167Z" transform="translate(240, 420) rotate(0)"/><path fill="#90e0ef" d="M8.00037 0.46167L8.00037 120.462H12.0004L12.0004 0.46167L8.00037 0.46167Z" transform="translate(240, 420) rotate(0)"/></g><g mask="url(#mask)" mix-blend-mode="multiply" name="doubleStripes"><rect width="60" height="120" fill="none" transform="translate(240, 480) rotate(90)"/><path fill="#00b4d8" d="M48.0004 120.462H52.0004L52.0004 0.461672L48.0004 0.461672L48.0004 120.462Z" transform="translate(240, 480) rotate(90)"/><path fill="#00b4d8" d="M38.0004 0.461671L38.0004 120.462H42.0004L42.0004 0.461671L38.0004 0.461671Z" transform="translate(240, 480) rotate(90)"/><path fill="#00b4d8" d="M28.0004 0.461671L32.0004 0.461671L32.0004 120.462H28.0004L28.0004 0.461671Z" transform="translate(240, 480) rotate(90)"/><path fill="#00b4d8" d="M18.0004 0.46167L18.0004 120.462H22.0004L22.0004 0.461671L18.0004 0.46167Z" transform="translate(240, 480) rotate(90)"/><path fill="#00b4d8" d="M8.00037 0.46167L8.00037 120.462H12.0004L12.0004 0.46167L8.00037 0.46167Z" transform="translate(240, 480) rotate(90)"/></g><g mask="url(#mask)" mix-blend-mode="multiply" name="doubleStripes"><rect width="60" height="120" fill="none" transform="translate(240, 540) rotate(0)"/><path fill="#0096c7" d="M48.0004 120.462H52.0004L52.0004 0.461672L48.0004 0.461672L48.0004 120.462Z" transform="translate(240, 540) rotate(0)"/><path fill="#0096c7" d="M38.0004 0.461671L38.0004 120.462H42.0004L42.0004 0.461671L38.0004 0.461671Z" transform="translate(240, 540) rotate(0)"/><path fill="#0096c7" d="M28.0004 0.461671L32.0004 0.461671L32.0004 120.462H28.0004L28.0004 0.461671Z" transform="translate(240, 540) rotate(0)"/><path fill="#0096c7" d="M18.0004 0.46167L18.0004 120.462H22.0004L22.0004 0.461671L18.0004 0.46167Z" transform="translate(240, 540) rotate(0)"/><path fill="#0096c7" d="M8.00037 0.46167L8.00037 120.462H12.0004L12.0004 0.46167L8.00037 0.46167Z" transform="translate(240, 540) rotate(0)"/></g><g mask="url(#mask)" mix-blend-mode="multiply" name="doubleStripes"><rect width="60" height="120" fill="none" transform="translate(300, 0) rotate(90)"/><path fill="#0096c7" d="M48.0004 120.462H52.0004L52.0004 0.461672L48.0004 0.461672L48.0004 120.462Z" transform="translate(300, 0) rotate(90)"/><path fill="#0096c7" d="M38.0004 0.461671L38.0004 120.462H42.0004L42.0004 0.461671L38.0004 0.461671Z" transform="translate(300, 0) rotate(90)"/><path fill="#0096c7" d="M28.0004 0.461671L32.0004 0.461671L32.0004 120.462H28.0004L28.0004 0.461671Z" transform="translate(300, 0) rotate(90)"/><path fill="#0096c7" d="M18.0004 0.46167L18.0004 120.462H22.0004L22.0004 0.461671L18.0004 0.46167Z" transform="translate(300, 0) rotate(90)"/><path fill="#0096c7" d="M8.00037 0.46167L8.00037 120.462H12.0004L12.0004 0.46167L8.00037 0.46167Z" transform="translate(300, 0) rotate(90)"/></g><g mask="url(#mask)" mix-blend-mode="multiply" name="doubleStripes"><rect width="60" height="120" fill="none" transform="translate(300, 60) rotate(0)"/><path fill="#0077b6" d="M48.0004 120.462H52.0004L52.0004 0.461672L48.0004 0.461672L48.0004 120.462Z" transform="translate(300, 60) rotate(0)"/><path fill="#0077b6" d="M38.0004 0.461671L38.0004 120.462H42.0004L42.0004 0.461671L38.0004 0.461671Z" transform="translate(300, 60) rotate(0)"/><path fill="#0077b6" d="M28.0004 0.461671L32.0004 0.461671L32.0004 120.462H28.0004L28.0004 0.461671Z" transform="translate(300, 60) rotate(0)"/><path fill="#0077b6" d="M18.0004 0.46167L18.0004 120.462H22.0004L22.0004 0.461671L18.0004 0.46167Z" transform="translate(300, 60) rotate(0)"/><path fill="#0077b6" d="M8.00037 0.46167L8.00037 120.462H12.0004L12.0004 0.46167L8.00037 0.46167Z" transform="translate(300, 60) rotate(0)"/></g><g mask="url(#mask)" mix-blend-mode="multiply" name="doubleStripes"><rect width="60" height="120" fill="none" transform="translate(300, 120) rotate(0)"/><path fill="#ade8f4" d="M48.0004 120.462H52.0004L52.0004 0.461672L48.0004 0.461672L48.0004 120.462Z" transform="translate(300, 120) rotate(0)"/><path fill="#ade8f4" d="M38.0004 0.461671L38.0004 120.462H42.0004L42.0004 0.461671L38.0004 0.461671Z" transform="translate(300, 120) rotate(0)"/><path fill="#ade8f4" d="M28.0004 0.461671L32.0004 0.461671L32.0004 120.462H28.0004L28.0004 0.461671Z" transform="translate(300, 120) rotate(0)"/><path fill="#ade8f4" d="M18.0004 0.46167L18.0004 120.462H22.0004L22.0004 0.461671L18.0004 0.46167Z" transform="translate(300, 120) rotate(0)"/><path fill="#ade8f4" d="M8.00037 0.46167L8.00037 120.462H12.0004L12.0004 0.46167L8.00037 0.46167Z" transform="translate(300, 120) rotate(0)"/></g><g mask="url(#mask)" mix-blend-mode="multiply" name="doubleStripes"><rect width="60" height="120" fill="none" transform="translate(300, 180) rotate(90)"/><path fill="#00b4d8" d="M48.0004 120.462H52.0004L52.0004 0.461672L48.0004 0.461672L48.0004 120.462Z" transform="translate(300, 180) rotate(90)"/><path fill="#00b4d8" d="M38.0004 0.461671L38.0004 120.462H42.0004L42.0004 0.461671L38.0004 0.461671Z" transform="translate(300, 180) rotate(90)"/><path fill="#00b4d8" d="M28.0004 0.461671L32.0004 0.461671L32.0004 120.462H28.0004L28.0004 0.461671Z" transform="translate(300, 180) rotate(90)"/><path fill="#00b4d8" d="M18.0004 0.46167L18.0004 120.462H22.0004L22.0004 0.461671L18.0004 0.46167Z" transform="translate(300, 180) rotate(90)"/><path fill="#00b4d8" d="M8.00037 0.46167L8.00037 120.462H12.0004L12.0004 0.46167L8.00037 0.46167Z" transform="translate(300, 180) rotate(90)"/></g><g mask="url(#mask)" mix-blend-mode="multiply" name="doubleStripes"><rect width="60" height="120" fill="none" transform="translate(300, 240) rotate(0)"/><path fill="#03045e" d="M48.0004 120.462H52.0004L52.0004 0.461672L48.0004 0.461672L48.0004 120.462Z" transform="translate(300, 240) rotate(0)"/><path fill="#03045e" d="M38.0004 0.461671L38.0004 120.462H42.0004L42.0004 0.461671L38.0004 0.461671Z" transform="translate(300, 240) rotate(0)"/><path fill="#03045e" d="M28.0004 0.461671L32.0004 0.461671L32.0004 120.462H28.0004L28.0004 0.461671Z" transform="translate(300, 240) rotate(0)"/><path fill="#03045e" d="M18.0004 0.46167L18.0004 120.462H22.0004L22.0004 0.461671L18.0004 0.46167Z" transform="translate(300, 240) rotate(0)"/><path fill="#03045e" d="M8.00037 0.46167L8.00037 120.462H12.0004L12.0004 0.46167L8.00037 0.46167Z" transform="translate(300, 240) rotate(0)"/></g><g mask="url(#mask)" mix-blend-mode="multiply" name="doubleStripes"><rect width="60" height="120" fill="none" transform="translate(300, 300) rotate(0)"/><path fill="#90e0ef" d="M48.0004 120.462H52.0004L52.0004 0.461672L48.0004 0.461672L48.0004 120.462Z" transform="translate(300, 300) rotate(0)"/><path fill="#90e0ef" d="M38.0004 0.461671L38.0004 120.462H42.0004L42.0004 0.461671L38.0004 0.461671Z" transform="translate(300, 300) rotate(0)"/><path fill="#90e0ef" d="M28.0004 0.461671L32.0004 0.461671L32.0004 120.462H28.0004L28.0004 0.461671Z" transform="translate(300, 300) rotate(0)"/><path fill="#90e0ef" d="M18.0004 0.46167L18.0004 120.462H22.0004L22.0004 0.461671L18.0004 0.46167Z" transform="translate(300, 300) rotate(0)"/><path fill="#90e0ef" d="M8.00037 0.46167L8.00037 120.462H12.0004L12.0004 0.46167L8.00037 0.46167Z" transform="translate(300, 300) rotate(0)"/></g><g mask="url(#mask)" mix-blend-mode="multiply" name="doubleStripes"><rect width="60" height="120" fill="none" transform="translate(300, 360) rotate(0)"/><path fill="#00b4d8" d="M48.0004 120.462H52.0004L52.0004 0.461672L48.0004 0.461672L48.0004 120.462Z" transform="translate(300, 360) rotate(0)"/><path fill="#00b4d8" d="M38.0004 0.461671L38.0004 120.462H42.0004L42.0004 0.461671L38.0004 0.461671Z" transform="translate(300, 360) rotate(0)"/><path fill="#00b4d8" d="M28.0004 0.461671L32.0004 0.461671L32.0004 120.462H28.0004L28.0004 0.461671Z" transform="translate(300, 360) rotate(0)"/><path fill="#00b4d8" d="M18.0004 0.46167L18.0004 120.462H22.0004L22.0004 0.461671L18.0004 0.46167Z" transform="translate(300, 360) rotate(0)"/><path fill="#00b4d8" d="M8.00037 0.46167L8.00037 120.462H12.0004L12.0004 0.46167L8.00037 0.46167Z" transform="translate(300, 360) rotate(0)"/></g><g mask="url(#mask)" mix-blend-mode="multiply" name="doubleStripes"><rect width="60" height="120" fill="none" transform="translate(300, 420) rotate(90)"/><path fill="#90e0ef" d="M48.0004 120.462H52.0004L52.0004 0.461672L48.0004 0.461672L48.0004 120.462Z" transform="translate(300, 420) rotate(90)"/><path fill="#90e0ef" d="M38.0004 0.461671L38.0004 120.462H42.0004L42.0004 0.461671L38.0004 0.461671Z" transform="translate(300, 420) rotate(90)"/><path fill="#90e0ef" d="M28.0004 0.461671L32.0004 0.461671L32.0004 120.462H28.0004L28.0004 0.461671Z" transform="translate(300, 420) rotate(90)"/><path fill="#90e0ef" d="M18.0004 0.46167L18.0004 120.462H22.0004L22.0004 0.461671L18.0004 0.46167Z" transform="translate(300, 420) rotate(90)"/><path fill="#90e0ef" d="M8.00037 0.46167L8.00037 120.462H12.0004L12.0004 0.46167L8.00037 0.46167Z" transform="translate(300, 420) rotate(90)"/></g><g mask="url(#mask)" mix-blend-mode="multiply" name="doubleStripes"><rect width="60" height="120" fill="none" transform="translate(300, 480) rotate(0)"/><path fill="#48cae4" d="M48.0004 120.462H52.0004L52.0004 0.461672L48.0004 0.461672L48.0004 120.462Z" transform="translate(300, 480) rotate(0)"/><path fill="#48cae4" d="M38.0004 0.461671L38.0004 120.462H42.0004L42.0004 0.461671L38.0004 0.461671Z" transform="translate(300, 480) rotate(0)"/><path fill="#48cae4" d="M28.0004 0.461671L32.0004 0.461671L32.0004 120.462H28.0004L28.0004 0.461671Z" transform="translate(300, 480) rotate(0)"/><path fill="#48cae4" d="M18.0004 0.46167L18.0004 120.462H22.0004L22.0004 0.461671L18.0004 0.46167Z" transform="translate(300, 480) rotate(0)"/><path fill="#48cae4" d="M8.00037 0.46167L8.00037 120.462H12.0004L12.0004 0.46167L8.00037 0.46167Z" transform="translate(300, 480) rotate(0)"/></g><g mask="url(#mask)" mix-blend-mode="multiply" name="doubleStripes"><rect width="60" height="120" fill="none" transform="translate(300, 540) rotate(90)"/><path fill="#48cae4" d="M48.0004 120.462H52.0004L52.0004 0.461672L48.0004 0.461672L48.0004 120.462Z" transform="translate(300, 540) rotate(90)"/><path fill="#48cae4" d="M38.0004 0.461671L38.0004 120.462H42.0004L42.0004 0.461671L38.0004 0.461671Z" transform="translate(300, 540) rotate(90)"/><path fill="#48cae4" d="M28.0004 0.461671L32.0004 0.461671L32.0004 120.462H28.0004L28.0004 0.461671Z" transform="translate(300, 540) rotate(90)"/><path fill="#48cae4" d="M18.0004 0.46167L18.0004 120.462H22.0004L22.0004 0.461671L18.0004 0.46167Z" transform="translate(300, 540) rotate(90)"/><path fill="#48cae4" d="M8.00037 0.46167L8.00037 120.462H12.0004L12.0004 0.46167L8.00037 0.46167Z" transform="translate(300, 540) rotate(90)"/></g><g mask="url(#mask)" mix-blend-mode="multiply" name="doubleStripes"><rect width="60" height="120" fill="none" transform="translate(360, 0) rotate(90)"/><path fill="#00b4d8" d="M48.0004 120.462H52.0004L52.0004 0.461672L48.0004 0.461672L48.0004 120.462Z" transform="translate(360, 0) rotate(90)"/><path fill="#00b4d8" d="M38.0004 0.461671L38.0004 120.462H42.0004L42.0004 0.461671L38.0004 0.461671Z" transform="translate(360, 0) rotate(90)"/><path fill="#00b4d8" d="M28.0004 0.461671L32.0004 0.461671L32.0004 120.462H28.0004L28.0004 0.461671Z" transform="translate(360, 0) rotate(90)"/><path fill="#00b4d8" d="M18.0004 0.46167L18.0004 120.462H22.0004L22.0004 0.461671L18.0004 0.46167Z" transform="translate(360, 0) rotate(90)"/><path fill="#00b4d8" d="M8.00037 0.46167L8.00037 120.462H12.0004L12.0004 0.46167L8.00037 0.46167Z" transform="translate(360, 0) rotate(90)"/></g><g mask="url(#mask)" mix-blend-mode="multiply" name="doubleStripes"><rect width="60" height="120" fill="none" transform="translate(360, 60) rotate(0)"/><path fill="#48cae4" d="M48.0004 120.462H52.0004L52.0004 0.461672L48.0004 0.461672L48.0004 120.462Z" transform="translate(360, 60) rotate(0)"/><path fill="#48cae4" d="M38.0004 0.461671L38.0004 120.462H42.0004L42.0004 0.461671L38.0004 0.461671Z" transform="translate(360, 60) rotate(0)"/><path fill="#48cae4" d="M28.0004 0.461671L32.0004 0.461671L32.0004 120.462H28.0004L28.0004 0.461671Z" transform="translate(360, 60) rotate(0)"/><path fill="#48cae4" d="M18.0004 0.46167L18.0004 120.462H22.0004L22.0004 0.461671L18.0004 0.46167Z" transform="translate(360, 60) rotate(0)"/><path fill="#48cae4" d="M8.00037 0.46167L8.00037 120.462H12.0004L12.0004 0.46167L8.00037 0.46167Z" transform="translate(360, 60) rotate(0)"/></g><g mask="url(#mask)" mix-blend-mode="multiply" name="doubleStripes"><rect width="60" height="120" fill="none" transform="translate(360, 120) rotate(90)"/><path fill="#ade8f4" d="M48.0004 120.462H52.0004L52.0004 0.461672L48.0004 0.461672L48.0004 120.462Z" transform="translate(360, 120) rotate(90)"/><path fill="#ade8f4" d="M38.0004 0.461671L38.0004 120.462H42.0004L42.0004 0.461671L38.0004 0.461671Z" transform="translate(360, 120) rotate(90)"/><path fill="#ade8f4" d="M28.0004 0.461671L32.0004 0.461671L32.0004 120.462H28.0004L28.0004 0.461671Z" transform="translate(360, 120) rotate(90)"/><path fill="#ade8f4" d="M18.0004 0.46167L18.0004 120.462H22.0004L22.0004 0.461671L18.0004 0.46167Z" transform="translate(360, 120) rotate(90)"/><path fill="#ade8f4" d="M8.00037 0.46167L8.00037 120.462H12.0004L12.0004 0.46167L8.00037 0.46167Z" transform="translate(360, 120) rotate(90)"/></g><g mask="url(#mask)" mix-blend-mode="multiply" name="doubleStripes"><rect width="60" height="120" fill="none" transform="translate(360, 180) rotate(90)"/><path fill="#03045e" d="M48.0004 120.462H52.0004L52.0004 0.461672L48.0004 0.461672L48.0004 120.462Z" transform="translate(360, 180) rotate(90)"/><path fill="#03045e" d="M38.0004 0.461671L38.0004 120.462H42.0004L42.0004 0.461671L38.0004 0.461671Z" transform="translate(360, 180) rotate(90)"/><path fill="#03045e" d="M28.0004 0.461671L32.0004 0.461671L32.0004 120.462H28.0004L28.0004 0.461671Z" transform="translate(360, 180) rotate(90)"/><path fill="#03045e" d="M18.0004 0.46167L18.0004 120.462H22.0004L22.0004 0.461671L18.0004 0.46167Z" transform="translate(360, 180) rotate(90)"/><path fill="#03045e" d="M8.00037 0.46167L8.00037 120.462H12.0004L12.0004 0.46167L8.00037 0.46167Z" transform="translate(360, 180) rotate(90)"/></g><g mask="url(#mask)" mix-blend-mode="multiply" name="doubleStripes"><rect width="60" height="120" fill="none" transform="translate(360, 240) rotate(90)"/><path fill="#ade8f4" d="M48.0004 120.462H52.0004L52.0004 0.461672L48.0004 0.461672L48.0004 120.462Z" transform="translate(360, 240) rotate(90)"/><path fill="#ade8f4" d="M38.0004 0.461671L38.0004 120.462H42.0004L42.0004 0.461671L38.0004 0.461671Z" transform="translate(360, 240) rotate(90)"/><path fill="#ade8f4" d="M28.0004 0.461671L32.0004 0.461671L32.0004 120.462H28.0004L28.0004 0.461671Z" transform="translate(360, 240) rotate(90)"/><path fill="#ade8f4" d="M18.0004 0.46167L18.0004 120.462H22.0004L22.0004 0.461671L18.0004 0.46167Z" transform="translate(360, 240) rotate(90)"/><path fill="#ade8f4" d="M8.00037 0.46167L8.00037 120.462H12.0004L12.0004 0.46167L8.00037 0.46167Z" transform="translate(360, 240) rotate(90)"/></g><g mask="url(#mask)" mix-blend-mode="multiply" name="doubleStripes"><rect width="60" height="120" fill="none" transform="translate(360, 300) rotate(90)"/><path fill="#023e8a" d="M48.0004 120.462H52.0004L52.0004 0.461672L48.0004 0.461672L48.0004 120.462Z" transform="translate(360, 300) rotate(90)"/><path fill="#023e8a" d="M38.0004 0.461671L38.0004 120.462H42.0004L42.0004 0.461671L38.0004 0.461671Z" transform="translate(360, 300) rotate(90)"/><path fill="#023e8a" d="M28.0004 0.461671L32.0004 0.461671L32.0004 120.462H28.0004L28.0004 0.461671Z" transform="translate(360, 300) rotate(90)"/><path fill="#023e8a" d="M18.0004 0.46167L18.0004 120.462H22.0004L22.0004 0.461671L18.0004 0.46167Z" transform="translate(360, 300) rotate(90)"/><path fill="#023e8a" d="M8.00037 0.46167L8.00037 120.462H12.0004L12.0004 0.46167L8.00037 0.46167Z" transform="translate(360, 300) rotate(90)"/></g><g mask="url(#mask)" mix-blend-mode="multiply" name="doubleStripes"><rect width="60" height="120" fill="none" transform="translate(360, 360) rotate(90)"/><path fill="#48cae4" d="M48.0004 120.462H52.0004L52.0004 0.461672L48.0004 0.461672L48.0004 120.462Z" transform="translate(360, 360) rotate(90)"/><path fill="#48cae4" d="M38.0004 0.461671L38.0004 120.462H42.0004L42.0004 0.461671L38.0004 0.461671Z" transform="translate(360, 360) rotate(90)"/><path fill="#48cae4" d="M28.0004 0.461671L32.0004 0.461671L32.0004 120.462H28.0004L28.0004 0.461671Z" transform="translate(360, 360) rotate(90)"/><path fill="#48cae4" d="M18.0004 0.46167L18.0004 120.462H22.0004L22.0004 0.461671L18.0004 0.46167Z" transform="translate(360, 360) rotate(90)"/><path fill="#48cae4" d="M8.00037 0.46167L8.00037 120.462H12.0004L12.0004 0.46167L8.00037 0.46167Z" transform="translate(360, 360) rotate(90)"/></g><g mask="url(#mask)" mix-blend-mode="multiply" name="doubleStripes"><rect width="60" height="120" fill="none" transform="translate(360, 420) rotate(0)"/><path fill="#0096c7" d="M48.0004 120.462H52.0004L52.0004 0.461672L48.0004 0.461672L48.0004 120.462Z" transform="translate(360, 420) rotate(0)"/><path fill="#0096c7" d="M38.0004 0.461671L38.0004 120.462H42.0004L42.0004 0.461671L38.0004 0.461671Z" transform="translate(360, 420) rotate(0)"/><path fill="#0096c7" d="M28.0004 0.461671L32.0004 0.461671L32.0004 120.462H28.0004L28.0004 0.461671Z" transform="translate(360, 420) rotate(0)"/><path fill="#0096c7" d="M18.0004 0.46167L18.0004 120.462H22.0004L22.0004 0.461671L18.0004 0.46167Z" transform="translate(360, 420) rotate(0)"/><path fill="#0096c7" d="M8.00037 0.46167L8.00037 120.462H12.0004L12.0004 0.46167L8.00037 0.46167Z" transform="translate(360, 420) rotate(0)"/></g><g mask="url(#mask)" mix-blend-mode="multiply" name="doubleStripes"><rect width="60" height="120" fill="none" transform="translate(360, 480) rotate(90)"/><path fill="#023e8a" d="M48.0004 120.462H52.0004L52.0004 0.461672L48.0004 0.461672L48.0004 120.462Z" transform="translate(360, 480) rotate(90)"/><path fill="#023e8a" d="M38.0004 0.461671L38.0004 120.462H42.0004L42.0004 0.461671L38.0004 0.461671Z" transform="translate(360, 480) rotate(90)"/><path fill="#023e8a" d="M28.0004 0.461671L32.0004 0.461671L32.0004 120.462H28.0004L28.0004 0.461671Z" transform="translate(360, 480) rotate(90)"/><path fill="#023e8a" d="M18.0004 0.46167L18.0004 120.462H22.0004L22.0004 0.461671L18.0004 0.46167Z" transform="translate(360, 480) rotate(90)"/><path fill="#023e8a" d="M8.00037 0.46167L8.00037 120.462H12.0004L12.0004 0.46167L8.00037 0.46167Z" transform="translate(360, 480) rotate(90)"/></g><g mask="url(#mask)" mix-blend-mode="multiply" name="doubleStripes"><rect width="60" height="120" fill="none" transform="translate(360, 540) rotate(0)"/><path fill="#90e0ef" d="M48.0004 120.462H52.0004L52.0004 0.461672L48.0004 0.461672L48.0004 120.462Z" transform="translate(360, 540) rotate(0)"/><path fill="#90e0ef" d="M38.0004 0.461671L38.0004 120.462H42.0004L42.0004 0.461671L38.0004 0.461671Z" transform="translate(360, 540) rotate(0)"/><path fill="#90e0ef" d="M28.0004 0.461671L32.0004 0.461671L32.0004 120.462H28.0004L28.0004 0.461671Z" transform="translate(360, 540) rotate(0)"/><path fill="#90e0ef" d="M18.0004 0.46167L18.0004 120.462H22.0004L22.0004 0.461671L18.0004 0.46167Z" transform="translate(360, 540) rotate(0)"/><path fill="#90e0ef" d="M8.00037 0.46167L8.00037 120.462H12.0004L12.0004 0.46167L8.00037 0.46167Z" transform="translate(360, 540) rotate(0)"/></g><g mask="url(#mask)" mix-blend-mode="multiply" name="doubleStripes"><rect width="60" height="120" fill="none" transform="translate(420, 0) rotate(0)"/><path fill="#ade8f4" d="M48.0004 120.462H52.0004L52.0004 0.461672L48.0004 0.461672L48.0004 120.462Z" transform="translate(420, 0) rotate(0)"/><path fill="#ade8f4" d="M38.0004 0.461671L38.0004 120.462H42.0004L42.0004 0.461671L38.0004 0.461671Z" transform="translate(420, 0) rotate(0)"/><path fill="#ade8f4" d="M28.0004 0.461671L32.0004 0.461671L32.0004 120.462H28.0004L28.0004 0.461671Z" transform="translate(420, 0) rotate(0)"/><path fill="#ade8f4" d="M18.0004 0.46167L18.0004 120.462H22.0004L22.0004 0.461671L18.0004 0.46167Z" transform="translate(420, 0) rotate(0)"/><path fill="#ade8f4" d="M8.00037 0.46167L8.00037 120.462H12.0004L12.0004 0.46167L8.00037 0.46167Z" transform="translate(420, 0) rotate(0)"/></g><g mask="url(#mask)" mix-blend-mode="multiply" name="doubleStripes"><rect width="60" height="120" fill="none" transform="translate(420, 60) rotate(90)"/><path fill="#023e8a" d="M48.0004 120.462H52.0004L52.0004 0.461672L48.0004 0.461672L48.0004 120.462Z" transform="translate(420, 60) rotate(90)"/><path fill="#023e8a" d="M38.0004 0.461671L38.0004 120.462H42.0004L42.0004 0.461671L38.0004 0.461671Z" transform="translate(420, 60) rotate(90)"/><path fill="#023e8a" d="M28.0004 0.461671L32.0004 0.461671L32.0004 120.462H28.0004L28.0004 0.461671Z" transform="translate(420, 60) rotate(90)"/><path fill="#023e8a" d="M18.0004 0.46167L18.0004 120.462H22.0004L22.0004 0.461671L18.0004 0.46167Z" transform="translate(420, 60) rotate(90)"/><path fill="#023e8a" d="M8.00037 0.46167L8.00037 120.462H12.0004L12.0004 0.46167L8.00037 0.46167Z" transform="translate(420, 60) rotate(90)"/></g><g mask="url(#mask)" mix-blend-mode="multiply" name="doubleStripes"><rect width="60" height="120" fill="none" transform="translate(420, 120) rotate(90)"/><path fill="#caf0f8" d="M48.0004 120.462H52.0004L52.0004 0.461672L48.0004 0.461672L48.0004 120.462Z" transform="translate(420, 120) rotate(90)"/><path fill="#caf0f8" d="M38.0004 0.461671L38.0004 120.462H42.0004L42.0004 0.461671L38.0004 0.461671Z" transform="translate(420, 120) rotate(90)"/><path fill="#caf0f8" d="M28.0004 0.461671L32.0004 0.461671L32.0004 120.462H28.0004L28.0004 0.461671Z" transform="translate(420, 120) rotate(90)"/><path fill="#caf0f8" d="M18.0004 0.46167L18.0004 120.462H22.0004L22.0004 0.461671L18.0004 0.46167Z" transform="translate(420, 120) rotate(90)"/><path fill="#caf0f8" d="M8.00037 0.46167L8.00037 120.462H12.0004L12.0004 0.46167L8.00037 0.46167Z" transform="translate(420, 120) rotate(90)"/></g><g mask="url(#mask)" mix-blend-mode="multiply" name="doubleStripes"><rect width="60" height="120" fill="none" transform="translate(420, 180) rotate(0)"/><path fill="#48cae4" d="M48.0004 120.462H52.0004L52.0004 0.461672L48.0004 0.461672L48.0004 120.462Z" transform="translate(420, 180) rotate(0)"/><path fill="#48cae4" d="M38.0004 0.461671L38.0004 120.462H42.0004L42.0004 0.461671L38.0004 0.461671Z" transform="translate(420, 180) rotate(0)"/><path fill="#48cae4" d="M28.0004 0.461671L32.0004 0.461671L32.0004 120.462H28.0004L28.0004 0.461671Z" transform="translate(420, 180) rotate(0)"/><path fill="#48cae4" d="M18.0004 0.46167L18.0004 120.462H22.0004L22.0004 0.461671L18.0004 0.46167Z" transform="translate(420, 180) rotate(0)"/><path fill="#48cae4" d="M8.00037 0.46167L8.00037 120.462H12.0004L12.0004 0.46167L8.00037 0.46167Z" transform="translate(420, 180) rotate(0)"/></g><g mask="url(#mask)" mix-blend-mode="multiply" name="doubleStripes"><rect width="60" height="120" fill="none" transform="translate(420, 240) rotate(90)"/><path fill="#90e0ef" d="M48.0004 120.462H52.0004L52.0004 0.461672L48.0004 0.461672L48.0004 120.462Z" transform="translate(420, 240) rotate(90)"/><path fill="#90e0ef" d="M38.0004 0.461671L38.0004 120.462H42.0004L42.0004 0.461671L38.0004 0.461671Z" transform="translate(420, 240) rotate(90)"/><path fill="#90e0ef" d="M28.0004 0.461671L32.0004 0.461671L32.0004 120.462H28.0004L28.0004 0.461671Z" transform="translate(420, 240) rotate(90)"/><path fill="#90e0ef" d="M18.0004 0.46167L18.0004 120.462H22.0004L22.0004 0.461671L18.0004 0.46167Z" transform="translate(420, 240) rotate(90)"/><path fill="#90e0ef" d="M8.00037 0.46167L8.00037 120.462H12.0004L12.0004 0.46167L8.00037 0.46167Z" transform="translate(420, 240) rotate(90)"/></g><g mask="url(#mask)" mix-blend-mode="multiply" name="doubleStripes"><rect width="60" height="120" fill="none" transform="translate(420, 300) rotate(0)"/><path fill="#caf0f8" d="M48.0004 120.462H52.0004L52.0004 0.461672L48.0004 0.461672L48.0004 120.462Z" transform="translate(420, 300) rotate(0)"/><path fill="#caf0f8" d="M38.0004 0.461671L38.0004 120.462H42.0004L42.0004 0.461671L38.0004 0.461671Z" transform="translate(420, 300) rotate(0)"/><path fill="#caf0f8" d="M28.0004 0.461671L32.0004 0.461671L32.0004 120.462H28.0004L28.0004 0.461671Z" transform="translate(420, 300) rotate(0)"/><path fill="#caf0f8" d="M18.0004 0.46167L18.0004 120.462H22.0004L22.0004 0.461671L18.0004 0.46167Z" transform="translate(420, 300) rotate(0)"/><path fill="#caf0f8" d="M8.00037 0.46167L8.00037 120.462H12.0004L12.0004 0.46167L8.00037 0.46167Z" transform="translate(420, 300) rotate(0)"/></g><g mask="url(#mask)" mix-blend-mode="multiply" name="doubleStripes"><rect width="60" height="120" fill="none" transform="translate(420, 360) rotate(90)"/><path fill="#0077b6" d="M48.0004 120.462H52.0004L52.0004 0.461672L48.0004 0.461672L48.0004 120.462Z" transform="translate(420, 360) rotate(90)"/><path fill="#0077b6" d="M38.0004 0.461671L38.0004 120.462H42.0004L42.0004 0.461671L38.0004 0.461671Z" transform="translate(420, 360) rotate(90)"/><path fill="#0077b6" d="M28.0004 0.461671L32.0004 0.461671L32.0004 120.462H28.0004L28.0004 0.461671Z" transform="translate(420, 360) rotate(90)"/><path fill="#0077b6" d="M18.0004 0.46167L18.0004 120.462H22.0004L22.0004 0.461671L18.0004 0.46167Z" transform="translate(420, 360) rotate(90)"/><path fill="#0077b6" d="M8.00037 0.46167L8.00037 120.462H12.0004L12.0004 0.46167L8.00037 0.46167Z" transform="translate(420, 360) rotate(90)"/></g><g mask="url(#mask)" mix-blend-mode="multiply" name="doubleStripes"><rect width="60" height="120" fill="none" transform="translate(420, 420) rotate(0)"/><path fill="#ade8f4" d="M48.0004 120.462H52.0004L52.0004 0.461672L48.0004 0.461672L48.0004 120.462Z" transform="translate(420, 420) rotate(0)"/><path fill="#ade8f4" d="M38.0004 0.461671L38.0004 120.462H42.0004L42.0004 0.461671L38.0004 0.461671Z" transform="translate(420, 420) rotate(0)"/><path fill="#ade8f4" d="M28.0004 0.461671L32.0004 0.461671L32.0004 120.462H28.0004L28.0004 0.461671Z" transform="translate(420, 420) rotate(0)"/><path fill="#ade8f4" d="M18.0004 0.46167L18.0004 120.462H22.0004L22.0004 0.461671L18.0004 0.46167Z" transform="translate(420, 420) rotate(0)"/><path fill="#ade8f4" d="M8.00037 0.46167L8.00037 120.462H12.0004L12.0004 0.46167L8.00037 0.46167Z" transform="translate(420, 420) rotate(0)"/></g><g mask="url(#mask)" mix-blend-mode="multiply" name="doubleStripes"><rect width="60" height="120" fill="none" transform="translate(420, 480) rotate(0)"/><path fill="#023e8a" d="M48.0004 120.462H52.0004L52.0004 0.461672L48.0004 0.461672L48.0004 120.462Z" transform="translate(420, 480) rotate(0)"/><path fill="#023e8a" d="M38.0004 0.461671L38.0004 120.462H42.0004L42.0004 0.461671L38.0004 0.461671Z" transform="translate(420, 480) rotate(0)"/><path fill="#023e8a" d="M28.0004 0.461671L32.0004 0.461671L32.0004 120.462H28.0004L28.0004 0.461671Z" transform="translate(420, 480) rotate(0)"/><path fill="#023e8a" d="M18.0004 0.46167L18.0004 120.462H22.0004L22.0004 0.461671L18.0004 0.46167Z" transform="translate(420, 480) rotate(0)"/><path fill="#023e8a" d="M8.00037 0.46167L8.00037 120.462H12.0004L12.0004 0.46167L8.00037 0.46167Z" transform="translate(420, 480) rotate(0)"/></g><g mask="url(#mask)" mix-blend-mode="multiply" name="doubleStripes"><rect width="60" height="120" fill="none" transform="translate(420, 540) rotate(0)"/><path fill="#48cae4" d="M48.0004 120.462H52.0004L52.0004 0.461672L48.0004 0.461672L48.0004 120.462Z" transform="translate(420, 540) rotate(0)"/><path fill="#48cae4" d="M38.0004 0.461671L38.0004 120.462H42.0004L42.0004 0.461671L38.0004 0.461671Z" transform="translate(420, 540) rotate(0)"/><path fill="#48cae4" d="M28.0004 0.461671L32.0004 0.461671L32.0004 120.462H28.0004L28.0004 0.461671Z" transform="translate(420, 540) rotate(0)"/><path fill="#48cae4" d="M18.0004 0.46167L18.0004 120.462H22.0004L22.0004 0.461671L18.0004 0.46167Z" transform="translate(420, 540) rotate(0)"/><path fill="#48cae4" d="M8.00037 0.46167L8.00037 120.462H12.0004L12.0004 0.46167L8.00037 0.46167Z" transform="translate(420, 540) rotate(0)"/></g><g mask="url(#mask)" mix-blend-mode="multiply" name="doubleStripes"><rect width="60" height="120" fill="none" transform="translate(480, 0) rotate(90)"/><path fill="#ade8f4" d="M48.0004 120.462H52.0004L52.0004 0.461672L48.0004 0.461672L48.0004 120.462Z" transform="translate(480, 0) rotate(90)"/><path fill="#ade8f4" d="M38.0004 0.461671L38.0004 120.462H42.0004L42.0004 0.461671L38.0004 0.461671Z" transform="translate(480, 0) rotate(90)"/><path fill="#ade8f4" d="M28.0004 0.461671L32.0004 0.461671L32.0004 120.462H28.0004L28.0004 0.461671Z" transform="translate(480, 0) rotate(90)"/><path fill="#ade8f4" d="M18.0004 0.46167L18.0004 120.462H22.0004L22.0004 0.461671L18.0004 0.46167Z" transform="translate(480, 0) rotate(90)"/><path fill="#ade8f4" d="M8.00037 0.46167L8.00037 120.462H12.0004L12.0004 0.46167L8.00037 0.46167Z" transform="translate(480, 0) rotate(90)"/></g><g mask="url(#mask)" mix-blend-mode="multiply" name="doubleStripes"><rect width="60" height="120" fill="none" transform="translate(480, 60) rotate(90)"/><path fill="#023e8a" d="M48.0004 120.462H52.0004L52.0004 0.461672L48.0004 0.461672L48.0004 120.462Z" transform="translate(480, 60) rotate(90)"/><path fill="#023e8a" d="M38.0004 0.461671L38.0004 120.462H42.0004L42.0004 0.461671L38.0004 0.461671Z" transform="translate(480, 60) rotate(90)"/><path fill="#023e8a" d="M28.0004 0.461671L32.0004 0.461671L32.0004 120.462H28.0004L28.0004 0.461671Z" transform="translate(480, 60) rotate(90)"/><path fill="#023e8a" d="M18.0004 0.46167L18.0004 120.462H22.0004L22.0004 0.461671L18.0004 0.46167Z" transform="translate(480, 60) rotate(90)"/><path fill="#023e8a" d="M8.00037 0.46167L8.00037 120.462H12.0004L12.0004 0.46167L8.00037 0.46167Z" transform="translate(480, 60) rotate(90)"/></g><g mask="url(#mask)" mix-blend-mode="multiply" name="doubleStripes"><rect width="60" height="120" fill="none" transform="translate(480, 120) rotate(0)"/><path fill="#48cae4" d="M48.0004 120.462H52.0004L52.0004 0.461672L48.0004 0.461672L48.0004 120.462Z" transform="translate(480, 120) rotate(0)"/><path fill="#48cae4" d="M38.0004 0.461671L38.0004 120.462H42.0004L42.0004 0.461671L38.0004 0.461671Z" transform="translate(480, 120) rotate(0)"/><path fill="#48cae4" d="M28.0004 0.461671L32.0004 0.461671L32.0004 120.462H28.0004L28.0004 0.461671Z" transform="translate(480, 120) rotate(0)"/><path fill="#48cae4" d="M18.0004 0.46167L18.0004 120.462H22.0004L22.0004 0.461671L18.0004 0.46167Z" transform="translate(480, 120) rotate(0)"/><path fill="#48cae4" d="M8.00037 0.46167L8.00037 120.462H12.0004L12.0004 0.46167L8.00037 0.46167Z" transform="translate(480, 120) rotate(0)"/></g><g mask="url(#mask)" mix-blend-mode="multiply" name="doubleStripes"><rect width="60" height="120" fill="none" transform="translate(480, 180) rotate(0)"/><path fill="#ade8f4" d="M48.0004 120.462H52.0004L52.0004 0.461672L48.0004 0.461672L48.0004 120.462Z" transform="translate(480, 180) rotate(0)"/><path fill="#ade8f4" d="M38.0004 0.461671L38.0004 120.462H42.0004L42.0004 0.461671L38.0004 0.461671Z" transform="translate(480, 180) rotate(0)"/><path fill="#ade8f4" d="M28.0004 0.461671L32.0004 0.461671L32.0004 120.462H28.0004L28.0004 0.461671Z" transform="translate(480, 180) rotate(0)"/><path fill="#ade8f4" d="M18.0004 0.46167L18.0004 120.462H22.0004L22.0004 0.461671L18.0004 0.46167Z" transform="translate(480, 180) rotate(0)"/><path fill="#ade8f4" d="M8.00037 0.46167L8.00037 120.462H12.0004L12.0004 0.46167L8.00037 0.46167Z" transform="translate(480, 180) rotate(0)"/></g><g mask="url(#mask)" mix-blend-mode="multiply" name="doubleStripes"><rect width="60" height="120" fill="none" transform="translate(480, 240) rotate(0)"/><path fill="#0077b6" d="M48.0004 120.462H52.0004L52.0004 0.461672L48.0004 0.461672L48.0004 120.462Z" transform="translate(480, 240) rotate(0)"/><path fill="#0077b6" d="M38.0004 0.461671L38.0004 120.462H42.0004L42.0004 0.461671L38.0004 0.461671Z" transform="translate(480, 240) rotate(0)"/><path fill="#0077b6" d="M28.0004 0.461671L32.0004 0.461671L32.0004 120.462H28.0004L28.0004 0.461671Z" transform="translate(480, 240) rotate(0)"/><path fill="#0077b6" d="M18.0004 0.46167L18.0004 120.462H22.0004L22.0004 0.461671L18.0004 0.46167Z" transform="translate(480, 240) rotate(0)"/><path fill="#0077b6" d="M8.00037 0.46167L8.00037 120.462H12.0004L12.0004 0.46167L8.00037 0.46167Z" transform="translate(480, 240) rotate(0)"/></g><g mask="url(#mask)" mix-blend-mode="multiply" name="doubleStripes"><rect width="60" height="120" fill="none" transform="translate(480, 300) rotate(90)"/><path fill="#0096c7" d="M48.0004 120.462H52.0004L52.0004 0.461672L48.0004 0.461672L48.0004 120.462Z" transform="translate(480, 300) rotate(90)"/><path fill="#0096c7" d="M38.0004 0.461671L38.0004 120.462H42.0004L42.0004 0.461671L38.0004 0.461671Z" transform="translate(480, 300) rotate(90)"/><path fill="#0096c7" d="M28.0004 0.461671L32.0004 0.461671L32.0004 120.462H28.0004L28.0004 0.461671Z" transform="translate(480, 300) rotate(90)"/><path fill="#0096c7" d="M18.0004 0.46167L18.0004 120.462H22.0004L22.0004 0.461671L18.0004 0.46167Z" transform="translate(480, 300) rotate(90)"/><path fill="#0096c7" d="M8.00037 0.46167L8.00037 120.462H12.0004L12.0004 0.46167L8.00037 0.46167Z" transform="translate(480, 300) rotate(90)"/></g><g mask="url(#mask)" mix-blend-mode="multiply" name="doubleStripes"><rect width="60" height="120" fill="none" transform="translate(480, 360) rotate(90)"/><path fill="#023e8a" d="M48.0004 120.462H52.0004L52.0004 0.461672L48.0004 0.461672L48.0004 120.462Z" transform="translate(480, 360) rotate(90)"/><path fill="#023e8a" d="M38.0004 0.461671L38.0004 120.462H42.0004L42.0004 0.461671L38.0004 0.461671Z" transform="translate(480, 360) rotate(90)"/><path fill="#023e8a" d="M28.0004 0.461671L32.0004 0.461671L32.0004 120.462H28.0004L28.0004 0.461671Z" transform="translate(480, 360) rotate(90)"/><path fill="#023e8a" d="M18.0004 0.46167L18.0004 120.462H22.0004L22.0004 0.461671L18.0004 0.46167Z" transform="translate(480, 360) rotate(90)"/><path fill="#023e8a" d="M8.00037 0.46167L8.00037 120.462H12.0004L12.0004 0.46167L8.00037 0.46167Z" transform="translate(480, 360) rotate(90)"/></g><g mask="url(#mask)" mix-blend-mode="multiply" name="doubleStripes"><rect width="60" height="120" fill="none" transform="translate(480, 420) rotate(0)"/><path fill="#023e8a" d="M48.0004 120.462H52.0004L52.0004 0.461672L48.0004 0.461672L48.0004 120.462Z" transform="translate(480, 420) rotate(0)"/><path fill="#023e8a" d="M38.0004 0.461671L38.0004 120.462H42.0004L42.0004 0.461671L38.0004 0.461671Z" transform="translate(480, 420) rotate(0)"/><path fill="#023e8a" d="M28.0004 0.461671L32.0004 0.461671L32.0004 120.462H28.0004L28.0004 0.461671Z" transform="translate(480, 420) rotate(0)"/><path fill="#023e8a" d="M18.0004 0.46167L18.0004 120.462H22.0004L22.0004 0.461671L18.0004 0.46167Z" transform="translate(480, 420) rotate(0)"/><path fill="#023e8a" d="M8.00037 0.46167L8.00037 120.462H12.0004L12.0004 0.46167L8.00037 0.46167Z" transform="translate(480, 420) rotate(0)"/></g><g mask="url(#mask)" mix-blend-mode="multiply" name="doubleStripes"><rect width="60" height="120" fill="none" transform="translate(480, 480) rotate(90)"/><path fill="#caf0f8" d="M48.0004 120.462H52.0004L52.0004 0.461672L48.0004 0.461672L48.0004 120.462Z" transform="translate(480, 480) rotate(90)"/><path fill="#caf0f8" d="M38.0004 0.461671L38.0004 120.462H42.0004L42.0004 0.461671L38.0004 0.461671Z" transform="translate(480, 480) rotate(90)"/><path fill="#caf0f8" d="M28.0004 0.461671L32.0004 0.461671L32.0004 120.462H28.0004L28.0004 0.461671Z" transform="translate(480, 480) rotate(90)"/><path fill="#caf0f8" d="M18.0004 0.46167L18.0004 120.462H22.0004L22.0004 0.461671L18.0004 0.46167Z" transform="translate(480, 480) rotate(90)"/><path fill="#caf0f8" d="M8.00037 0.46167L8.00037 120.462H12.0004L12.0004 0.46167L8.00037 0.46167Z" transform="translate(480, 480) rotate(90)"/></g><g mask="url(#mask)" mix-blend-mode="multiply" name="doubleStripes"><rect width="60" height="120" fill="none" transform="translate(480, 540) rotate(90)"/><path fill="#03045e" d="M48.0004 120.462H52.0004L52.0004 0.461672L48.0004 0.461672L48.0004 120.462Z" transform="translate(480, 540) rotate(90)"/><path fill="#03045e" d="M38.0004 0.461671L38.0004 120.462H42.0004L42.0004 0.461671L38.0004 0.461671Z" transform="translate(480, 540) rotate(90)"/><path fill="#03045e" d="M28.0004 0.461671L32.0004 0.461671L32.0004 120.462H28.0004L28.0004 0.461671Z" transform="translate(480, 540) rotate(90)"/><path fill="#03045e" d="M18.0004 0.46167L18.0004 120.462H22.0004L22.0004 0.461671L18.0004 0.46167Z" transform="translate(480, 540) rotate(90)"/><path fill="#03045e" d="M8.00037 0.46167L8.00037 120.462H12.0004L12.0004 0.46167L8.00037 0.46167Z" transform="translate(480, 540) rotate(90)"/></g><g mask="url(#mask)" mix-blend-mode="multiply" name="doubleStripes"><rect width="60" height="120" fill="none" transform="translate(540, 0) rotate(90)"/><path fill="#0096c7" d="M48.0004 120.462H52.0004L52.0004 0.461672L48.0004 0.461672L48.0004 120.462Z" transform="translate(540, 0) rotate(90)"/><path fill="#0096c7" d="M38.0004 0.461671L38.0004 120.462H42.0004L42.0004 0.461671L38.0004 0.461671Z" transform="translate(540, 0) rotate(90)"/><path fill="#0096c7" d="M28.0004 0.461671L32.0004 0.461671L32.0004 120.462H28.0004L28.0004 0.461671Z" transform="translate(540, 0) rotate(90)"/><path fill="#0096c7" d="M18.0004 0.46167L18.0004 120.462H22.0004L22.0004 0.461671L18.0004 0.46167Z" transform="translate(540, 0) rotate(90)"/><path fill="#0096c7" d="M8.00037 0.46167L8.00037 120.462H12.0004L12.0004 0.46167L8.00037 0.46167Z" transform="translate(540, 0) rotate(90)"/></g><g mask="url(#mask)" mix-blend-mode="multiply" name="doubleStripes"><rect width="60" height="120" fill="none" transform="translate(540, 60) rotate(90)"/><path fill="#023e8a" d="M48.0004 120.462H52.0004L52.0004 0.461672L48.0004 0.461672L48.0004 120.462Z" transform="translate(540, 60) rotate(90)"/><path fill="#023e8a" d="M38.0004 0.461671L38.0004 120.462H42.0004L42.0004 0.461671L38.0004 0.461671Z" transform="translate(540, 60) rotate(90)"/><path fill="#023e8a" d="M28.0004 0.461671L32.0004 0.461671L32.0004 120.462H28.0004L28.0004 0.461671Z" transform="translate(540, 60) rotate(90)"/><path fill="#023e8a" d="M18.0004 0.46167L18.0004 120.462H22.0004L22.0004 0.461671L18.0004 0.46167Z" transform="translate(540, 60) rotate(90)"/><path fill="#023e8a" d="M8.00037 0.46167L8.00037 120.462H12.0004L12.0004 0.46167L8.00037 0.46167Z" transform="translate(540, 60) rotate(90)"/></g><g mask="url(#mask)" mix-blend-mode="multiply" name="doubleStripes"><rect width="60" height="120" fill="none" transform="translate(540, 120) rotate(0)"/><path fill="#48cae4" d="M48.0004 120.462H52.0004L52.0004 0.461672L48.0004 0.461672L48.0004 120.462Z" transform="translate(540, 120) rotate(0)"/><path fill="#48cae4" d="M38.0004 0.461671L38.0004 120.462H42.0004L42.0004 0.461671L38.0004 0.461671Z" transform="translate(540, 120) rotate(0)"/><path fill="#48cae4" d="M28.0004 0.461671L32.0004 0.461671L32.0004 120.462H28.0004L28.0004 0.461671Z" transform="translate(540, 120) rotate(0)"/><path fill="#48cae4" d="M18.0004 0.46167L18.0004 120.462H22.0004L22.0004 0.461671L18.0004 0.46167Z" transform="translate(540, 120) rotate(0)"/><path fill="#48cae4" d="M8.00037 0.46167L8.00037 120.462H12.0004L12.0004 0.46167L8.00037 0.46167Z" transform="translate(540, 120) rotate(0)"/></g><g mask="url(#mask)" mix-blend-mode="multiply" name="doubleStripes"><rect width="60" height="120" fill="none" transform="translate(540, 180) rotate(0)"/><path fill="#ade8f4" d="M48.0004 120.462H52.0004L52.0004 0.461672L48.0004 0.461672L48.0004 120.462Z" transform="translate(540, 180) rotate(0)"/><path fill="#ade8f4" d="M38.0004 0.461671L38.0004 120.462H42.0004L42.0004 0.461671L38.0004 0.461671Z" transform="translate(540, 180) rotate(0)"/><path fill="#ade8f4" d="M28.0004 0.461671L32.0004 0.461671L32.0004 120.462H28.0004L28.0004 0.461671Z" transform="translate(540, 180) rotate(0)"/><path fill="#ade8f4" d="M18.0004 0.46167L18.0004 120.462H22.0004L22.0004 0.461671L18.0004 0.46167Z" transform="translate(540, 180) rotate(0)"/><path fill="#ade8f4" d="M8.00037 0.46167L8.00037 120.462H12.0004L12.0004 0.46167L8.00037 0.46167Z" transform="translate(540, 180) rotate(0)"/></g><g mask="url(#mask)" mix-blend-mode="multiply" name="doubleStripes"><rect width="60" height="120" fill="none" transform="translate(540, 240) rotate(90)"/><path fill="#ade8f4" d="M48.0004 120.462H52.0004L52.0004 0.461672L48.0004 0.461672L48.0004 120.462Z" transform="translate(540, 240) rotate(90)"/><path fill="#ade8f4" d="M38.0004 0.461671L38.0004 120.462H42.0004L42.0004 0.461671L38.0004 0.461671Z" transform="translate(540, 240) rotate(90)"/><path fill="#ade8f4" d="M28.0004 0.461671L32.0004 0.461671L32.0004 120.462H28.0004L28.0004 0.461671Z" transform="translate(540, 240) rotate(90)"/><path fill="#ade8f4" d="M18.0004 0.46167L18.0004 120.462H22.0004L22.0004 0.461671L18.0004 0.46167Z" transform="translate(540, 240) rotate(90)"/><path fill="#ade8f4" d="M8.00037 0.46167L8.00037 120.462H12.0004L12.0004 0.46167L8.00037 0.46167Z" transform="translate(540, 240) rotate(90)"/></g><g mask="url(#mask)" mix-blend-mode="multiply" name="doubleStripes"><rect width="60" height="120" fill="none" transform="translate(540, 300) rotate(90)"/><path fill="#0077b6" d="M48.0004 120.462H52.0004L52.0004 0.461672L48.0004 0.461672L48.0004 120.462Z" transform="translate(540, 300) rotate(90)"/><path fill="#0077b6" d="M38.0004 0.461671L38.0004 120.462H42.0004L42.0004 0.461671L38.0004 0.461671Z" transform="translate(540, 300) rotate(90)"/><path fill="#0077b6" d="M28.0004 0.461671L32.0004 0.461671L32.0004 120.462H28.0004L28.0004 0.461671Z" transform="translate(540, 300) rotate(90)"/><path fill="#0077b6" d="M18.0004 0.46167L18.0004 120.462H22.0004L22.0004 0.461671L18.0004 0.46167Z" transform="translate(540, 300) rotate(90)"/><path fill="#0077b6" d="M8.00037 0.46167L8.00037 120.462H12.0004L12.0004 0.46167L8.00037 0.46167Z" transform="translate(540, 300) rotate(90)"/></g><g mask="url(#mask)" mix-blend-mode="multiply" name="doubleStripes"><rect width="60" height="120" fill="none" transform="translate(540, 360) rotate(0)"/><path fill="#90e0ef" d="M48.0004 120.462H52.0004L52.0004 0.461672L48.0004 0.461672L48.0004 120.462Z" transform="translate(540, 360) rotate(0)"/><path fill="#90e0ef" d="M38.0004 0.461671L38.0004 120.462H42.0004L42.0004 0.461671L38.0004 0.461671Z" transform="translate(540, 360) rotate(0)"/><path fill="#90e0ef" d="M28.0004 0.461671L32.0004 0.461671L32.0004 120.462H28.0004L28.0004 0.461671Z" transform="translate(540, 360) rotate(0)"/><path fill="#90e0ef" d="M18.0004 0.46167L18.0004 120.462H22.0004L22.0004 0.461671L18.0004 0.46167Z" transform="translate(540, 360) rotate(0)"/><path fill="#90e0ef" d="M8.00037 0.46167L8.00037 120.462H12.0004L12.0004 0.46167L8.00037 0.46167Z" transform="translate(540, 360) rotate(0)"/></g><g mask="url(#mask)" mix-blend-mode="multiply" name="doubleStripes"><rect width="60" height="120" fill="none" transform="translate(540, 420) rotate(90)"/><path fill="#caf0f8" d="M48.0004 120.462H52.0004L52.0004 0.461672L48.0004 0.461672L48.0004 120.462Z" transform="translate(540, 420) rotate(90)"/><path fill="#caf0f8" d="M38.0004 0.461671L38.0004 120.462H42.0004L42.0004 0.461671L38.0004 0.461671Z" transform="translate(540, 420) rotate(90)"/><path fill="#caf0f8" d="M28.0004 0.461671L32.0004 0.461671L32.0004 120.462H28.0004L28.0004 0.461671Z" transform="translate(540, 420) rotate(90)"/><path fill="#caf0f8" d="M18.0004 0.46167L18.0004 120.462H22.0004L22.0004 0.461671L18.0004 0.46167Z" transform="translate(540, 420) rotate(90)"/><path fill="#caf0f8" d="M8.00037 0.46167L8.00037 120.462H12.0004L12.0004 0.46167L8.00037 0.46167Z" transform="translate(540, 420) rotate(90)"/></g><g mask="url(#mask)" mix-blend-mode="multiply" name="doubleStripes"><rect width="60" height="120" fill="none" transform="translate(540, 480) rotate(0)"/><path fill="#90e0ef" d="M48.0004 120.462H52.0004L52.0004 0.461672L48.0004 0.461672L48.0004 120.462Z" transform="translate(540, 480) rotate(0)"/><path fill="#90e0ef" d="M38.0004 0.461671L38.0004 120.462H42.0004L42.0004 0.461671L38.0004 0.461671Z" transform="translate(540, 480) rotate(0)"/><path fill="#90e0ef" d="M28.0004 0.461671L32.0004 0.461671L32.0004 120.462H28.0004L28.0004 0.461671Z" transform="translate(540, 480) rotate(0)"/><path fill="#90e0ef" d="M18.0004 0.46167L18.0004 120.462H22.0004L22.0004 0.461671L18.0004 0.46167Z" transform="translate(540, 480) rotate(0)"/><path fill="#90e0ef" d="M8.00037 0.46167L8.00037 120.462H12.0004L12.0004 0.46167L8.00037 0.46167Z" transform="translate(540, 480) rotate(0)"/></g><g mask="url(#mask)" mix-blend-mode="multiply" name="doubleStripes"><rect width="60" height="120" fill="none" transform="translate(540, 540) rotate(0)"/><path fill="#48cae4" d="M48.0004 120.462H52.0004L52.0004 0.461672L48.0004 0.461672L48.0004 120.462Z" transform="translate(540, 540) rotate(0)"/><path fill="#48cae4" d="M38.0004 0.461671L38.0004 120.462H42.0004L42.0004 0.461671L38.0004 0.461671Z" transform="translate(540, 540) rotate(0)"/><path fill="#48cae4" d="M28.0004 0.461671L32.0004 0.461671L32.0004 120.462H28.0004L28.0004 0.461671Z" transform="translate(540, 540) rotate(0)"/><path fill="#48cae4" d="M18.0004 0.46167L18.0004 120.462H22.0004L22.0004 0.461671L18.0004 0.46167Z" transform="translate(540, 540) rotate(0)"/><path fill="#48cae4" d="M8.00037 0.46167L8.00037 120.462H12.0004L12.0004 0.46167L8.00037 0.46167Z" transform="translate(540, 540) rotate(0)"/></g></svg>