<svg xmlns="http://www.w3.org/2000/svg" xmlns:svgjs="http://svgjs.dev/svgjs" xmlns:xlink="http://www.w3.org/1999/xlink" height="100%" version="1.1" viewBox="0 0 600 600"><rect width="600" height="600" fill="transparent"/><mask id="mask" mask-type="alpha" maskUnits="userSpaceOnUse"><rect width="600" height="600" fill="#fff" transform="translate(0, 0)"/></mask><svg><rect width="60" height="60" fill="#ade8f4" transform="translate(0, 0)"/><rect width="30" height="30" x="15" y="15" fill="#90e0ef" transform="translate(0, 0)"/></svg><svg><rect width="60" height="60" fill="#90e0ef" transform="translate(0, 60)"/><path fill="#00b4d8" d="M60 0H0v60L60 0z" transform="translate(0, 60) translate(30,30) rotate(180) translate(-30,-30)"/></svg><svg><rect width="60" height="60" fill="#00b4d8" transform="translate(0, 120)"/><rect width="30" height="30" x="15" y="15" fill="#48cae4" transform="translate(0, 120)"/></svg><svg><rect width="60" height="60" fill="#ade8f4" transform="translate(0, 180)"/><path fill="#0096c7" d="M60 0H0v60L60 0z" transform="translate(0, 180) translate(30,30) rotate(0) translate(-30,-30)"/><rect width="30" height="30" x="15" y="15" fill="#03045e" transform="translate(0, 180)"/></svg><svg><rect width="60" height="60" fill="#0077b6" transform="translate(0, 240)"/><path fill="#90e0ef" d="M60 0H0v60L60 0z" transform="translate(0, 240) translate(30,30) rotate(270) translate(-30,-30)"/><rect width="30" height="30" x="15" y="15" fill="#ade8f4" transform="translate(0, 240)"/></svg><svg><rect width="60" height="60" fill="#ade8f4" transform="translate(0, 300)"/><path fill="#0096c7" d="M60 0H0v60L60 0z" transform="translate(0, 300) translate(30,30) rotate(270) translate(-30,-30)"/></svg><svg><rect width="60" height="60" fill="#0096c7" transform="translate(0, 360)"/><path fill="#ade8f4" d="M60 0H0v60L60 0z" transform="translate(0, 360) translate(30,30) rotate(270) translate(-30,-30)"/><rect width="30" height="30" x="15" y="15" fill="#023e8a" transform="translate(0, 360)"/></svg><svg><rect width="60" height="60" fill="#0077b6" transform="translate(0, 420)"/><path fill="#00b4d8" d="M60 0H0v60L60 0z" transform="translate(0, 420) translate(30,30) rotate(90) translate(-30,-30)"/><rect width="30" height="30" x="15" y="15" fill="#48cae4" transform="translate(0, 420)"/></svg><svg><rect width="60" height="60" fill="#ade8f4" transform="translate(0, 480)"/><rect width="30" height="30" x="15" y="15" fill="#00b4d8" transform="translate(0, 480)"/></svg><svg><rect width="60" height="60" fill="#00b4d8" transform="translate(0, 540)"/><path fill="#ade8f4" d="M60 0H0v60L60 0z" transform="translate(0, 540) translate(30,30) rotate(90) translate(-30,-30)"/><rect width="30" height="30" x="15" y="15" fill="#48cae4" transform="translate(0, 540)"/></svg><svg><rect width="60" height="60" fill="#0096c7" transform="translate(60, 0)"/><path fill="#023e8a" d="M60 0H0v60L60 0z" transform="translate(60, 0) translate(30,30) rotate(0) translate(-30,-30)"/></svg><svg><rect width="60" height="60" fill="#48cae4" transform="translate(60, 60)"/><path fill="#ade8f4" d="M60 0H0v60L60 0z" transform="translate(60, 60) translate(30,30) rotate(0) translate(-30,-30)"/><rect width="30" height="30" x="15" y="15" fill="#caf0f8" transform="translate(60, 60)"/></svg><svg><rect width="60" height="60" fill="#ade8f4" transform="translate(60, 120)"/><path fill="#90e0ef" d="M60 0H0v60L60 0z" transform="translate(60, 120) translate(30,30) rotate(90) translate(-30,-30)"/></svg><svg><rect width="60" height="60" fill="#023e8a" transform="translate(60, 180)"/><path fill="#00b4d8" d="M60 0H0v60L60 0z" transform="translate(60, 180) translate(30,30) rotate(90) translate(-30,-30)"/></svg><svg><rect width="60" height="60" fill="#023e8a" transform="translate(60, 240)"/><path fill="#0077b6" d="M60 0H0v60L60 0z" transform="translate(60, 240) translate(30,30) rotate(90) translate(-30,-30)"/></svg><svg><rect width="60" height="60" fill="#0077b6" transform="translate(60, 300)"/><rect width="30" height="30" x="15" y="15" fill="#90e0ef" transform="translate(60, 300)"/></svg><svg><rect width="60" height="60" fill="#48cae4" transform="translate(60, 360)"/><path fill="#ade8f4" d="M60 0H0v60L60 0z" transform="translate(60, 360) translate(30,30) rotate(0) translate(-30,-30)"/><rect width="30" height="30" x="15" y="15" fill="#90e0ef" transform="translate(60, 360)"/></svg><svg><rect width="60" height="60" fill="#caf0f8" transform="translate(60, 420)"/><path fill="#03045e" d="M60 0H0v60L60 0z" transform="translate(60, 420) translate(30,30) rotate(90) translate(-30,-30)"/></svg><svg><rect width="60" height="60" fill="#48cae4" transform="translate(60, 480)"/><path fill="#023e8a" d="M60 0H0v60L60 0z" transform="translate(60, 480) translate(30,30) rotate(90) translate(-30,-30)"/><rect width="30" height="30" x="15" y="15" fill="#0077b6" transform="translate(60, 480)"/></svg><svg><rect width="60" height="60" fill="#48cae4" transform="translate(60, 540)"/><path fill="#0077b6" d="M60 0H0v60L60 0z" transform="translate(60, 540) translate(30,30) rotate(0) translate(-30,-30)"/><rect width="30" height="30" x="15" y="15" fill="#ade8f4" transform="translate(60, 540)"/></svg><svg><rect width="60" height="60" fill="#0077b6" transform="translate(120, 0)"/><path fill="#00b4d8" d="M60 0H0v60L60 0z" transform="translate(120, 0) translate(30,30) rotate(0) translate(-30,-30)"/></svg><svg><rect width="60" height="60" fill="#90e0ef" transform="translate(120, 60)"/><rect width="30" height="30" x="15" y="15" fill="#023e8a" transform="translate(120, 60)"/></svg><svg><rect width="60" height="60" fill="#0077b6" transform="translate(120, 120)"/><path fill="#00b4d8" d="M60 0H0v60L60 0z" transform="translate(120, 120) translate(30,30) rotate(180) translate(-30,-30)"/></svg><svg><rect width="60" height="60" fill="#90e0ef" transform="translate(120, 180)"/><path fill="#03045e" d="M60 0H0v60L60 0z" transform="translate(120, 180) translate(30,30) rotate(180) translate(-30,-30)"/></svg><svg><rect width="60" height="60" fill="#0096c7" transform="translate(120, 240)"/><path fill="#ade8f4" d="M60 0H0v60L60 0z" transform="translate(120, 240) translate(30,30) rotate(90) translate(-30,-30)"/></svg><svg><rect width="60" height="60" fill="#00b4d8" transform="translate(120, 300)"/><rect width="30" height="30" x="15" y="15" fill="#023e8a" transform="translate(120, 300)"/></svg><svg><rect width="60" height="60" fill="#00b4d8" transform="translate(120, 360)"/><path fill="#03045e" d="M60 0H0v60L60 0z" transform="translate(120, 360) translate(30,30) rotate(0) translate(-30,-30)"/></svg><svg><rect width="60" height="60" fill="#0096c7" transform="translate(120, 420)"/><path fill="#00b4d8" d="M60 0H0v60L60 0z" transform="translate(120, 420) translate(30,30) rotate(180) translate(-30,-30)"/></svg><svg><rect width="60" height="60" fill="#023e8a" transform="translate(120, 480)"/><path fill="#48cae4" d="M60 0H0v60L60 0z" transform="translate(120, 480) translate(30,30) rotate(90) translate(-30,-30)"/></svg><svg><rect width="60" height="60" fill="#03045e" transform="translate(120, 540)"/><path fill="#90e0ef" d="M60 0H0v60L60 0z" transform="translate(120, 540) translate(30,30) rotate(0) translate(-30,-30)"/></svg><svg><rect width="60" height="60" fill="#90e0ef" transform="translate(180, 0)"/><path fill="#023e8a" d="M60 0H0v60L60 0z" transform="translate(180, 0) translate(30,30) rotate(270) translate(-30,-30)"/><rect width="30" height="30" x="15" y="15" fill="#48cae4" transform="translate(180, 0)"/></svg><svg><rect width="60" height="60" fill="#03045e" transform="translate(180, 60)"/><rect width="30" height="30" x="15" y="15" fill="#00b4d8" transform="translate(180, 60)"/></svg><svg><rect width="60" height="60" fill="#0077b6" transform="translate(180, 120)"/><rect width="30" height="30" x="15" y="15" fill="#90e0ef" transform="translate(180, 120)"/></svg><svg><rect width="60" height="60" fill="#0096c7" transform="translate(180, 180)"/><path fill="#0077b6" d="M60 0H0v60L60 0z" transform="translate(180, 180) translate(30,30) rotate(180) translate(-30,-30)"/><rect width="30" height="30" x="15" y="15" fill="#90e0ef" transform="translate(180, 180)"/></svg><svg><rect width="60" height="60" fill="#ade8f4" transform="translate(180, 240)"/><path fill="#0077b6" d="M60 0H0v60L60 0z" transform="translate(180, 240) translate(30,30) rotate(270) translate(-30,-30)"/></svg><svg><rect width="60" height="60" fill="#023e8a" transform="translate(180, 300)"/><rect width="30" height="30" x="15" y="15" fill="#00b4d8" transform="translate(180, 300)"/></svg><svg><rect width="60" height="60" fill="#00b4d8" transform="translate(180, 360)"/><path fill="#0077b6" d="M60 0H0v60L60 0z" transform="translate(180, 360) translate(30,30) rotate(180) translate(-30,-30)"/><rect width="30" height="30" x="15" y="15" fill="#0096c7" transform="translate(180, 360)"/></svg><svg><rect width="60" height="60" fill="#023e8a" transform="translate(180, 420)"/><path fill="#48cae4" d="M60 0H0v60L60 0z" transform="translate(180, 420) translate(30,30) rotate(270) translate(-30,-30)"/></svg><svg><rect width="60" height="60" fill="#48cae4" transform="translate(180, 480)"/><path fill="#ade8f4" d="M60 0H0v60L60 0z" transform="translate(180, 480) translate(30,30) rotate(270) translate(-30,-30)"/><rect width="30" height="30" x="15" y="15" fill="#00b4d8" transform="translate(180, 480)"/></svg><svg><rect width="60" height="60" fill="#0077b6" transform="translate(180, 540)"/><path fill="#00b4d8" d="M60 0H0v60L60 0z" transform="translate(180, 540) translate(30,30) rotate(90) translate(-30,-30)"/></svg><svg><rect width="60" height="60" fill="#ade8f4" transform="translate(240, 0)"/><path fill="#caf0f8" d="M60 0H0v60L60 0z" transform="translate(240, 0) translate(30,30) rotate(270) translate(-30,-30)"/></svg><svg><rect width="60" height="60" fill="#48cae4" transform="translate(240, 60)"/><path fill="#03045e" d="M60 0H0v60L60 0z" transform="translate(240, 60) translate(30,30) rotate(180) translate(-30,-30)"/></svg><svg><rect width="60" height="60" fill="#caf0f8" transform="translate(240, 120)"/><path fill="#90e0ef" d="M60 0H0v60L60 0z" transform="translate(240, 120) translate(30,30) rotate(270) translate(-30,-30)"/><rect width="30" height="30" x="15" y="15" fill="#48cae4" transform="translate(240, 120)"/></svg><svg><rect width="60" height="60" fill="#48cae4" transform="translate(240, 180)"/><path fill="#03045e" d="M60 0H0v60L60 0z" transform="translate(240, 180) translate(30,30) rotate(0) translate(-30,-30)"/><rect width="30" height="30" x="15" y="15" fill="#00b4d8" transform="translate(240, 180)"/></svg><svg><rect width="60" height="60" fill="#48cae4" transform="translate(240, 240)"/><rect width="30" height="30" x="15" y="15" fill="#00b4d8" transform="translate(240, 240)"/></svg><svg><rect width="60" height="60" fill="#023e8a" transform="translate(240, 300)"/><path fill="#90e0ef" d="M60 0H0v60L60 0z" transform="translate(240, 300) translate(30,30) rotate(90) translate(-30,-30)"/><rect width="30" height="30" x="15" y="15" fill="#0077b6" transform="translate(240, 300)"/></svg><svg><rect width="60" height="60" fill="#48cae4" transform="translate(240, 360)"/><path fill="#caf0f8" d="M60 0H0v60L60 0z" transform="translate(240, 360) translate(30,30) rotate(270) translate(-30,-30)"/></svg><svg><rect width="60" height="60" fill="#90e0ef" transform="translate(240, 420)"/><path fill="#ade8f4" d="M60 0H0v60L60 0z" transform="translate(240, 420) translate(30,30) rotate(90) translate(-30,-30)"/><rect width="30" height="30" x="15" y="15" fill="#00b4d8" transform="translate(240, 420)"/></svg><svg><rect width="60" height="60" fill="#03045e" transform="translate(240, 480)"/><rect width="30" height="30" x="15" y="15" fill="#0096c7" transform="translate(240, 480)"/></svg><svg><rect width="60" height="60" fill="#ade8f4" transform="translate(240, 540)"/><rect width="30" height="30" x="15" y="15" fill="#90e0ef" transform="translate(240, 540)"/></svg><svg><rect width="60" height="60" fill="#0096c7" transform="translate(300, 0)"/><rect width="30" height="30" x="15" y="15" fill="#00b4d8" transform="translate(300, 0)"/></svg><svg><rect width="60" height="60" fill="#023e8a" transform="translate(300, 60)"/><path fill="#03045e" d="M60 0H0v60L60 0z" transform="translate(300, 60) translate(30,30) rotate(270) translate(-30,-30)"/><rect width="30" height="30" x="15" y="15" fill="#00b4d8" transform="translate(300, 60)"/></svg><svg><rect width="60" height="60" fill="#0096c7" transform="translate(300, 120)"/><path fill="#00b4d8" d="M60 0H0v60L60 0z" transform="translate(300, 120) translate(30,30) rotate(0) translate(-30,-30)"/></svg><svg><rect width="60" height="60" fill="#03045e" transform="translate(300, 180)"/><path fill="#0096c7" d="M60 0H0v60L60 0z" transform="translate(300, 180) translate(30,30) rotate(90) translate(-30,-30)"/><rect width="30" height="30" x="15" y="15" fill="#90e0ef" transform="translate(300, 180)"/></svg><svg><rect width="60" height="60" fill="#ade8f4" transform="translate(300, 240)"/><path fill="#023e8a" d="M60 0H0v60L60 0z" transform="translate(300, 240) translate(30,30) rotate(270) translate(-30,-30)"/></svg><svg><rect width="60" height="60" fill="#03045e" transform="translate(300, 300)"/><path fill="#00b4d8" d="M60 0H0v60L60 0z" transform="translate(300, 300) translate(30,30) rotate(0) translate(-30,-30)"/><rect width="30" height="30" x="15" y="15" fill="#0096c7" transform="translate(300, 300)"/></svg><svg><rect width="60" height="60" fill="#caf0f8" transform="translate(300, 360)"/><path fill="#023e8a" d="M60 0H0v60L60 0z" transform="translate(300, 360) translate(30,30) rotate(180) translate(-30,-30)"/><rect width="30" height="30" x="15" y="15" fill="#ade8f4" transform="translate(300, 360)"/></svg><svg><rect width="60" height="60" fill="#0096c7" transform="translate(300, 420)"/><path fill="#ade8f4" d="M60 0H0v60L60 0z" transform="translate(300, 420) translate(30,30) rotate(0) translate(-30,-30)"/></svg><svg><rect width="60" height="60" fill="#00b4d8" transform="translate(300, 480)"/><rect width="30" height="30" x="15" y="15" fill="#48cae4" transform="translate(300, 480)"/></svg><svg><rect width="60" height="60" fill="#48cae4" transform="translate(300, 540)"/><path fill="#ade8f4" d="M60 0H0v60L60 0z" transform="translate(300, 540) translate(30,30) rotate(0) translate(-30,-30)"/></svg><svg><rect width="60" height="60" fill="#03045e" transform="translate(360, 0)"/><path fill="#023e8a" d="M60 0H0v60L60 0z" transform="translate(360, 0) translate(30,30) rotate(180) translate(-30,-30)"/><rect width="30" height="30" x="15" y="15" fill="#90e0ef" transform="translate(360, 0)"/></svg><svg><rect width="60" height="60" fill="#0096c7" transform="translate(360, 60)"/><path fill="#00b4d8" d="M60 0H0v60L60 0z" transform="translate(360, 60) translate(30,30) rotate(90) translate(-30,-30)"/></svg><svg><rect width="60" height="60" fill="#0077b6" transform="translate(360, 120)"/><path fill="#00b4d8" d="M60 0H0v60L60 0z" transform="translate(360, 120) translate(30,30) rotate(180) translate(-30,-30)"/></svg><svg><rect width="60" height="60" fill="#00b4d8" transform="translate(360, 180)"/><path fill="#48cae4" d="M60 0H0v60L60 0z" transform="translate(360, 180) translate(30,30) rotate(0) translate(-30,-30)"/><rect width="30" height="30" x="15" y="15" fill="#ade8f4" transform="translate(360, 180)"/></svg><svg><rect width="60" height="60" fill="#90e0ef" transform="translate(360, 240)"/><path fill="#0077b6" d="M60 0H0v60L60 0z" transform="translate(360, 240) translate(30,30) rotate(270) translate(-30,-30)"/></svg><svg><rect width="60" height="60" fill="#0077b6" transform="translate(360, 300)"/><path fill="#03045e" d="M60 0H0v60L60 0z" transform="translate(360, 300) translate(30,30) rotate(90) translate(-30,-30)"/><rect width="30" height="30" x="15" y="15" fill="#00b4d8" transform="translate(360, 300)"/></svg><svg><rect width="60" height="60" fill="#0096c7" transform="translate(360, 360)"/><path fill="#90e0ef" d="M60 0H0v60L60 0z" transform="translate(360, 360) translate(30,30) rotate(0) translate(-30,-30)"/></svg><svg><rect width="60" height="60" fill="#0096c7" transform="translate(360, 420)"/><path fill="#90e0ef" d="M60 0H0v60L60 0z" transform="translate(360, 420) translate(30,30) rotate(270) translate(-30,-30)"/></svg><svg><rect width="60" height="60" fill="#0077b6" transform="translate(360, 480)"/><rect width="30" height="30" x="15" y="15" fill="#023e8a" transform="translate(360, 480)"/></svg><svg><rect width="60" height="60" fill="#ade8f4" transform="translate(360, 540)"/><path fill="#90e0ef" d="M60 0H0v60L60 0z" transform="translate(360, 540) translate(30,30) rotate(90) translate(-30,-30)"/></svg><svg><rect width="60" height="60" fill="#00b4d8" transform="translate(420, 0)"/><path fill="#48cae4" d="M60 0H0v60L60 0z" transform="translate(420, 0) translate(30,30) rotate(0) translate(-30,-30)"/></svg><svg><rect width="60" height="60" fill="#ade8f4" transform="translate(420, 60)"/><path fill="#0096c7" d="M60 0H0v60L60 0z" transform="translate(420, 60) translate(30,30) rotate(270) translate(-30,-30)"/></svg><svg><rect width="60" height="60" fill="#0096c7" transform="translate(420, 120)"/><path fill="#48cae4" d="M60 0H0v60L60 0z" transform="translate(420, 120) translate(30,30) rotate(180) translate(-30,-30)"/><rect width="30" height="30" x="15" y="15" fill="#00b4d8" transform="translate(420, 120)"/></svg><svg><rect width="60" height="60" fill="#00b4d8" transform="translate(420, 180)"/><rect width="30" height="30" x="15" y="15" fill="#ade8f4" transform="translate(420, 180)"/></svg><svg><rect width="60" height="60" fill="#0096c7" transform="translate(420, 240)"/><path fill="#90e0ef" d="M60 0H0v60L60 0z" transform="translate(420, 240) translate(30,30) rotate(90) translate(-30,-30)"/></svg><svg><rect width="60" height="60" fill="#caf0f8" transform="translate(420, 300)"/><path fill="#90e0ef" d="M60 0H0v60L60 0z" transform="translate(420, 300) translate(30,30) rotate(90) translate(-30,-30)"/><rect width="30" height="30" x="15" y="15" fill="#023e8a" transform="translate(420, 300)"/></svg><svg><rect width="60" height="60" fill="#48cae4" transform="translate(420, 360)"/><path fill="#03045e" d="M60 0H0v60L60 0z" transform="translate(420, 360) translate(30,30) rotate(90) translate(-30,-30)"/></svg><svg><rect width="60" height="60" fill="#023e8a" transform="translate(420, 420)"/><path fill="#ade8f4" d="M60 0H0v60L60 0z" transform="translate(420, 420) translate(30,30) rotate(0) translate(-30,-30)"/></svg><svg><rect width="60" height="60" fill="#00b4d8" transform="translate(420, 480)"/><path fill="#caf0f8" d="M60 0H0v60L60 0z" transform="translate(420, 480) translate(30,30) rotate(0) translate(-30,-30)"/><rect width="30" height="30" x="15" y="15" fill="#023e8a" transform="translate(420, 480)"/></svg><svg><rect width="60" height="60" fill="#48cae4" transform="translate(420, 540)"/><path fill="#caf0f8" d="M60 0H0v60L60 0z" transform="translate(420, 540) translate(30,30) rotate(180) translate(-30,-30)"/><rect width="30" height="30" x="15" y="15" fill="#0096c7" transform="translate(420, 540)"/></svg><svg><rect width="60" height="60" fill="#caf0f8" transform="translate(480, 0)"/><path fill="#ade8f4" d="M60 0H0v60L60 0z" transform="translate(480, 0) translate(30,30) rotate(0) translate(-30,-30)"/><rect width="30" height="30" x="15" y="15" fill="#0096c7" transform="translate(480, 0)"/></svg><svg><rect width="60" height="60" fill="#ade8f4" transform="translate(480, 60)"/><path fill="#90e0ef" d="M60 0H0v60L60 0z" transform="translate(480, 60) translate(30,30) rotate(90) translate(-30,-30)"/></svg><svg><rect width="60" height="60" fill="#0096c7" transform="translate(480, 120)"/><path fill="#023e8a" d="M60 0H0v60L60 0z" transform="translate(480, 120) translate(30,30) rotate(90) translate(-30,-30)"/><rect width="30" height="30" x="15" y="15" fill="#48cae4" transform="translate(480, 120)"/></svg><svg><rect width="60" height="60" fill="#023e8a" transform="translate(480, 180)"/><rect width="30" height="30" x="15" y="15" fill="#90e0ef" transform="translate(480, 180)"/></svg><svg><rect width="60" height="60" fill="#00b4d8" transform="translate(480, 240)"/><path fill="#caf0f8" d="M60 0H0v60L60 0z" transform="translate(480, 240) translate(30,30) rotate(270) translate(-30,-30)"/></svg><svg><rect width="60" height="60" fill="#90e0ef" transform="translate(480, 300)"/><path fill="#023e8a" d="M60 0H0v60L60 0z" transform="translate(480, 300) translate(30,30) rotate(0) translate(-30,-30)"/></svg><svg><rect width="60" height="60" fill="#48cae4" transform="translate(480, 360)"/><rect width="30" height="30" x="15" y="15" fill="#0096c7" transform="translate(480, 360)"/></svg><svg><rect width="60" height="60" fill="#caf0f8" transform="translate(480, 420)"/><path fill="#90e0ef" d="M60 0H0v60L60 0z" transform="translate(480, 420) translate(30,30) rotate(0) translate(-30,-30)"/><rect width="30" height="30" x="15" y="15" fill="#023e8a" transform="translate(480, 420)"/></svg><svg><rect width="60" height="60" fill="#0096c7" transform="translate(480, 480)"/><rect width="30" height="30" x="15" y="15" fill="#ade8f4" transform="translate(480, 480)"/></svg><svg><rect width="60" height="60" fill="#0077b6" transform="translate(480, 540)"/><rect width="30" height="30" x="15" y="15" fill="#00b4d8" transform="translate(480, 540)"/></svg><svg><rect width="60" height="60" fill="#0096c7" transform="translate(540, 0)"/><path fill="#ade8f4" d="M60 0H0v60L60 0z" transform="translate(540, 0) translate(30,30) rotate(270) translate(-30,-30)"/></svg><svg><rect width="60" height="60" fill="#03045e" transform="translate(540, 60)"/><path fill="#ade8f4" d="M60 0H0v60L60 0z" transform="translate(540, 60) translate(30,30) rotate(180) translate(-30,-30)"/><rect width="30" height="30" x="15" y="15" fill="#0077b6" transform="translate(540, 60)"/></svg><svg><rect width="60" height="60" fill="#90e0ef" transform="translate(540, 120)"/><rect width="30" height="30" x="15" y="15" fill="#48cae4" transform="translate(540, 120)"/></svg><svg><rect width="60" height="60" fill="#ade8f4" transform="translate(540, 180)"/><rect width="30" height="30" x="15" y="15" fill="#0096c7" transform="translate(540, 180)"/></svg><svg><rect width="60" height="60" fill="#03045e" transform="translate(540, 240)"/><path fill="#0096c7" d="M60 0H0v60L60 0z" transform="translate(540, 240) translate(30,30) rotate(270) translate(-30,-30)"/></svg><svg><rect width="60" height="60" fill="#00b4d8" transform="translate(540, 300)"/><rect width="30" height="30" x="15" y="15" fill="#0077b6" transform="translate(540, 300)"/></svg><svg><rect width="60" height="60" fill="#03045e" transform="translate(540, 360)"/><path fill="#caf0f8" d="M60 0H0v60L60 0z" transform="translate(540, 360) translate(30,30) rotate(90) translate(-30,-30)"/><rect width="30" height="30" x="15" y="15" fill="#90e0ef" transform="translate(540, 360)"/></svg><svg><rect width="60" height="60" fill="#ade8f4" transform="translate(540, 420)"/><path fill="#0096c7" d="M60 0H0v60L60 0z" transform="translate(540, 420) translate(30,30) rotate(180) translate(-30,-30)"/></svg><svg><rect width="60" height="60" fill="#0077b6" transform="translate(540, 480)"/><rect width="30" height="30" x="15" y="15" fill="#ade8f4" transform="translate(540, 480)"/></svg><svg><rect width="60" height="60" fill="#48cae4" transform="translate(540, 540)"/><rect width="30" height="30" x="15" y="15" fill="#0077b6" transform="translate(540, 540)"/></svg></svg>