<svg xmlns="http://www.w3.org/2000/svg" xmlns:svgjs="http://svgjs.dev/svgjs" xmlns:xlink="http://www.w3.org/1999/xlink" id="canvas" height="100%" version="1.1" viewBox="0 0 600 600"><rect width="600" height="600" fill="transparent"/><mask id="mask" mask-type="alpha" maskUnits="userSpaceOnUse"><rect width="600" height="600" fill="#fff" transform="translate(0, 0)"/></mask><svg><path fill="none" stroke="#48cae4" stroke-width="2" d="M0 0h60v60h-60z" transform="translate(0, 0) translate(30,30) rotate(270) translate(-30,-30)"/><path fill="none" stroke="#48cae4" stroke-width="2" d="M30 30c0 16.569 13.432 30 30 30v-60c-16.568 0-30 13.432-30 30z" transform="translate(0, 0) translate(30,30) rotate(270) translate(-30,-30)"/><path fill="none" stroke="#48cae4" stroke-width="2" d="M30 30c0-16.57-13.431-30-30-30v60c16.569 0 30-13.432 30-30z" transform="translate(0, 0) translate(30,30) rotate(270) translate(-30,-30)"/></svg><svg><path fill="none" stroke="#48cae4" stroke-width="2" d="M0 0h60v60h-60z" transform="translate(0, 60) translate(30,30) rotate(270) translate(-30,-30)"/><path fill="none" stroke="#48cae4" stroke-width="2" d="M30 30c0 16.569 13.432 30 30 30v-60c-16.568 0-30 13.432-30 30z" transform="translate(0, 60) translate(30,30) rotate(270) translate(-30,-30)"/><path fill="none" stroke="#48cae4" stroke-width="2" d="M30 30c0-16.57-13.431-30-30-30v60c16.569 0 30-13.432 30-30z" transform="translate(0, 60) translate(30,30) rotate(270) translate(-30,-30)"/></svg><svg><path fill="none" stroke="#48cae4" stroke-width="2" d="M0 0h60v60h-60z" transform="translate(0, 120)"/><circle cx="30" cy="30" r="30" fill="none" stroke="#48cae4" stroke-width="2" transform="translate(0, 120)"/></svg><svg><path fill="none" stroke="#48cae4" stroke-width="2" d="M0 0h60v60h-60z" transform="translate(0, 180) translate(30,30) rotate(0) translate(-30,-30)"/><path fill="#90e0ef" stroke="#48cae4" stroke-width="2" d="M0 30c0 16.569 13.432 30 30 30v-60c-16.568 0-30 13.432-30 30z" transform="translate(0, 180) translate(30,30) rotate(0) translate(-30,-30)"/></svg><svg><path fill="none" stroke="#48cae4" stroke-width="2" d="M0 0h60v60h-60z" transform="translate(0, 240) translate(30,30) rotate(90) translate(-30,-30)"/><path fill="#0096c7" stroke="#48cae4" stroke-width="2" d="M0 30c0 16.569 13.432 30 30 30v-60c-16.568 0-30 13.432-30 30z" transform="translate(0, 240) translate(30,30) rotate(90) translate(-30,-30)"/></svg><svg><path fill="none" stroke="#48cae4" stroke-width="2" d="M0 0h60v60h-60z" transform="translate(0, 300) translate(30,30) rotate(270) translate(-30,-30)"/><path fill="#023e8a" stroke="#48cae4" stroke-width="2" d="M0 30C0 48.05 15.3348 60 30 60V0C15.3348 0 0 14.9129 0 30Z" transform="translate(0, 300) translate(30,30) rotate(270) translate(-30,-30)"/><path fill="none" stroke="#48cae4" stroke-width="2" d="M60 30C60 14.9129 48.4719 0 30 0L30 60C48.4719 60 60 48.05 60 30Z" transform="translate(0, 300) translate(30,30) rotate(270) translate(-30,-30)"/></svg><svg><path fill="none" stroke="#48cae4" stroke-width="2" d="M0 0h60v60h-60z" transform="translate(0, 360) translate(30,30) rotate(270) translate(-30,-30)"/><path fill="#0096c7" stroke="#48cae4" stroke-width="2" d="M0 30c0 16.569 13.432 30 30 30v-60c-16.568 0-30 13.432-30 30z" transform="translate(0, 360) translate(30,30) rotate(270) translate(-30,-30)"/></svg><svg><path fill="none" stroke="#48cae4" stroke-width="2" d="M0 0h60v60h-60z" transform="translate(0, 420) translate(30,30) rotate(180) translate(-30,-30)"/><path fill="none" stroke="#48cae4" stroke-width="2" d="M30 30c0 16.569 13.432 30 30 30v-60c-16.568 0-30 13.432-30 30z" transform="translate(0, 420) translate(30,30) rotate(180) translate(-30,-30)"/><path fill="none" stroke="#48cae4" stroke-width="2" d="M30 30c0-16.57-13.431-30-30-30v60c16.569 0 30-13.432 30-30z" transform="translate(0, 420) translate(30,30) rotate(180) translate(-30,-30)"/></svg><svg><path fill="none" stroke="#48cae4" stroke-width="2" d="M0 0h60v60h-60z" transform="translate(0, 480)"/><circle cx="30" cy="30" r="30" fill="none" stroke="#48cae4" stroke-width="2" transform="translate(0, 480)"/></svg><svg><path fill="none" stroke="#48cae4" stroke-width="2" d="M0 0h60v60h-60z" transform="translate(0, 540)"/></svg><svg><path fill="none" stroke="#48cae4" stroke-width="2" d="M0 0h60v60h-60z" transform="translate(60, 0) translate(30,30) rotate(270) translate(-30,-30)"/><path fill="#00b4d8" stroke="#48cae4" stroke-width="2" d="M0 30C0 48.05 15.3348 60 30 60V0C15.3348 0 0 14.9129 0 30Z" transform="translate(60, 0) translate(30,30) rotate(270) translate(-30,-30)"/><path fill="none" stroke="#48cae4" stroke-width="2" d="M60 30C60 14.9129 48.4719 0 30 0L30 60C48.4719 60 60 48.05 60 30Z" transform="translate(60, 0) translate(30,30) rotate(270) translate(-30,-30)"/></svg><svg><path fill="none" stroke="#48cae4" stroke-width="2" d="M0 0h60v60h-60z" transform="translate(60, 60)"/></svg><svg><rect width="60" height="60" x="0" y="0" fill="none" stroke="#48cae4" stroke-width="2" transform="translate(60, 120) translate(30,30) rotate(90) translate(-30,-30)"/><path fill="none" stroke="#48cae4" stroke-width="2" d="M0 0L60 60" transform="translate(60, 120) translate(30,30) rotate(90) translate(-30,-30)"/></svg><svg><path fill="none" stroke="#48cae4" stroke-width="2" d="M0 0h60v60h-60z" transform="translate(60, 180) translate(30,30) rotate(0) translate(-30,-30)"/><path fill="#90e0ef" stroke="#48cae4" stroke-width="2" d="M0 30c0 16.569 13.432 30 30 30v-60c-16.568 0-30 13.432-30 30z" transform="translate(60, 180) translate(30,30) rotate(0) translate(-30,-30)"/></svg><svg><path fill="none" stroke="#48cae4" stroke-width="2" d="M0 0h60v60h-60z" transform="translate(60, 240)"/></svg><svg><path fill="none" stroke="#48cae4" stroke-width="2" d="M0 0h60v60h-60z" transform="translate(60, 300)"/><circle cx="30" cy="30" r="30" fill="#48cae4" stroke="#48cae4" stroke-width="2" transform="translate(60, 300)"/></svg><svg><path fill="none" stroke="#48cae4" stroke-width="2" d="M0 0h60v60h-60z" transform="translate(60, 360)"/></svg><svg><path fill="none" stroke="#48cae4" stroke-width="2" d="M0 0h60v60h-60z" transform="translate(60, 420)"/><circle cx="30" cy="30" r="30" fill="#48cae4" stroke="#48cae4" stroke-width="2" transform="translate(60, 420)"/></svg><svg><path fill="none" stroke="#48cae4" stroke-width="2" d="M0 0h60v60h-60z" transform="translate(60, 480)"/><circle cx="30" cy="30" r="30" fill="none" stroke="#48cae4" stroke-width="2" transform="translate(60, 480)"/></svg><svg><path fill="none" stroke="#48cae4" stroke-width="2" d="M0 0h60v60h-60z" transform="translate(60, 540)"/><circle cx="30" cy="30" r="30" fill="#48cae4" stroke="#48cae4" stroke-width="2" transform="translate(60, 540)"/></svg><svg><path fill="none" stroke="#48cae4" stroke-width="2" d="M0 0h60v60h-60z" transform="translate(120, 0)"/><circle cx="30" cy="30" r="30" fill="#023e8a" stroke="#48cae4" stroke-width="2" transform="translate(120, 0)"/></svg><svg><path fill="none" stroke="#48cae4" stroke-width="2" d="M0 0h60v60h-60z" transform="translate(120, 60) translate(30,30) rotate(180) translate(-30,-30)"/><path fill="none" stroke="#48cae4" stroke-width="2" d="M30 30c0 16.569 13.432 30 30 30v-60c-16.568 0-30 13.432-30 30z" transform="translate(120, 60) translate(30,30) rotate(180) translate(-30,-30)"/><path fill="none" stroke="#48cae4" stroke-width="2" d="M30 30c0-16.57-13.431-30-30-30v60c16.569 0 30-13.432 30-30z" transform="translate(120, 60) translate(30,30) rotate(180) translate(-30,-30)"/></svg><svg><rect width="60" height="60" x="0" y="0" fill="none" stroke="#48cae4" stroke-width="2" transform="translate(120, 120) translate(30,30) rotate(90) translate(-30,-30)"/><path fill="none" stroke="#48cae4" stroke-width="2" d="M0 0L60 60" transform="translate(120, 120) translate(30,30) rotate(90) translate(-30,-30)"/></svg><svg><path fill="none" stroke="#48cae4" stroke-width="2" d="M0 0h60v60h-60z" transform="translate(120, 180) translate(30,30) rotate(90) translate(-30,-30)"/><path fill="none" stroke="#48cae4" stroke-width="2" d="M30 30c0 16.569 13.432 30 30 30v-60c-16.568 0-30 13.432-30 30z" transform="translate(120, 180) translate(30,30) rotate(90) translate(-30,-30)"/><path fill="#90e0ef" stroke="#48cae4" stroke-width="2" d="M30 30c0-16.57-13.431-30-30-30v60c16.569 0 30-13.432 30-30z" transform="translate(120, 180) translate(30,30) rotate(90) translate(-30,-30)"/></svg><svg><path fill="none" stroke="#48cae4" stroke-width="2" d="M0 0h60v60h-60z" transform="translate(120, 240) translate(30,30) rotate(180) translate(-30,-30)"/><path fill="#ade8f4" stroke="#48cae4" stroke-width="2" d="M0 30C0 48.05 15.3348 60 30 60V0C15.3348 0 0 14.9129 0 30Z" transform="translate(120, 240) translate(30,30) rotate(180) translate(-30,-30)"/><path fill="none" stroke="#48cae4" stroke-width="2" d="M60 30C60 14.9129 48.4719 0 30 0L30 60C48.4719 60 60 48.05 60 30Z" transform="translate(120, 240) translate(30,30) rotate(180) translate(-30,-30)"/></svg><svg><path fill="none" stroke="#48cae4" stroke-width="2" d="M0 0h60v60h-60z" transform="translate(120, 300) translate(30,30) rotate(270) translate(-30,-30)"/><path fill="none" stroke="#48cae4" stroke-width="2" d="M0 30C0 48.05 15.3348 60 30 60V0C15.3348 0 0 14.9129 0 30Z" transform="translate(120, 300) translate(30,30) rotate(270) translate(-30,-30)"/><path fill="none" stroke="#48cae4" stroke-width="2" d="M60 30C60 14.9129 48.4719 0 30 0L30 60C48.4719 60 60 48.05 60 30Z" transform="translate(120, 300) translate(30,30) rotate(270) translate(-30,-30)"/></svg><svg><path fill="none" stroke="#48cae4" stroke-width="2" d="M0 0h60v60h-60z" transform="translate(120, 360) translate(30,30) rotate(90) translate(-30,-30)"/><path fill="#48cae4" stroke="#48cae4" stroke-width="2" d="M30 0h30v60h-30z" transform="translate(120, 360) translate(30,30) rotate(90) translate(-30,-30)"/><path fill="none" stroke="#48cae4" stroke-width="2" d="M0 30c0 16.569 13.432 30 30 30v-60c-16.568 0-30 13.432-30 30z" transform="translate(120, 360) translate(30,30) rotate(90) translate(-30,-30)"/></svg><svg><path fill="none" stroke="#48cae4" stroke-width="2" d="M0 0h60v60h-60z" transform="translate(120, 420)"/><circle cx="30" cy="30" r="30" fill="#90e0ef" stroke="#48cae4" stroke-width="2" transform="translate(120, 420)"/></svg><svg><path fill="none" stroke="#48cae4" stroke-width="2" d="M0 0h60v60h-60z" transform="translate(120, 480) translate(30,30) rotate(180) translate(-30,-30)"/><path fill="none" stroke="#48cae4" stroke-width="2" d="M30 30c0 16.569 13.432 30 30 30v-60c-16.568 0-30 13.432-30 30z" transform="translate(120, 480) translate(30,30) rotate(180) translate(-30,-30)"/><path fill="#ade8f4" stroke="#48cae4" stroke-width="2" d="M30 30c0-16.57-13.431-30-30-30v60c16.569 0 30-13.432 30-30z" transform="translate(120, 480) translate(30,30) rotate(180) translate(-30,-30)"/></svg><svg><path fill="none" stroke="#48cae4" stroke-width="2" d="M0 0h60v60h-60z" transform="translate(120, 540) translate(30,30) rotate(0) translate(-30,-30)"/><path fill="none" stroke="#48cae4" stroke-width="2" d="M30 30c0 16.569 13.432 30 30 30v-60c-16.568 0-30 13.432-30 30z" transform="translate(120, 540) translate(30,30) rotate(0) translate(-30,-30)"/><path fill="none" stroke="#48cae4" stroke-width="2" d="M30 30c0-16.57-13.431-30-30-30v60c16.569 0 30-13.432 30-30z" transform="translate(120, 540) translate(30,30) rotate(0) translate(-30,-30)"/></svg><svg><path fill="none" stroke="#48cae4" stroke-width="2" d="M0 0h60v60h-60z" transform="translate(180, 0) translate(30,30) rotate(180) translate(-30,-30)"/><path fill="#caf0f8" stroke="#48cae4" stroke-width="2" d="M0 30c0 16.569 13.432 30 30 30v-60c-16.568 0-30 13.432-30 30z" transform="translate(180, 0) translate(30,30) rotate(180) translate(-30,-30)"/></svg><svg><path fill="none" stroke="#48cae4" stroke-width="2" d="M0 0h60v60h-60z" transform="translate(180, 60) translate(30,30) rotate(0) translate(-30,-30)"/><path fill="#023e8a" stroke="#48cae4" stroke-width="2" d="M0 30c0 16.569 13.432 30 30 30v-60c-16.568 0-30 13.432-30 30z" transform="translate(180, 60) translate(30,30) rotate(0) translate(-30,-30)"/></svg><svg><path fill="none" stroke="#48cae4" stroke-width="2" d="M0 0h60v60h-60z" transform="translate(180, 120) translate(30,30) rotate(270) translate(-30,-30)"/><path fill="none" stroke="#48cae4" stroke-width="2" d="M30 30c0 16.569 13.432 30 30 30v-60c-16.568 0-30 13.432-30 30z" transform="translate(180, 120) translate(30,30) rotate(270) translate(-30,-30)"/><path fill="none" stroke="#48cae4" stroke-width="2" d="M30 30c0-16.57-13.431-30-30-30v60c16.569 0 30-13.432 30-30z" transform="translate(180, 120) translate(30,30) rotate(270) translate(-30,-30)"/></svg><svg><path fill="none" stroke="#48cae4" stroke-width="2" d="M0 0h60v60h-60z" transform="translate(180, 180) translate(30,30) rotate(90) translate(-30,-30)"/><path fill="#ade8f4" stroke="#48cae4" stroke-width="2" d="M30 0h30v60h-30z" transform="translate(180, 180) translate(30,30) rotate(90) translate(-30,-30)"/><path fill="none" stroke="#48cae4" stroke-width="2" d="M0 30c0 16.569 13.432 30 30 30v-60c-16.568 0-30 13.432-30 30z" transform="translate(180, 180) translate(30,30) rotate(90) translate(-30,-30)"/></svg><svg><path fill="none" stroke="#48cae4" stroke-width="2" d="M0 0h60v60h-60z" transform="translate(180, 240) translate(30,30) rotate(90) translate(-30,-30)"/><path fill="none" stroke="#48cae4" stroke-width="2" d="M30 30c0 16.569 13.432 30 30 30v-60c-16.568 0-30 13.432-30 30z" transform="translate(180, 240) translate(30,30) rotate(90) translate(-30,-30)"/><path fill="none" stroke="#48cae4" stroke-width="2" d="M30 30c0-16.57-13.431-30-30-30v60c16.569 0 30-13.432 30-30z" transform="translate(180, 240) translate(30,30) rotate(90) translate(-30,-30)"/></svg><svg><path fill="none" stroke="#48cae4" stroke-width="2" d="M0 0h60v60h-60z" transform="translate(180, 300) translate(30,30) rotate(0) translate(-30,-30)"/><path fill="none" stroke="#48cae4" stroke-width="2" d="M0 30C0 48.05 15.3348 60 30 60V0C15.3348 0 0 14.9129 0 30Z" transform="translate(180, 300) translate(30,30) rotate(0) translate(-30,-30)"/><path fill="none" stroke="#48cae4" stroke-width="2" d="M60 30C60 14.9129 48.4719 0 30 0L30 60C48.4719 60 60 48.05 60 30Z" transform="translate(180, 300) translate(30,30) rotate(0) translate(-30,-30)"/></svg><svg><path fill="none" stroke="#48cae4" stroke-width="2" d="M0 0h60v60h-60z" transform="translate(180, 360)"/></svg><svg><rect width="60" height="60" x="0" y="0" fill="none" stroke="#48cae4" stroke-width="2" transform="translate(180, 420) translate(30,30) rotate(90) translate(-30,-30)"/><path fill="none" stroke="#48cae4" stroke-width="2" d="M0 0L60 60" transform="translate(180, 420) translate(30,30) rotate(90) translate(-30,-30)"/></svg><svg><path fill="none" stroke="#48cae4" stroke-width="2" d="M0 0h60v60h-60z" transform="translate(180, 480)"/></svg><svg><path fill="none" stroke="#48cae4" stroke-width="2" d="M0 0h60v60h-60z" transform="translate(180, 540) translate(30,30) rotate(180) translate(-30,-30)"/><path fill="#0077b6" stroke="#48cae4" stroke-width="2" d="M0 30C0 48.05 15.3348 60 30 60V0C15.3348 0 0 14.9129 0 30Z" transform="translate(180, 540) translate(30,30) rotate(180) translate(-30,-30)"/><path fill="none" stroke="#48cae4" stroke-width="2" d="M60 30C60 14.9129 48.4719 0 30 0L30 60C48.4719 60 60 48.05 60 30Z" transform="translate(180, 540) translate(30,30) rotate(180) translate(-30,-30)"/></svg><svg><rect width="60" height="60" x="0" y="0" fill="none" stroke="#48cae4" stroke-width="2" transform="translate(240, 0) translate(30,30) rotate(90) translate(-30,-30)"/><path fill="none" stroke="#48cae4" stroke-width="2" d="M0 0L60 60" transform="translate(240, 0) translate(30,30) rotate(90) translate(-30,-30)"/></svg><svg><path fill="none" stroke="#48cae4" stroke-width="2" d="M0 0h60v60h-60z" transform="translate(240, 60)"/><circle cx="30" cy="30" r="30" fill="#0096c7" stroke="#48cae4" stroke-width="2" transform="translate(240, 60)"/></svg><svg><path fill="none" stroke="#48cae4" stroke-width="2" d="M0 0h60v60h-60z" transform="translate(240, 120) translate(30,30) rotate(90) translate(-30,-30)"/><path fill="none" stroke="#48cae4" stroke-width="2" d="M30 30c0 16.569 13.432 30 30 30v-60c-16.568 0-30 13.432-30 30z" transform="translate(240, 120) translate(30,30) rotate(90) translate(-30,-30)"/><path fill="#90e0ef" stroke="#48cae4" stroke-width="2" d="M30 30c0-16.57-13.431-30-30-30v60c16.569 0 30-13.432 30-30z" transform="translate(240, 120) translate(30,30) rotate(90) translate(-30,-30)"/></svg><svg><path fill="none" stroke="#48cae4" stroke-width="2" d="M0 0h60v60h-60z" transform="translate(240, 180) translate(30,30) rotate(270) translate(-30,-30)"/><path fill="#48cae4" stroke="#48cae4" stroke-width="2" d="M0 30C0 48.05 15.3348 60 30 60V0C15.3348 0 0 14.9129 0 30Z" transform="translate(240, 180) translate(30,30) rotate(270) translate(-30,-30)"/><path fill="none" stroke="#48cae4" stroke-width="2" d="M60 30C60 14.9129 48.4719 0 30 0L30 60C48.4719 60 60 48.05 60 30Z" transform="translate(240, 180) translate(30,30) rotate(270) translate(-30,-30)"/></svg><svg><path fill="none" stroke="#48cae4" stroke-width="2" d="M0 0h60v60h-60z" transform="translate(240, 240) translate(30,30) rotate(90) translate(-30,-30)"/><path fill="#03045e" stroke="#48cae4" stroke-width="2" d="M30 0h30v60h-30z" transform="translate(240, 240) translate(30,30) rotate(90) translate(-30,-30)"/><path fill="none" stroke="#48cae4" stroke-width="2" d="M0 30c0 16.569 13.432 30 30 30v-60c-16.568 0-30 13.432-30 30z" transform="translate(240, 240) translate(30,30) rotate(90) translate(-30,-30)"/></svg><svg><path fill="none" stroke="#48cae4" stroke-width="2" d="M0 0h60v60h-60z" transform="translate(240, 300) translate(30,30) rotate(90) translate(-30,-30)"/><path fill="none" stroke="#48cae4" stroke-width="2" d="M30 30c0 16.569 13.432 30 30 30v-60c-16.568 0-30 13.432-30 30z" transform="translate(240, 300) translate(30,30) rotate(90) translate(-30,-30)"/><path fill="none" stroke="#48cae4" stroke-width="2" d="M30 30c0-16.57-13.431-30-30-30v60c16.569 0 30-13.432 30-30z" transform="translate(240, 300) translate(30,30) rotate(90) translate(-30,-30)"/></svg><svg><path fill="none" stroke="#48cae4" stroke-width="2" d="M0 0h60v60h-60z" transform="translate(240, 360) translate(30,30) rotate(180) translate(-30,-30)"/><path fill="#00b4d8" stroke="#48cae4" stroke-width="2" d="M0 30C0 48.05 15.3348 60 30 60V0C15.3348 0 0 14.9129 0 30Z" transform="translate(240, 360) translate(30,30) rotate(180) translate(-30,-30)"/><path fill="none" stroke="#48cae4" stroke-width="2" d="M60 30C60 14.9129 48.4719 0 30 0L30 60C48.4719 60 60 48.05 60 30Z" transform="translate(240, 360) translate(30,30) rotate(180) translate(-30,-30)"/></svg><svg><path fill="none" stroke="#48cae4" stroke-width="2" d="M0 0h60v60h-60z" transform="translate(240, 420) translate(30,30) rotate(270) translate(-30,-30)"/><path fill="#90e0ef" stroke="#48cae4" stroke-width="2" d="M30 0h30v60h-30z" transform="translate(240, 420) translate(30,30) rotate(270) translate(-30,-30)"/><path fill="none" stroke="#48cae4" stroke-width="2" d="M0 30c0 16.569 13.432 30 30 30v-60c-16.568 0-30 13.432-30 30z" transform="translate(240, 420) translate(30,30) rotate(270) translate(-30,-30)"/></svg><svg><path fill="none" stroke="#48cae4" stroke-width="2" d="M0 0h60v60h-60z" transform="translate(240, 480)"/><circle cx="30" cy="30" r="30" fill="#48cae4" stroke="#48cae4" stroke-width="2" transform="translate(240, 480)"/></svg><svg><path fill="none" stroke="#48cae4" stroke-width="2" d="M0 0h60v60h-60z" transform="translate(240, 540) translate(30,30) rotate(180) translate(-30,-30)"/><path fill="#00b4d8" stroke="#48cae4" stroke-width="2" d="M0 30C0 48.05 15.3348 60 30 60V0C15.3348 0 0 14.9129 0 30Z" transform="translate(240, 540) translate(30,30) rotate(180) translate(-30,-30)"/><path fill="none" stroke="#48cae4" stroke-width="2" d="M60 30C60 14.9129 48.4719 0 30 0L30 60C48.4719 60 60 48.05 60 30Z" transform="translate(240, 540) translate(30,30) rotate(180) translate(-30,-30)"/></svg><svg><path fill="none" stroke="#48cae4" stroke-width="2" d="M0 0h60v60h-60z" transform="translate(300, 0) translate(30,30) rotate(0) translate(-30,-30)"/><path fill="#00b4d8" stroke="#48cae4" stroke-width="2" d="M0 30C0 48.05 15.3348 60 30 60V0C15.3348 0 0 14.9129 0 30Z" transform="translate(300, 0) translate(30,30) rotate(0) translate(-30,-30)"/><path fill="none" stroke="#48cae4" stroke-width="2" d="M60 30C60 14.9129 48.4719 0 30 0L30 60C48.4719 60 60 48.05 60 30Z" transform="translate(300, 0) translate(30,30) rotate(0) translate(-30,-30)"/></svg><svg><path fill="none" stroke="#48cae4" stroke-width="2" d="M0 0h60v60h-60z" transform="translate(300, 60)"/><circle cx="30" cy="30" r="30" fill="none" stroke="#48cae4" stroke-width="2" transform="translate(300, 60)"/></svg><svg><path fill="none" stroke="#48cae4" stroke-width="2" d="M0 0h60v60h-60z" transform="translate(300, 120) translate(30,30) rotate(90) translate(-30,-30)"/><path fill="#023e8a" stroke="#48cae4" stroke-width="2" d="M0 30C0 48.05 15.3348 60 30 60V0C15.3348 0 0 14.9129 0 30Z" transform="translate(300, 120) translate(30,30) rotate(90) translate(-30,-30)"/><path fill="none" stroke="#48cae4" stroke-width="2" d="M60 30C60 14.9129 48.4719 0 30 0L30 60C48.4719 60 60 48.05 60 30Z" transform="translate(300, 120) translate(30,30) rotate(90) translate(-30,-30)"/></svg><svg><path fill="none" stroke="#48cae4" stroke-width="2" d="M0 0h60v60h-60z" transform="translate(300, 180) translate(30,30) rotate(90) translate(-30,-30)"/><path fill="none" stroke="#48cae4" stroke-width="2" d="M30 30c0 16.569 13.432 30 30 30v-60c-16.568 0-30 13.432-30 30z" transform="translate(300, 180) translate(30,30) rotate(90) translate(-30,-30)"/><path fill="none" stroke="#48cae4" stroke-width="2" d="M30 30c0-16.57-13.431-30-30-30v60c16.569 0 30-13.432 30-30z" transform="translate(300, 180) translate(30,30) rotate(90) translate(-30,-30)"/></svg><svg><path fill="none" stroke="#48cae4" stroke-width="2" d="M0 0h60v60h-60z" transform="translate(300, 240) translate(30,30) rotate(270) translate(-30,-30)"/><path fill="#0077b6" stroke="#48cae4" stroke-width="2" d="M0 30C0 48.05 15.3348 60 30 60V0C15.3348 0 0 14.9129 0 30Z" transform="translate(300, 240) translate(30,30) rotate(270) translate(-30,-30)"/><path fill="none" stroke="#48cae4" stroke-width="2" d="M60 30C60 14.9129 48.4719 0 30 0L30 60C48.4719 60 60 48.05 60 30Z" transform="translate(300, 240) translate(30,30) rotate(270) translate(-30,-30)"/></svg><svg><path fill="none" stroke="#48cae4" stroke-width="2" d="M0 0h60v60h-60z" transform="translate(300, 300) translate(30,30) rotate(90) translate(-30,-30)"/><path fill="#48cae4" stroke="#48cae4" stroke-width="2" d="M0 30C0 48.05 15.3348 60 30 60V0C15.3348 0 0 14.9129 0 30Z" transform="translate(300, 300) translate(30,30) rotate(90) translate(-30,-30)"/><path fill="none" stroke="#48cae4" stroke-width="2" d="M60 30C60 14.9129 48.4719 0 30 0L30 60C48.4719 60 60 48.05 60 30Z" transform="translate(300, 300) translate(30,30) rotate(90) translate(-30,-30)"/></svg><svg><path fill="none" stroke="#48cae4" stroke-width="2" d="M0 0h60v60h-60z" transform="translate(300, 360) translate(30,30) rotate(270) translate(-30,-30)"/><path fill="none" stroke="#48cae4" stroke-width="2" d="M30 30c0 16.569 13.432 30 30 30v-60c-16.568 0-30 13.432-30 30z" transform="translate(300, 360) translate(30,30) rotate(270) translate(-30,-30)"/><path fill="none" stroke="#48cae4" stroke-width="2" d="M30 30c0-16.57-13.431-30-30-30v60c16.569 0 30-13.432 30-30z" transform="translate(300, 360) translate(30,30) rotate(270) translate(-30,-30)"/></svg><svg><path fill="none" stroke="#48cae4" stroke-width="2" d="M0 0h60v60h-60z" transform="translate(300, 420) translate(30,30) rotate(270) translate(-30,-30)"/><path fill="none" stroke="#48cae4" stroke-width="2" d="M30 30c0 16.569 13.432 30 30 30v-60c-16.568 0-30 13.432-30 30z" transform="translate(300, 420) translate(30,30) rotate(270) translate(-30,-30)"/><path fill="none" stroke="#48cae4" stroke-width="2" d="M30 30c0-16.57-13.431-30-30-30v60c16.569 0 30-13.432 30-30z" transform="translate(300, 420) translate(30,30) rotate(270) translate(-30,-30)"/></svg><svg><path fill="none" stroke="#48cae4" stroke-width="2" d="M0 0h60v60h-60z" transform="translate(300, 480) translate(30,30) rotate(90) translate(-30,-30)"/><path fill="none" stroke="#48cae4" stroke-width="2" d="M30 30c0 16.569 13.432 30 30 30v-60c-16.568 0-30 13.432-30 30z" transform="translate(300, 480) translate(30,30) rotate(90) translate(-30,-30)"/><path fill="none" stroke="#48cae4" stroke-width="2" d="M30 30c0-16.57-13.431-30-30-30v60c16.569 0 30-13.432 30-30z" transform="translate(300, 480) translate(30,30) rotate(90) translate(-30,-30)"/></svg><svg><path fill="none" stroke="#48cae4" stroke-width="2" d="M0 0h60v60h-60z" transform="translate(300, 540) translate(30,30) rotate(0) translate(-30,-30)"/><path fill="none" stroke="#48cae4" stroke-width="2" d="M30 30c0 16.569 13.432 30 30 30v-60c-16.568 0-30 13.432-30 30z" transform="translate(300, 540) translate(30,30) rotate(0) translate(-30,-30)"/><path fill="#0096c7" stroke="#48cae4" stroke-width="2" d="M30 30c0-16.57-13.431-30-30-30v60c16.569 0 30-13.432 30-30z" transform="translate(300, 540) translate(30,30) rotate(0) translate(-30,-30)"/></svg><svg><path fill="none" stroke="#48cae4" stroke-width="2" d="M0 0h60v60h-60z" transform="translate(360, 0) translate(30,30) rotate(270) translate(-30,-30)"/><path fill="#03045e" stroke="#48cae4" stroke-width="2" d="M30 0h30v60h-30z" transform="translate(360, 0) translate(30,30) rotate(270) translate(-30,-30)"/><path fill="none" stroke="#48cae4" stroke-width="2" d="M0 30c0 16.569 13.432 30 30 30v-60c-16.568 0-30 13.432-30 30z" transform="translate(360, 0) translate(30,30) rotate(270) translate(-30,-30)"/></svg><svg><path fill="none" stroke="#48cae4" stroke-width="2" d="M0 0h60v60h-60z" transform="translate(360, 60) translate(30,30) rotate(0) translate(-30,-30)"/><path fill="#48cae4" stroke="#48cae4" stroke-width="2" d="M0 30c0 16.569 13.432 30 30 30v-60c-16.568 0-30 13.432-30 30z" transform="translate(360, 60) translate(30,30) rotate(0) translate(-30,-30)"/></svg><svg><path fill="none" stroke="#48cae4" stroke-width="2" d="M0 0h60v60h-60z" transform="translate(360, 120)"/><circle cx="30" cy="30" r="30" fill="none" stroke="#48cae4" stroke-width="2" transform="translate(360, 120)"/></svg><svg><path fill="none" stroke="#48cae4" stroke-width="2" d="M0 0h60v60h-60z" transform="translate(360, 180) translate(30,30) rotate(180) translate(-30,-30)"/><path fill="#caf0f8" stroke="#48cae4" stroke-width="2" d="M30 0h30v60h-30z" transform="translate(360, 180) translate(30,30) rotate(180) translate(-30,-30)"/><path fill="none" stroke="#48cae4" stroke-width="2" d="M0 30c0 16.569 13.432 30 30 30v-60c-16.568 0-30 13.432-30 30z" transform="translate(360, 180) translate(30,30) rotate(180) translate(-30,-30)"/></svg><svg><path fill="none" stroke="#48cae4" stroke-width="2" d="M0 0h60v60h-60z" transform="translate(360, 240) translate(30,30) rotate(90) translate(-30,-30)"/><path fill="#ade8f4" stroke="#48cae4" stroke-width="2" d="M0 30c0 16.569 13.432 30 30 30v-60c-16.568 0-30 13.432-30 30z" transform="translate(360, 240) translate(30,30) rotate(90) translate(-30,-30)"/></svg><svg><path fill="none" stroke="#48cae4" stroke-width="2" d="M0 0h60v60h-60z" transform="translate(360, 300) translate(30,30) rotate(0) translate(-30,-30)"/><path fill="none" stroke="#48cae4" stroke-width="2" d="M30 30c0 16.569 13.432 30 30 30v-60c-16.568 0-30 13.432-30 30z" transform="translate(360, 300) translate(30,30) rotate(0) translate(-30,-30)"/><path fill="none" stroke="#48cae4" stroke-width="2" d="M30 30c0-16.57-13.431-30-30-30v60c16.569 0 30-13.432 30-30z" transform="translate(360, 300) translate(30,30) rotate(0) translate(-30,-30)"/></svg><svg><path fill="none" stroke="#48cae4" stroke-width="2" d="M0 0h60v60h-60z" transform="translate(360, 360) translate(30,30) rotate(180) translate(-30,-30)"/><path fill="none" stroke="#48cae4" stroke-width="2" d="M30 30c0 16.569 13.432 30 30 30v-60c-16.568 0-30 13.432-30 30z" transform="translate(360, 360) translate(30,30) rotate(180) translate(-30,-30)"/><path fill="#0096c7" stroke="#48cae4" stroke-width="2" d="M30 30c0-16.57-13.431-30-30-30v60c16.569 0 30-13.432 30-30z" transform="translate(360, 360) translate(30,30) rotate(180) translate(-30,-30)"/></svg><svg><path fill="none" stroke="#48cae4" stroke-width="2" d="M0 0h60v60h-60z" transform="translate(360, 420)"/><circle cx="30" cy="30" r="30" fill="none" stroke="#48cae4" stroke-width="2" transform="translate(360, 420)"/></svg><svg><path fill="none" stroke="#48cae4" stroke-width="2" d="M0 0h60v60h-60z" transform="translate(360, 480) translate(30,30) rotate(90) translate(-30,-30)"/><path fill="#0096c7" stroke="#48cae4" stroke-width="2" d="M0 30c0 16.569 13.432 30 30 30v-60c-16.568 0-30 13.432-30 30z" transform="translate(360, 480) translate(30,30) rotate(90) translate(-30,-30)"/></svg><svg><path fill="none" stroke="#48cae4" stroke-width="2" d="M0 0h60v60h-60z" transform="translate(360, 540) translate(30,30) rotate(180) translate(-30,-30)"/><path fill="none" stroke="#48cae4" stroke-width="2" d="M30 30c0 16.569 13.432 30 30 30v-60c-16.568 0-30 13.432-30 30z" transform="translate(360, 540) translate(30,30) rotate(180) translate(-30,-30)"/><path fill="none" stroke="#48cae4" stroke-width="2" d="M30 30c0-16.57-13.431-30-30-30v60c16.569 0 30-13.432 30-30z" transform="translate(360, 540) translate(30,30) rotate(180) translate(-30,-30)"/></svg><svg><path fill="none" stroke="#48cae4" stroke-width="2" d="M0 0h60v60h-60z" transform="translate(420, 0) translate(30,30) rotate(0) translate(-30,-30)"/><path fill="#00b4d8" stroke="#48cae4" stroke-width="2" d="M0 30C0 48.05 15.3348 60 30 60V0C15.3348 0 0 14.9129 0 30Z" transform="translate(420, 0) translate(30,30) rotate(0) translate(-30,-30)"/><path fill="none" stroke="#48cae4" stroke-width="2" d="M60 30C60 14.9129 48.4719 0 30 0L30 60C48.4719 60 60 48.05 60 30Z" transform="translate(420, 0) translate(30,30) rotate(0) translate(-30,-30)"/></svg><svg><path fill="none" stroke="#48cae4" stroke-width="2" d="M0 0h60v60h-60z" transform="translate(420, 60) translate(30,30) rotate(180) translate(-30,-30)"/><path fill="none" stroke="#48cae4" stroke-width="2" d="M30 30c0 16.569 13.432 30 30 30v-60c-16.568 0-30 13.432-30 30z" transform="translate(420, 60) translate(30,30) rotate(180) translate(-30,-30)"/><path fill="none" stroke="#48cae4" stroke-width="2" d="M30 30c0-16.57-13.431-30-30-30v60c16.569 0 30-13.432 30-30z" transform="translate(420, 60) translate(30,30) rotate(180) translate(-30,-30)"/></svg><svg><path fill="none" stroke="#48cae4" stroke-width="2" d="M0 0h60v60h-60z" transform="translate(420, 120)"/><circle cx="30" cy="30" r="30" fill="none" stroke="#48cae4" stroke-width="2" transform="translate(420, 120)"/></svg><svg><path fill="none" stroke="#48cae4" stroke-width="2" d="M0 0h60v60h-60z" transform="translate(420, 180) translate(30,30) rotate(90) translate(-30,-30)"/><path fill="none" stroke="#48cae4" stroke-width="2" d="M30 30c0 16.569 13.432 30 30 30v-60c-16.568 0-30 13.432-30 30z" transform="translate(420, 180) translate(30,30) rotate(90) translate(-30,-30)"/><path fill="#90e0ef" stroke="#48cae4" stroke-width="2" d="M30 30c0-16.57-13.431-30-30-30v60c16.569 0 30-13.432 30-30z" transform="translate(420, 180) translate(30,30) rotate(90) translate(-30,-30)"/></svg><svg><path fill="none" stroke="#48cae4" stroke-width="2" d="M0 0h60v60h-60z" transform="translate(420, 240) translate(30,30) rotate(270) translate(-30,-30)"/><path fill="#ade8f4" stroke="#48cae4" stroke-width="2" d="M0 30c0 16.569 13.432 30 30 30v-60c-16.568 0-30 13.432-30 30z" transform="translate(420, 240) translate(30,30) rotate(270) translate(-30,-30)"/></svg><svg><path fill="none" stroke="#48cae4" stroke-width="2" d="M0 0h60v60h-60z" transform="translate(420, 300)"/></svg><svg><path fill="none" stroke="#48cae4" stroke-width="2" d="M0 0h60v60h-60z" transform="translate(420, 360) translate(30,30) rotate(90) translate(-30,-30)"/><path fill="none" stroke="#48cae4" stroke-width="2" d="M30 30c0 16.569 13.432 30 30 30v-60c-16.568 0-30 13.432-30 30z" transform="translate(420, 360) translate(30,30) rotate(90) translate(-30,-30)"/><path fill="#caf0f8" stroke="#48cae4" stroke-width="2" d="M30 30c0-16.57-13.431-30-30-30v60c16.569 0 30-13.432 30-30z" transform="translate(420, 360) translate(30,30) rotate(90) translate(-30,-30)"/></svg><svg><path fill="none" stroke="#48cae4" stroke-width="2" d="M0 0h60v60h-60z" transform="translate(420, 420)"/></svg><svg><path fill="none" stroke="#48cae4" stroke-width="2" d="M0 0h60v60h-60z" transform="translate(420, 480)"/><circle cx="30" cy="30" r="30" fill="none" stroke="#48cae4" stroke-width="2" transform="translate(420, 480)"/></svg><svg><path fill="none" stroke="#48cae4" stroke-width="2" d="M0 0h60v60h-60z" transform="translate(420, 540) translate(30,30) rotate(0) translate(-30,-30)"/><path fill="none" stroke="#48cae4" stroke-width="2" d="M30 30c0 16.569 13.432 30 30 30v-60c-16.568 0-30 13.432-30 30z" transform="translate(420, 540) translate(30,30) rotate(0) translate(-30,-30)"/><path fill="none" stroke="#48cae4" stroke-width="2" d="M30 30c0-16.57-13.431-30-30-30v60c16.569 0 30-13.432 30-30z" transform="translate(420, 540) translate(30,30) rotate(0) translate(-30,-30)"/></svg><svg><path fill="none" stroke="#48cae4" stroke-width="2" d="M0 0h60v60h-60z" transform="translate(480, 0) translate(30,30) rotate(90) translate(-30,-30)"/><path fill="none" stroke="#48cae4" stroke-width="2" d="M0 30C0 48.05 15.3348 60 30 60V0C15.3348 0 0 14.9129 0 30Z" transform="translate(480, 0) translate(30,30) rotate(90) translate(-30,-30)"/><path fill="none" stroke="#48cae4" stroke-width="2" d="M60 30C60 14.9129 48.4719 0 30 0L30 60C48.4719 60 60 48.05 60 30Z" transform="translate(480, 0) translate(30,30) rotate(90) translate(-30,-30)"/></svg><svg><path fill="none" stroke="#48cae4" stroke-width="2" d="M0 0h60v60h-60z" transform="translate(480, 60)"/><circle cx="30" cy="30" r="30" fill="#03045e" stroke="#48cae4" stroke-width="2" transform="translate(480, 60)"/></svg><svg><path fill="none" stroke="#48cae4" stroke-width="2" d="M0 0h60v60h-60z" transform="translate(480, 120) translate(30,30) rotate(0) translate(-30,-30)"/><path fill="#0077b6" stroke="#48cae4" stroke-width="2" d="M0 30C0 48.05 15.3348 60 30 60V0C15.3348 0 0 14.9129 0 30Z" transform="translate(480, 120) translate(30,30) rotate(0) translate(-30,-30)"/><path fill="none" stroke="#48cae4" stroke-width="2" d="M60 30C60 14.9129 48.4719 0 30 0L30 60C48.4719 60 60 48.05 60 30Z" transform="translate(480, 120) translate(30,30) rotate(0) translate(-30,-30)"/></svg><svg><path fill="none" stroke="#48cae4" stroke-width="2" d="M0 0h60v60h-60z" transform="translate(480, 180) translate(30,30) rotate(270) translate(-30,-30)"/><path fill="none" stroke="#48cae4" stroke-width="2" d="M30 30c0 16.569 13.432 30 30 30v-60c-16.568 0-30 13.432-30 30z" transform="translate(480, 180) translate(30,30) rotate(270) translate(-30,-30)"/><path fill="none" stroke="#48cae4" stroke-width="2" d="M30 30c0-16.57-13.431-30-30-30v60c16.569 0 30-13.432 30-30z" transform="translate(480, 180) translate(30,30) rotate(270) translate(-30,-30)"/></svg><svg><path fill="none" stroke="#48cae4" stroke-width="2" d="M0 0h60v60h-60z" transform="translate(480, 240) translate(30,30) rotate(90) translate(-30,-30)"/><path fill="#0096c7" stroke="#48cae4" stroke-width="2" d="M0 30C0 48.05 15.3348 60 30 60V0C15.3348 0 0 14.9129 0 30Z" transform="translate(480, 240) translate(30,30) rotate(90) translate(-30,-30)"/><path fill="none" stroke="#48cae4" stroke-width="2" d="M60 30C60 14.9129 48.4719 0 30 0L30 60C48.4719 60 60 48.05 60 30Z" transform="translate(480, 240) translate(30,30) rotate(90) translate(-30,-30)"/></svg><svg><path fill="none" stroke="#48cae4" stroke-width="2" d="M0 0h60v60h-60z" transform="translate(480, 300)"/></svg><svg><path fill="none" stroke="#48cae4" stroke-width="2" d="M0 0h60v60h-60z" transform="translate(480, 360)"/><circle cx="30" cy="30" r="30" fill="#caf0f8" stroke="#48cae4" stroke-width="2" transform="translate(480, 360)"/></svg><svg><path fill="none" stroke="#48cae4" stroke-width="2" d="M0 0h60v60h-60z" transform="translate(480, 420) translate(30,30) rotate(270) translate(-30,-30)"/><path fill="none" stroke="#48cae4" stroke-width="2" d="M30 30c0 16.569 13.432 30 30 30v-60c-16.568 0-30 13.432-30 30z" transform="translate(480, 420) translate(30,30) rotate(270) translate(-30,-30)"/><path fill="#03045e" stroke="#48cae4" stroke-width="2" d="M30 30c0-16.57-13.431-30-30-30v60c16.569 0 30-13.432 30-30z" transform="translate(480, 420) translate(30,30) rotate(270) translate(-30,-30)"/></svg><svg><path fill="none" stroke="#48cae4" stroke-width="2" d="M0 0h60v60h-60z" transform="translate(480, 480) translate(30,30) rotate(270) translate(-30,-30)"/><path fill="none" stroke="#48cae4" stroke-width="2" d="M30 30c0 16.569 13.432 30 30 30v-60c-16.568 0-30 13.432-30 30z" transform="translate(480, 480) translate(30,30) rotate(270) translate(-30,-30)"/><path fill="none" stroke="#48cae4" stroke-width="2" d="M30 30c0-16.57-13.431-30-30-30v60c16.569 0 30-13.432 30-30z" transform="translate(480, 480) translate(30,30) rotate(270) translate(-30,-30)"/></svg><svg><path fill="none" stroke="#48cae4" stroke-width="2" d="M0 0h60v60h-60z" transform="translate(480, 540) translate(30,30) rotate(180) translate(-30,-30)"/><path fill="none" stroke="#48cae4" stroke-width="2" d="M30 30c0 16.569 13.432 30 30 30v-60c-16.568 0-30 13.432-30 30z" transform="translate(480, 540) translate(30,30) rotate(180) translate(-30,-30)"/><path fill="none" stroke="#48cae4" stroke-width="2" d="M30 30c0-16.57-13.431-30-30-30v60c16.569 0 30-13.432 30-30z" transform="translate(480, 540) translate(30,30) rotate(180) translate(-30,-30)"/></svg><svg><path fill="none" stroke="#48cae4" stroke-width="2" d="M0 0h60v60h-60z" transform="translate(540, 0) translate(30,30) rotate(270) translate(-30,-30)"/><path fill="none" stroke="#48cae4" stroke-width="2" d="M30 30c0 16.569 13.432 30 30 30v-60c-16.568 0-30 13.432-30 30z" transform="translate(540, 0) translate(30,30) rotate(270) translate(-30,-30)"/><path fill="#0077b6" stroke="#48cae4" stroke-width="2" d="M30 30c0-16.57-13.431-30-30-30v60c16.569 0 30-13.432 30-30z" transform="translate(540, 0) translate(30,30) rotate(270) translate(-30,-30)"/></svg><svg><path fill="none" stroke="#48cae4" stroke-width="2" d="M0 0h60v60h-60z" transform="translate(540, 60) translate(30,30) rotate(0) translate(-30,-30)"/><path fill="#0096c7" stroke="#48cae4" stroke-width="2" d="M0 30C0 48.05 15.3348 60 30 60V0C15.3348 0 0 14.9129 0 30Z" transform="translate(540, 60) translate(30,30) rotate(0) translate(-30,-30)"/><path fill="none" stroke="#48cae4" stroke-width="2" d="M60 30C60 14.9129 48.4719 0 30 0L30 60C48.4719 60 60 48.05 60 30Z" transform="translate(540, 60) translate(30,30) rotate(0) translate(-30,-30)"/></svg><svg><path fill="none" stroke="#48cae4" stroke-width="2" d="M0 0h60v60h-60z" transform="translate(540, 120) translate(30,30) rotate(90) translate(-30,-30)"/><path fill="#0096c7" stroke="#48cae4" stroke-width="2" d="M0 30C0 48.05 15.3348 60 30 60V0C15.3348 0 0 14.9129 0 30Z" transform="translate(540, 120) translate(30,30) rotate(90) translate(-30,-30)"/><path fill="none" stroke="#48cae4" stroke-width="2" d="M60 30C60 14.9129 48.4719 0 30 0L30 60C48.4719 60 60 48.05 60 30Z" transform="translate(540, 120) translate(30,30) rotate(90) translate(-30,-30)"/></svg><svg><path fill="none" stroke="#48cae4" stroke-width="2" d="M0 0h60v60h-60z" transform="translate(540, 180) translate(30,30) rotate(0) translate(-30,-30)"/><path fill="none" stroke="#48cae4" stroke-width="2" d="M0 30C0 48.05 15.3348 60 30 60V0C15.3348 0 0 14.9129 0 30Z" transform="translate(540, 180) translate(30,30) rotate(0) translate(-30,-30)"/><path fill="none" stroke="#48cae4" stroke-width="2" d="M60 30C60 14.9129 48.4719 0 30 0L30 60C48.4719 60 60 48.05 60 30Z" transform="translate(540, 180) translate(30,30) rotate(0) translate(-30,-30)"/></svg><svg><path fill="none" stroke="#48cae4" stroke-width="2" d="M0 0h60v60h-60z" transform="translate(540, 240) translate(30,30) rotate(270) translate(-30,-30)"/><path fill="none" stroke="#48cae4" stroke-width="2" d="M30 30c0 16.569 13.432 30 30 30v-60c-16.568 0-30 13.432-30 30z" transform="translate(540, 240) translate(30,30) rotate(270) translate(-30,-30)"/><path fill="none" stroke="#48cae4" stroke-width="2" d="M30 30c0-16.57-13.431-30-30-30v60c16.569 0 30-13.432 30-30z" transform="translate(540, 240) translate(30,30) rotate(270) translate(-30,-30)"/></svg><svg><path fill="none" stroke="#48cae4" stroke-width="2" d="M0 0h60v60h-60z" transform="translate(540, 300) translate(30,30) rotate(270) translate(-30,-30)"/><path fill="none" stroke="#48cae4" stroke-width="2" d="M30 30c0 16.569 13.432 30 30 30v-60c-16.568 0-30 13.432-30 30z" transform="translate(540, 300) translate(30,30) rotate(270) translate(-30,-30)"/><path fill="#ade8f4" stroke="#48cae4" stroke-width="2" d="M30 30c0-16.57-13.431-30-30-30v60c16.569 0 30-13.432 30-30z" transform="translate(540, 300) translate(30,30) rotate(270) translate(-30,-30)"/></svg><svg><path fill="none" stroke="#48cae4" stroke-width="2" d="M0 0h60v60h-60z" transform="translate(540, 360) translate(30,30) rotate(270) translate(-30,-30)"/><path fill="#ade8f4" stroke="#48cae4" stroke-width="2" d="M0 30c0 16.569 13.432 30 30 30v-60c-16.568 0-30 13.432-30 30z" transform="translate(540, 360) translate(30,30) rotate(270) translate(-30,-30)"/></svg><svg><path fill="none" stroke="#48cae4" stroke-width="2" d="M0 0h60v60h-60z" transform="translate(540, 420) translate(30,30) rotate(180) translate(-30,-30)"/><path fill="#0077b6" stroke="#48cae4" stroke-width="2" d="M0 30C0 48.05 15.3348 60 30 60V0C15.3348 0 0 14.9129 0 30Z" transform="translate(540, 420) translate(30,30) rotate(180) translate(-30,-30)"/><path fill="none" stroke="#48cae4" stroke-width="2" d="M60 30C60 14.9129 48.4719 0 30 0L30 60C48.4719 60 60 48.05 60 30Z" transform="translate(540, 420) translate(30,30) rotate(180) translate(-30,-30)"/></svg><svg><path fill="none" stroke="#48cae4" stroke-width="2" d="M0 0h60v60h-60z" transform="translate(540, 480)"/><circle cx="30" cy="30" r="30" fill="none" stroke="#48cae4" stroke-width="2" transform="translate(540, 480)"/></svg><svg><path fill="none" stroke="#48cae4" stroke-width="2" d="M0 0h60v60h-60z" transform="translate(540, 540) translate(30,30) rotate(180) translate(-30,-30)"/><path fill="none" stroke="#48cae4" stroke-width="2" d="M30 30c0 16.569 13.432 30 30 30v-60c-16.568 0-30 13.432-30 30z" transform="translate(540, 540) translate(30,30) rotate(180) translate(-30,-30)"/><path fill="none" stroke="#48cae4" stroke-width="2" d="M30 30c0-16.57-13.431-30-30-30v60c16.569 0 30-13.432 30-30z" transform="translate(540, 540) translate(30,30) rotate(180) translate(-30,-30)"/></svg></svg>