<svg xmlns="http://www.w3.org/2000/svg" xmlns:svgjs="http://svgjs.dev/svgjs" xmlns:xlink="http://www.w3.org/1999/xlink" height="100%" version="1.1" viewBox="0 0 600 600"><rect width="600" height="600" fill="transparent"/><mask id="mask" mask-type="alpha" maskUnits="userSpaceOnUse"><rect width="600" height="600" fill="#fff" transform="translate(0, 0)"/></mask><svg><path fill="#0077b6" d="M0 0h60v60H0z" transform="translate(0, 0)"/></svg><svg><path fill="#ade8f4" d="M0 0h60v60H0z" transform="translate(0, 60)"/></svg><svg><path fill="#03045e" d="M0 0h60v60H0z" transform="translate(0, 120) translate(30,30) rotate(0) translate(-30,-30)"/><circle cx="30" cy="30" r="30" fill="#0077b6" transform="translate(0, 120) translate(30,30) rotate(0) translate(-30,-30)"/></svg><svg><circle cx="30" cy="30" r="30" fill="#48cae4" transform="translate(0, 180)"/></svg><svg><circle cx="30" cy="30" r="30" fill="#90e0ef" transform="translate(0, 240)"/></svg><svg><path fill="#00b4d8" d="M0 0h60v60H0z" transform="translate(0, 300) translate(30,30) rotate(270) translate(-30,-30)"/><circle cx="30" cy="30" r="30" fill="#90e0ef" transform="translate(0, 300) translate(30,30) rotate(270) translate(-30,-30)"/></svg><svg><path fill="#023e8a" d="M0 60C33.1371 60 60 33.1371 60 5.24537e-06L5.24537e-06 0L0 60Z" transform="translate(0, 21600 translate(30,30) rotate(90) translate(-30,-30)"/></svg><svg><path fill="#023e8a" d="M0 0h60v60H0z" transform="translate(0, 420) translate(30,30) rotate(180) translate(-30,-30)"/><circle cx="30" cy="30" r="30" fill="#0077b6" transform="translate(0, 420) translate(30,30) rotate(180) translate(-30,-30)"/></svg><svg><path fill="#00b4d8" d="M0 60C33.1371 60 60 33.1371 60 5.24537e-06L5.24537e-06 0L0 60Z" transform="translate(0, 28800 translate(30,30) rotate(180) translate(-30,-30)"/></svg><svg><circle cx="30" cy="30" r="30" fill="#0096c7" transform="translate(0, 540)"/></svg><svg><path fill="#00b4d8" d="M60 0v60H0V0z" transform="translate(60,0) translate(30,30) rotate(180) translate(-30,-30)"/><path fill="#90e0ef" d="M60 0v60H0C0 26.863 26.863 0 60 0z" transform="translate(60,0) translate(30,30) rotate(180) translate(-30,-30)"/></svg><svg><path fill="#48cae4" d="M0 60C33.1371 60 60 33.1371 60 5.24537e-06L5.24537e-06 0L0 60Z" transform="translate(3600, 3600 translate(30,30) rotate(90) translate(-30,-30)"/></svg><svg><path fill="#023e8a" d="M60 0v60H0V0z" transform="translate(60,120) translate(30,30) rotate(270) translate(-30,-30)"/><path fill="#023e8a" d="M60 0v60H0C0 26.863 26.863 0 60 0z" transform="translate(60,120) translate(30,30) rotate(270) translate(-30,-30)"/></svg><svg><path fill="#0077b6" d="M0 0h60v60H0z" transform="translate(60, 180)"/></svg><svg><circle cx="30" cy="30" r="30" fill="#0096c7" transform="translate(60, 240)"/></svg><svg><path fill="#0077b6" d="M0 0h60v60H0z" transform="translate(60, 300)"/></svg><svg><path fill="#90e0ef" d="M0 60C33.1371 60 60 33.1371 60 5.24537e-06L5.24537e-06 0L0 60Z" transform="translate(3600, 21600 translate(30,30) rotate(180) translate(-30,-30)"/></svg><svg><path fill="#0077b6" d="M0 0h60v60H0z" transform="translate(60, 420) translate(30,30) rotate(270) translate(-30,-30)"/><circle cx="30" cy="30" r="30" fill="#48cae4" transform="translate(60, 420) translate(30,30) rotate(270) translate(-30,-30)"/></svg><svg><path fill="#0077b6" d="M60 0v60H0V0z" transform="translate(60,480) translate(30,30) rotate(90) translate(-30,-30)"/><path fill="#03045e" d="M60 0v60H0C0 26.863 26.863 0 60 0z" transform="translate(60,480) translate(30,30) rotate(90) translate(-30,-30)"/></svg><svg><circle cx="30" cy="30" r="30" fill="#90e0ef" transform="translate(60, 540)"/></svg><svg><circle cx="30" cy="30" r="30" fill="#023e8a" transform="translate(120, 0)"/></svg><svg><path fill="#caf0f8" d="M0 0h60v60H0z" transform="translate(120, 60)"/></svg><svg><path fill="#90e0ef" d="M0 0h60v60H0z" transform="translate(120, 120)"/></svg><svg><path fill="#48cae4" d="M60 0v60H0V0z" transform="translate(120,180) translate(30,30) rotate(270) translate(-30,-30)"/><path fill="#ade8f4" d="M60 0v60H0C0 26.863 26.863 0 60 0z" transform="translate(120,180) translate(30,30) rotate(270) translate(-30,-30)"/></svg><svg><path fill="#ade8f4" d="M0 0h60v60H0z" transform="translate(120, 240)"/></svg><svg><circle cx="30" cy="30" r="30" fill="#0096c7" transform="translate(120, 300)"/></svg><svg><circle cx="30" cy="30" r="30" fill="#023e8a" transform="translate(120, 360)"/></svg><svg><path fill="#48cae4" d="M0 60C33.1371 60 60 33.1371 60 5.24537e-06L5.24537e-06 0L0 60Z" transform="translate(7200, 25200 translate(30,30) rotate(0) translate(-30,-30)"/></svg><svg><path fill="#ade8f4" d="M0 0h60v60H0z" transform="translate(120, 480)"/></svg><svg><path fill="#00b4d8" d="M60 0v60H0V0z" transform="translate(120,540) translate(30,30) rotate(0) translate(-30,-30)"/><path fill="#023e8a" d="M60 0v60H0C0 26.863 26.863 0 60 0z" transform="translate(120,540) translate(30,30) rotate(0) translate(-30,-30)"/></svg><svg><circle cx="30" cy="30" r="30" fill="#03045e" transform="translate(180, 0)"/></svg><svg><path fill="#0077b6" d="M0 0h60v60H0z" transform="translate(180, 60)"/></svg><svg><path fill="#90e0ef" d="M60 0v60H0V0z" transform="translate(180,120) translate(30,30) rotate(90) translate(-30,-30)"/><path fill="#00b4d8" d="M60 0v60H0C0 26.863 26.863 0 60 0z" transform="translate(180,120) translate(30,30) rotate(90) translate(-30,-30)"/></svg><svg><circle cx="30" cy="30" r="30" fill="#0096c7" transform="translate(180, 180)"/></svg><svg><path fill="#ade8f4" d="M60 0v60H0V0z" transform="translate(180,240) translate(30,30) rotate(90) translate(-30,-30)"/><path fill="#caf0f8" d="M60 0v60H0C0 26.863 26.863 0 60 0z" transform="translate(180,240) translate(30,30) rotate(90) translate(-30,-30)"/></svg><svg><path fill="#48cae4" d="M0 60C33.1371 60 60 33.1371 60 5.24537e-06L5.24537e-06 0L0 60Z" transform="translate(10800, 18000 translate(30,30) rotate(270) translate(-30,-30)"/></svg><svg><path fill="#023e8a" d="M0 0h60v60H0z" transform="translate(180, 360) translate(30,30) rotate(180) translate(-30,-30)"/><circle cx="30" cy="30" r="30" fill="#ade8f4" transform="translate(180, 360) translate(30,30) rotate(180) translate(-30,-30)"/></svg><svg><path fill="#0096c7" d="M0 60C33.1371 60 60 33.1371 60 5.24537e-06L5.24537e-06 0L0 60Z" transform="translate(10800, 25200 translate(30,30) rotate(180) translate(-30,-30)"/></svg><svg><path fill="#03045e" d="M0 0h60v60H0z" transform="translate(180, 480)"/></svg><svg><circle cx="30" cy="30" r="30" fill="#0077b6" transform="translate(180, 540)"/></svg><svg><path fill="#caf0f8" d="M0 60C33.1371 60 60 33.1371 60 5.24537e-06L5.24537e-06 0L0 60Z" transform="translate(14400, 0 translate(30,30) rotate(270) translate(-30,-30)"/></svg><svg><path fill="#ade8f4" d="M0 0h60v60H0z" transform="translate(240, 60) translate(30,30) rotate(0) translate(-30,-30)"/><circle cx="30" cy="30" r="30" fill="#caf0f8" transform="translate(240, 60) translate(30,30) rotate(0) translate(-30,-30)"/></svg><svg><path fill="#48cae4" d="M0 0h60v60H0z" transform="translate(240, 120)"/></svg><svg><path fill="#0077b6" d="M0 0h60v60H0z" transform="translate(240, 180) translate(30,30) rotate(90) translate(-30,-30)"/><circle cx="30" cy="30" r="30" fill="#03045e" transform="translate(240, 180) translate(30,30) rotate(90) translate(-30,-30)"/></svg><svg><path fill="#0096c7" d="M0 0h60v60H0z" transform="translate(240, 240) translate(30,30) rotate(90) translate(-30,-30)"/><circle cx="30" cy="30" r="30" fill="#023e8a" transform="translate(240, 240) translate(30,30) rotate(90) translate(-30,-30)"/></svg><svg><circle cx="30" cy="30" r="30" fill="#ade8f4" transform="translate(240, 300)"/></svg><svg><path fill="#00b4d8" d="M60 0v60H0V0z" transform="translate(240,360) translate(30,30) rotate(0) translate(-30,-30)"/><path fill="#0096c7" d="M60 0v60H0C0 26.863 26.863 0 60 0z" transform="translate(240,360) translate(30,30) rotate(0) translate(-30,-30)"/></svg><svg><path fill="#90e0ef" d="M0 0h60v60H0z" transform="translate(240, 420) translate(30,30) rotate(90) translate(-30,-30)"/><circle cx="30" cy="30" r="30" fill="#03045e" transform="translate(240, 420) translate(30,30) rotate(90) translate(-30,-30)"/></svg><svg><circle cx="30" cy="30" r="30" fill="#ade8f4" transform="translate(240, 480)"/></svg><svg><path fill="#023e8a" d="M0 60C33.1371 60 60 33.1371 60 5.24537e-06L5.24537e-06 0L0 60Z" transform="translate(14400, 32400 translate(30,30) rotate(270) translate(-30,-30)"/></svg><svg><path fill="#ade8f4" d="M0 60C33.1371 60 60 33.1371 60 5.24537e-06L5.24537e-06 0L0 60Z" transform="translate(18000, 0 translate(30,30) rotate(270) translate(-30,-30)"/></svg><svg><path fill="#0077b6" d="M0 0h60v60H0z" transform="translate(300, 60)"/></svg><svg><circle cx="30" cy="30" r="30" fill="#ade8f4" transform="translate(300, 120)"/></svg><svg><path fill="#0096c7" d="M0 0h60v60H0z" transform="translate(300, 180) translate(30,30) rotate(0) translate(-30,-30)"/><circle cx="30" cy="30" r="30" fill="#00b4d8" transform="translate(300, 180) translate(30,30) rotate(0) translate(-30,-30)"/></svg><svg><circle cx="30" cy="30" r="30" fill="#023e8a" transform="translate(300, 240)"/></svg><svg><path fill="#00b4d8" d="M0 60C33.1371 60 60 33.1371 60 5.24537e-06L5.24537e-06 0L0 60Z" transform="translate(18000, 18000 translate(30,30) rotate(180) translate(-30,-30)"/></svg><svg><path fill="#48cae4" d="M0 60C33.1371 60 60 33.1371 60 5.24537e-06L5.24537e-06 0L0 60Z" transform="translate(18000, 21600 translate(30,30) rotate(0) translate(-30,-30)"/></svg><svg><path fill="#ade8f4" d="M60 0v60H0V0z" transform="translate(300,420) translate(30,30) rotate(270) translate(-30,-30)"/><path fill="#023e8a" d="M60 0v60H0C0 26.863 26.863 0 60 0z" transform="translate(300,420) translate(30,30) rotate(270) translate(-30,-30)"/></svg><svg><path fill="#03045e" d="M60 0v60H0V0z" transform="translate(300,480) translate(30,30) rotate(0) translate(-30,-30)"/><path fill="#023e8a" d="M60 0v60H0C0 26.863 26.863 0 60 0z" transform="translate(300,480) translate(30,30) rotate(0) translate(-30,-30)"/></svg><svg><path fill="#ade8f4" d="M0 0h60v60H0z" transform="translate(300, 540) translate(30,30) rotate(270) translate(-30,-30)"/><circle cx="30" cy="30" r="30" fill="#48cae4" transform="translate(300, 540) translate(30,30) rotate(270) translate(-30,-30)"/></svg><svg><circle cx="30" cy="30" r="30" fill="#0077b6" transform="translate(360, 0)"/></svg><svg><path fill="#0077b6" d="M60 0v60H0V0z" transform="translate(360,60) translate(30,30) rotate(0) translate(-30,-30)"/><path fill="#023e8a" d="M60 0v60H0C0 26.863 26.863 0 60 0z" transform="translate(360,60) translate(30,30) rotate(0) translate(-30,-30)"/></svg><svg><circle cx="30" cy="30" r="30" fill="#48cae4" transform="translate(360, 120)"/></svg><svg><path fill="#023e8a" d="M0 60C33.1371 60 60 33.1371 60 5.24537e-06L5.24537e-06 0L0 60Z" transform="translate(21600, 10800 translate(30,30) rotate(180) translate(-30,-30)"/></svg><svg><path fill="#0096c7" d="M0 60C33.1371 60 60 33.1371 60 5.24537e-06L5.24537e-06 0L0 60Z" transform="translate(21600, 14400 translate(30,30) rotate(90) translate(-30,-30)"/></svg><svg><path fill="#0096c7" d="M0 0h60v60H0z" transform="translate(360, 300)"/></svg><svg><path fill="#023e8a" d="M0 0h60v60H0z" transform="translate(360, 360) translate(30,30) rotate(90) translate(-30,-30)"/><circle cx="30" cy="30" r="30" fill="#03045e" transform="translate(360, 360) translate(30,30) rotate(90) translate(-30,-30)"/></svg><svg><path fill="#00b4d8" d="M0 60C33.1371 60 60 33.1371 60 5.24537e-06L5.24537e-06 0L0 60Z" transform="translate(21600, 25200 translate(30,30) rotate(0) translate(-30,-30)"/></svg><svg><path fill="#ade8f4" d="M0 0h60v60H0z" transform="translate(360, 480) translate(30,30) rotate(90) translate(-30,-30)"/><circle cx="30" cy="30" r="30" fill="#0096c7" transform="translate(360, 480) translate(30,30) rotate(90) translate(-30,-30)"/></svg><svg><circle cx="30" cy="30" r="30" fill="#0096c7" transform="translate(360, 540)"/></svg><svg><path fill="#0077b6" d="M0 0h60v60H0z" transform="translate(420, 0) translate(30,30) rotate(180) translate(-30,-30)"/><circle cx="30" cy="30" r="30" fill="#0096c7" transform="translate(420, 0) translate(30,30) rotate(180) translate(-30,-30)"/></svg><svg><path fill="#ade8f4" d="M0 0h60v60H0z" transform="translate(420, 60)"/></svg><svg><circle cx="30" cy="30" r="30" fill="#00b4d8" transform="translate(420, 120)"/></svg><svg><path fill="#ade8f4" d="M0 60C33.1371 60 60 33.1371 60 5.24537e-06L5.24537e-06 0L0 60Z" transform="translate(25200, 10800 translate(30,30) rotate(180) translate(-30,-30)"/></svg><svg><circle cx="30" cy="30" r="30" fill="#caf0f8" transform="translate(420, 240)"/></svg><svg><path fill="#0077b6" d="M60 0v60H0V0z" transform="translate(420,300) translate(30,30) rotate(180) translate(-30,-30)"/><path fill="#023e8a" d="M60 0v60H0C0 26.863 26.863 0 60 0z" transform="translate(420,300) translate(30,30) rotate(180) translate(-30,-30)"/></svg><svg><path fill="#48cae4" d="M0 0h60v60H0z" transform="translate(420, 360) translate(30,30) rotate(180) translate(-30,-30)"/><circle cx="30" cy="30" r="30" fill="#0077b6" transform="translate(420, 360) translate(30,30) rotate(180) translate(-30,-30)"/></svg><svg><path fill="#0077b6" d="M0 0h60v60H0z" transform="translate(420, 420)"/></svg><svg><path fill="#0096c7" d="M0 0h60v60H0z" transform="translate(420, 480)"/></svg><svg><circle cx="30" cy="30" r="30" fill="#0096c7" transform="translate(420, 540)"/></svg><svg><path fill="#00b4d8" d="M0 0h60v60H0z" transform="translate(480, 0) translate(30,30) rotate(180) translate(-30,-30)"/><circle cx="30" cy="30" r="30" fill="#ade8f4" transform="translate(480, 0) translate(30,30) rotate(180) translate(-30,-30)"/></svg><svg><path fill="#023e8a" d="M0 60C33.1371 60 60 33.1371 60 5.24537e-06L5.24537e-06 0L0 60Z" transform="translate(28800, 3600 translate(30,30) rotate(180) translate(-30,-30)"/></svg><svg><path fill="#00b4d8" d="M0 0h60v60H0z" transform="translate(480, 120) translate(30,30) rotate(270) translate(-30,-30)"/><circle cx="30" cy="30" r="30" fill="#023e8a" transform="translate(480, 120) translate(30,30) rotate(270) translate(-30,-30)"/></svg><svg><path fill="#48cae4" d="M0 0h60v60H0z" transform="translate(480, 180)"/></svg><svg><circle cx="30" cy="30" r="30" fill="#00b4d8" transform="translate(480, 240)"/></svg><svg><path fill="#03045e" d="M0 0h60v60H0z" transform="translate(480, 300) translate(30,30) rotate(90) translate(-30,-30)"/><circle cx="30" cy="30" r="30" fill="#00b4d8" transform="translate(480, 300) translate(30,30) rotate(90) translate(-30,-30)"/></svg><svg><path fill="#0096c7" d="M0 60C33.1371 60 60 33.1371 60 5.24537e-06L5.24537e-06 0L0 60Z" transform="translate(28800, 21600 translate(30,30) rotate(180) translate(-30,-30)"/></svg><svg><path fill="#00b4d8" d="M60 0v60H0V0z" transform="translate(480,420) translate(30,30) rotate(270) translate(-30,-30)"/><path fill="#0096c7" d="M60 0v60H0C0 26.863 26.863 0 60 0z" transform="translate(480,420) translate(30,30) rotate(270) translate(-30,-30)"/></svg><svg><path fill="#00b4d8" d="M0 60C33.1371 60 60 33.1371 60 5.24537e-06L5.24537e-06 0L0 60Z" transform="translate(28800, 28800 translate(30,30) rotate(90) translate(-30,-30)"/></svg><svg><circle cx="30" cy="30" r="30" fill="#0077b6" transform="translate(480, 540)"/></svg><svg><path fill="#caf0f8" d="M0 0h60v60H0z" transform="translate(540, 0)"/></svg><svg><path fill="#90e0ef" d="M0 0h60v60H0z" transform="translate(540, 60) translate(30,30) rotate(0) translate(-30,-30)"/><circle cx="30" cy="30" r="30" fill="#48cae4" transform="translate(540, 60) translate(30,30) rotate(0) translate(-30,-30)"/></svg><svg><circle cx="30" cy="30" r="30" fill="#0077b6" transform="translate(540, 120)"/></svg><svg><path fill="#00b4d8" d="M60 0v60H0V0z" transform="translate(540,180) translate(30,30) rotate(180) translate(-30,-30)"/><path fill="#0096c7" d="M60 0v60H0C0 26.863 26.863 0 60 0z" transform="translate(540,180) translate(30,30) rotate(180) translate(-30,-30)"/></svg><svg><path fill="#90e0ef" d="M0 0h60v60H0z" transform="translate(540, 240) translate(30,30) rotate(0) translate(-30,-30)"/><circle cx="30" cy="30" r="30" fill="#48cae4" transform="translate(540, 240) translate(30,30) rotate(0) translate(-30,-30)"/></svg><svg><path fill="#caf0f8" d="M0 0h60v60H0z" transform="translate(540, 300) translate(30,30) rotate(270) translate(-30,-30)"/><circle cx="30" cy="30" r="30" fill="#ade8f4" transform="translate(540, 300) translate(30,30) rotate(270) translate(-30,-30)"/></svg><svg><path fill="#00b4d8" d="M60 0v60H0V0z" transform="translate(540,360) translate(30,30) rotate(0) translate(-30,-30)"/><path fill="#00b4d8" d="M60 0v60H0C0 26.863 26.863 0 60 0z" transform="translate(540,360) translate(30,30) rotate(0) translate(-30,-30)"/></svg><svg><path fill="#00b4d8" d="M0 0h60v60H0z" transform="translate(540, 420)"/></svg><svg><path fill="#00b4d8" d="M0 0h60v60H0z" transform="translate(540, 480) translate(30,30) rotate(180) translate(-30,-30)"/><circle cx="30" cy="30" r="30" fill="#00b4d8" transform="translate(540, 480) translate(30,30) rotate(180) translate(-30,-30)"/></svg><svg><path fill="#0077b6" d="M0 0h60v60H0z" transform="translate(540, 540) translate(30,30) rotate(90) translate(-30,-30)"/><circle cx="30" cy="30" r="30" fill="#0096c7" transform="translate(540, 540) translate(30,30) rotate(90) translate(-30,-30)"/></svg></svg>