<svg xmlns="http://www.w3.org/2000/svg" xmlns:svgjs="http://svgjs.dev/svgjs" xmlns:xlink="http://www.w3.org/1999/xlink" id="canvas" height="100%" version="1.1" viewBox="0 0 600 600"><rect width="600" height="600" fill="transparent"/><mask id="mask" mask-type="alpha" maskUnits="userSpaceOnUse"><rect width="600" height="600" fill="#fff" transform="translate(0, 0)"/></mask><svg><path fill="#03045e" d="M0 60C33.1371 60 60 33.1371 60 5.24537e-06L5.24537e-06 0L0 60Z" transform="translate(0, 0 translate(30,30) rotate(180) translate(-30,-30)"/></svg><svg><path fill="#90e0ef" d="M0 60C33.1371 60 60 33.1371 60 5.24537e-06L5.24537e-06 0L0 60Z" transform="translate(0, 3600 translate(30,30) rotate(270) translate(-30,-30)"/></svg><svg><path fill="#90e0ef" d="M0 0h60v60H0z" transform="translate(0, 120)"/></svg><svg><path fill="#00b4d8" d="M0 60C33.1371 60 60 33.1371 60 5.24537e-06L5.24537e-06 0L0 60Z" transform="translate(0, 10800 translate(30,30) rotate(270) translate(-30,-30)"/></svg><svg><path fill="#ade8f4" d="M60 0v60H0V0z" transform="translate(0,240) translate(30,30) rotate(270) translate(-30,-30)"/><path fill="#03045e" d="M60 0v60H0C0 26.863 26.863 0 60 0z" transform="translate(0,240) translate(30,30) rotate(270) translate(-30,-30)"/></svg><svg><path fill="#023e8a" d="M0 0h60v60H0z" transform="translate(0, 300) translate(30,30) rotate(180) translate(-30,-30)"/><circle cx="30" cy="30" r="30" fill="#caf0f8" transform="translate(0, 300) translate(30,30) rotate(180) translate(-30,-30)"/></svg><svg><path fill="#0096c7" d="M60 0v60H0V0z" transform="translate(0,360) translate(30,30) rotate(90) translate(-30,-30)"/><path fill="#caf0f8" d="M60 0v60H0C0 26.863 26.863 0 60 0z" transform="translate(0,360) translate(30,30) rotate(90) translate(-30,-30)"/></svg><svg><path fill="#00b4d8" d="M0 60C33.1371 60 60 33.1371 60 5.24537e-06L5.24537e-06 0L0 60Z" transform="translate(0, 25200 translate(30,30) rotate(270) translate(-30,-30)"/></svg><svg><circle cx="30" cy="30" r="30" fill="#0077b6" transform="translate(0, 480)"/></svg><svg><circle cx="30" cy="30" r="30" fill="#90e0ef" transform="translate(0, 540)"/></svg><svg><path fill="#ade8f4" d="M0 60C33.1371 60 60 33.1371 60 5.24537e-06L5.24537e-06 0L0 60Z" transform="translate(3600, 0 translate(30,30) rotate(0) translate(-30,-30)"/></svg><svg><path fill="#48cae4" d="M0 0h60v60H0z" transform="translate(60, 60)"/></svg><svg><path fill="#90e0ef" d="M0 0h60v60H0z" transform="translate(60, 120)"/></svg><svg><path fill="#023e8a" d="M0 60C33.1371 60 60 33.1371 60 5.24537e-06L5.24537e-06 0L0 60Z" transform="translate(3600, 10800 translate(30,30) rotate(0) translate(-30,-30)"/></svg><svg><path fill="#03045e" d="M0 60C33.1371 60 60 33.1371 60 5.24537e-06L5.24537e-06 0L0 60Z" transform="translate(3600, 14400 translate(30,30) rotate(180) translate(-30,-30)"/></svg><svg><path fill="#00b4d8" d="M0 0h60v60H0z" transform="translate(60, 300)"/></svg><svg><circle cx="30" cy="30" r="30" fill="#03045e" transform="translate(60, 360)"/></svg><svg><path fill="#90e0ef" d="M60 0v60H0V0z" transform="translate(60,420) translate(30,30) rotate(90) translate(-30,-30)"/><path fill="#00b4d8" d="M60 0v60H0C0 26.863 26.863 0 60 0z" transform="translate(60,420) translate(30,30) rotate(90) translate(-30,-30)"/></svg><svg><path fill="#0096c7" d="M60 0v60H0V0z" transform="translate(60,480) translate(30,30) rotate(90) translate(-30,-30)"/><path fill="#0096c7" d="M60 0v60H0C0 26.863 26.863 0 60 0z" transform="translate(60,480) translate(30,30) rotate(90) translate(-30,-30)"/></svg><svg><path fill="#03045e" d="M0 60C33.1371 60 60 33.1371 60 5.24537e-06L5.24537e-06 0L0 60Z" transform="translate(3600, 32400 translate(30,30) rotate(180) translate(-30,-30)"/></svg><svg><circle cx="30" cy="30" r="30" fill="#00b4d8" transform="translate(120, 0)"/></svg><svg><path fill="#caf0f8" d="M60 0v60H0V0z" transform="translate(120,60) translate(30,30) rotate(180) translate(-30,-30)"/><path fill="#90e0ef" d="M60 0v60H0C0 26.863 26.863 0 60 0z" transform="translate(120,60) translate(30,30) rotate(180) translate(-30,-30)"/></svg><svg><circle cx="30" cy="30" r="30" fill="#00b4d8" transform="translate(120, 120)"/></svg><svg><path fill="#48cae4" d="M0 0h60v60H0z" transform="translate(120, 180) translate(30,30) rotate(180) translate(-30,-30)"/><circle cx="30" cy="30" r="30" fill="#023e8a" transform="translate(120, 180) translate(30,30) rotate(180) translate(-30,-30)"/></svg><svg><path fill="#03045e" d="M0 0h60v60H0z" transform="translate(120, 240) translate(30,30) rotate(180) translate(-30,-30)"/><circle cx="30" cy="30" r="30" fill="#00b4d8" transform="translate(120, 240) translate(30,30) rotate(180) translate(-30,-30)"/></svg><svg><path fill="#90e0ef" d="M0 60C33.1371 60 60 33.1371 60 5.24537e-06L5.24537e-06 0L0 60Z" transform="translate(7200, 18000 translate(30,30) rotate(270) translate(-30,-30)"/></svg><svg><path fill="#023e8a" d="M0 60C33.1371 60 60 33.1371 60 5.24537e-06L5.24537e-06 0L0 60Z" transform="translate(7200, 21600 translate(30,30) rotate(90) translate(-30,-30)"/></svg><svg><circle cx="30" cy="30" r="30" fill="#023e8a" transform="translate(120, 420)"/></svg><svg><path fill="#48cae4" d="M0 0h60v60H0z" transform="translate(120, 480)"/></svg><svg><circle cx="30" cy="30" r="30" fill="#00b4d8" transform="translate(120, 540)"/></svg><svg><path fill="#00b4d8" d="M0 60C33.1371 60 60 33.1371 60 5.24537e-06L5.24537e-06 0L0 60Z" transform="translate(10800, 0 translate(30,30) rotate(0) translate(-30,-30)"/></svg><svg><path fill="#023e8a" d="M0 0h60v60H0z" transform="translate(180, 60)"/></svg><svg><path fill="#ade8f4" d="M60 0v60H0V0z" transform="translate(180,120) translate(30,30) rotate(90) translate(-30,-30)"/><path fill="#00b4d8" d="M60 0v60H0C0 26.863 26.863 0 60 0z" transform="translate(180,120) translate(30,30) rotate(90) translate(-30,-30)"/></svg><svg><path fill="#0096c7" d="M0 0h60v60H0z" transform="translate(180, 180)"/></svg><svg><circle cx="30" cy="30" r="30" fill="#90e0ef" transform="translate(180, 240)"/></svg><svg><path fill="#0096c7" d="M60 0v60H0V0z" transform="translate(180,300) translate(30,30) rotate(0) translate(-30,-30)"/><path fill="#023e8a" d="M60 0v60H0C0 26.863 26.863 0 60 0z" transform="translate(180,300) translate(30,30) rotate(0) translate(-30,-30)"/></svg><svg><path fill="#00b4d8" d="M0 0h60v60H0z" transform="translate(180, 360)"/></svg><svg><path fill="#90e0ef" d="M0 0h60v60H0z" transform="translate(180, 420)"/></svg><svg><path fill="#0077b6" d="M0 0h60v60H0z" transform="translate(180, 480)"/></svg><svg><path fill="#ade8f4" d="M0 60C33.1371 60 60 33.1371 60 5.24537e-06L5.24537e-06 0L0 60Z" transform="translate(10800, 32400 translate(30,30) rotate(0) translate(-30,-30)"/></svg><svg><path fill="#0077b6" d="M0 60C33.1371 60 60 33.1371 60 5.24537e-06L5.24537e-06 0L0 60Z" transform="translate(14400, 0 translate(30,30) rotate(180) translate(-30,-30)"/></svg><svg><path fill="#0096c7" d="M0 0h60v60H0z" transform="translate(240, 60) translate(30,30) rotate(180) translate(-30,-30)"/><circle cx="30" cy="30" r="30" fill="#023e8a" transform="translate(240, 60) translate(30,30) rotate(180) translate(-30,-30)"/></svg><svg><path fill="#0096c7" d="M0 0h60v60H0z" transform="translate(240, 120)"/></svg><svg><path fill="#00b4d8" d="M0 0h60v60H0z" transform="translate(240, 180)"/></svg><svg><path fill="#caf0f8" d="M0 60C33.1371 60 60 33.1371 60 5.24537e-06L5.24537e-06 0L0 60Z" transform="translate(14400, 14400 translate(30,30) rotate(0) translate(-30,-30)"/></svg><svg><path fill="#0096c7" d="M0 0h60v60H0z" transform="translate(240, 300)"/></svg><svg><path fill="#0077b6" d="M0 0h60v60H0z" transform="translate(240, 360) translate(30,30) rotate(270) translate(-30,-30)"/><circle cx="30" cy="30" r="30" fill="#ade8f4" transform="translate(240, 360) translate(30,30) rotate(270) translate(-30,-30)"/></svg><svg><path fill="#023e8a" d="M60 0v60H0V0z" transform="translate(240,420) translate(30,30) rotate(270) translate(-30,-30)"/><path fill="#00b4d8" d="M60 0v60H0C0 26.863 26.863 0 60 0z" transform="translate(240,420) translate(30,30) rotate(270) translate(-30,-30)"/></svg><svg><path fill="#48cae4" d="M60 0v60H0V0z" transform="translate(240,480) translate(30,30) rotate(180) translate(-30,-30)"/><path fill="#0096c7" d="M60 0v60H0C0 26.863 26.863 0 60 0z" transform="translate(240,480) translate(30,30) rotate(180) translate(-30,-30)"/></svg><svg><circle cx="30" cy="30" r="30" fill="#90e0ef" transform="translate(240, 540)"/></svg><svg><path fill="#0077b6" d="M0 60C33.1371 60 60 33.1371 60 5.24537e-06L5.24537e-06 0L0 60Z" transform="translate(18000, 0 translate(30,30) rotate(270) translate(-30,-30)"/></svg><svg><path fill="#023e8a" d="M0 0h60v60H0z" transform="translate(300, 60)"/></svg><svg><path fill="#ade8f4" d="M0 60C33.1371 60 60 33.1371 60 5.24537e-06L5.24537e-06 0L0 60Z" transform="translate(18000, 7200 translate(30,30) rotate(90) translate(-30,-30)"/></svg><svg><path fill="#caf0f8" d="M0 0h60v60H0z" transform="translate(300, 180)"/></svg><svg><path fill="#0096c7" d="M60 0v60H0V0z" transform="translate(300,240) translate(30,30) rotate(270) translate(-30,-30)"/><path fill="#0096c7" d="M60 0v60H0C0 26.863 26.863 0 60 0z" transform="translate(300,240) translate(30,30) rotate(270) translate(-30,-30)"/></svg><svg><path fill="#03045e" d="M0 0h60v60H0z" transform="translate(300, 300)"/></svg><svg><path fill="#48cae4" d="M0 60C33.1371 60 60 33.1371 60 5.24537e-06L5.24537e-06 0L0 60Z" transform="translate(18000, 21600 translate(30,30) rotate(0) translate(-30,-30)"/></svg><svg><path fill="#90e0ef" d="M0 0h60v60H0z" transform="translate(300, 420)"/></svg><svg><path fill="#023e8a" d="M0 60C33.1371 60 60 33.1371 60 5.24537e-06L5.24537e-06 0L0 60Z" transform="translate(18000, 28800 translate(30,30) rotate(90) translate(-30,-30)"/></svg><svg><path fill="#48cae4" d="M60 0v60H0V0z" transform="translate(300,540) translate(30,30) rotate(0) translate(-30,-30)"/><path fill="#90e0ef" d="M60 0v60H0C0 26.863 26.863 0 60 0z" transform="translate(300,540) translate(30,30) rotate(0) translate(-30,-30)"/></svg><svg><path fill="#0077b6" d="M60 0v60H0V0z" transform="translate(360,0) translate(30,30) rotate(270) translate(-30,-30)"/><path fill="#90e0ef" d="M60 0v60H0C0 26.863 26.863 0 60 0z" transform="translate(360,0) translate(30,30) rotate(270) translate(-30,-30)"/></svg><svg><circle cx="30" cy="30" r="30" fill="#caf0f8" transform="translate(360, 60)"/></svg><svg><path fill="#caf0f8" d="M60 0v60H0V0z" transform="translate(360,120) translate(30,30) rotate(180) translate(-30,-30)"/><path fill="#0096c7" d="M60 0v60H0C0 26.863 26.863 0 60 0z" transform="translate(360,120) translate(30,30) rotate(180) translate(-30,-30)"/></svg><svg><path fill="#0077b6" d="M0 0h60v60H0z" transform="translate(360, 180)"/></svg><svg><path fill="#00b4d8" d="M60 0v60H0V0z" transform="translate(360,240) translate(30,30) rotate(270) translate(-30,-30)"/><path fill="#00b4d8" d="M60 0v60H0C0 26.863 26.863 0 60 0z" transform="translate(360,240) translate(30,30) rotate(270) translate(-30,-30)"/></svg><svg><path fill="#0096c7" d="M0 0h60v60H0z" transform="translate(360, 300) translate(30,30) rotate(180) translate(-30,-30)"/><circle cx="30" cy="30" r="30" fill="#023e8a" transform="translate(360, 300) translate(30,30) rotate(180) translate(-30,-30)"/></svg><svg><path fill="#ade8f4" d="M0 0h60v60H0z" transform="translate(360, 360)"/></svg><svg><path fill="#0096c7" d="M60 0v60H0V0z" transform="translate(360,420) translate(30,30) rotate(90) translate(-30,-30)"/><path fill="#0096c7" d="M60 0v60H0C0 26.863 26.863 0 60 0z" transform="translate(360,420) translate(30,30) rotate(90) translate(-30,-30)"/></svg><svg><circle cx="30" cy="30" r="30" fill="#ade8f4" transform="translate(360, 480)"/></svg><svg><circle cx="30" cy="30" r="30" fill="#ade8f4" transform="translate(360, 540)"/></svg><svg><path fill="#023e8a" d="M60 0v60H0V0z" transform="translate(420,0) translate(30,30) rotate(270) translate(-30,-30)"/><path fill="#0096c7" d="M60 0v60H0C0 26.863 26.863 0 60 0z" transform="translate(420,0) translate(30,30) rotate(270) translate(-30,-30)"/></svg><svg><path fill="#0096c7" d="M0 60C33.1371 60 60 33.1371 60 5.24537e-06L5.24537e-06 0L0 60Z" transform="translate(25200, 3600 translate(30,30) rotate(0) translate(-30,-30)"/></svg><svg><path fill="#48cae4" d="M0 0h60v60H0z" transform="translate(420, 120)"/></svg><svg><path fill="#0077b6" d="M60 0v60H0V0z" transform="translate(420,180) translate(30,30) rotate(90) translate(-30,-30)"/><path fill="#023e8a" d="M60 0v60H0C0 26.863 26.863 0 60 0z" transform="translate(420,180) translate(30,30) rotate(90) translate(-30,-30)"/></svg><svg><path fill="#48cae4" d="M0 60C33.1371 60 60 33.1371 60 5.24537e-06L5.24537e-06 0L0 60Z" transform="translate(25200, 14400 translate(30,30) rotate(270) translate(-30,-30)"/></svg><svg><path fill="#00b4d8" d="M60 0v60H0V0z" transform="translate(420,300) translate(30,30) rotate(180) translate(-30,-30)"/><path fill="#48cae4" d="M60 0v60H0C0 26.863 26.863 0 60 0z" transform="translate(420,300) translate(30,30) rotate(180) translate(-30,-30)"/></svg><svg><path fill="#023e8a" d="M0 60C33.1371 60 60 33.1371 60 5.24537e-06L5.24537e-06 0L0 60Z" transform="translate(25200, 21600 translate(30,30) rotate(180) translate(-30,-30)"/></svg><svg><circle cx="30" cy="30" r="30" fill="#023e8a" transform="translate(420, 420)"/></svg><svg><path fill="#ade8f4" d="M60 0v60H0V0z" transform="translate(420,480) translate(30,30) rotate(90) translate(-30,-30)"/><path fill="#caf0f8" d="M60 0v60H0C0 26.863 26.863 0 60 0z" transform="translate(420,480) translate(30,30) rotate(90) translate(-30,-30)"/></svg><svg><path fill="#ade8f4" d="M0 0h60v60H0z" transform="translate(420, 540)"/></svg><svg><circle cx="30" cy="30" r="30" fill="#03045e" transform="translate(480, 0)"/></svg><svg><path fill="#023e8a" d="M0 0h60v60H0z" transform="translate(480, 60)"/></svg><svg><path fill="#00b4d8" d="M0 60C33.1371 60 60 33.1371 60 5.24537e-06L5.24537e-06 0L0 60Z" transform="translate(28800, 7200 translate(30,30) rotate(270) translate(-30,-30)"/></svg><svg><path fill="#48cae4" d="M60 0v60H0V0z" transform="translate(480,180) translate(30,30) rotate(90) translate(-30,-30)"/><path fill="#ade8f4" d="M60 0v60H0C0 26.863 26.863 0 60 0z" transform="translate(480,180) translate(30,30) rotate(90) translate(-30,-30)"/></svg><svg><path fill="#48cae4" d="M0 0h60v60H0z" transform="translate(480, 240)"/></svg><svg><path fill="#90e0ef" d="M0 0h60v60H0z" transform="translate(480, 300)"/></svg><svg><path fill="#ade8f4" d="M0 0h60v60H0z" transform="translate(480, 360) translate(30,30) rotate(270) translate(-30,-30)"/><circle cx="30" cy="30" r="30" fill="#03045e" transform="translate(480, 360) translate(30,30) rotate(270) translate(-30,-30)"/></svg><svg><path fill="#90e0ef" d="M60 0v60H0V0z" transform="translate(480,420) translate(30,30) rotate(180) translate(-30,-30)"/><path fill="#caf0f8" d="M60 0v60H0C0 26.863 26.863 0 60 0z" transform="translate(480,420) translate(30,30) rotate(180) translate(-30,-30)"/></svg><svg><circle cx="30" cy="30" r="30" fill="#03045e" transform="translate(480, 480)"/></svg><svg><path fill="#00b4d8" d="M0 60C33.1371 60 60 33.1371 60 5.24537e-06L5.24537e-06 0L0 60Z" transform="translate(28800, 32400 translate(30,30) rotate(90) translate(-30,-30)"/></svg><svg><path fill="#90e0ef" d="M60 0v60H0V0z" transform="translate(540,0) translate(30,30) rotate(270) translate(-30,-30)"/><path fill="#023e8a" d="M60 0v60H0C0 26.863 26.863 0 60 0z" transform="translate(540,0) translate(30,30) rotate(270) translate(-30,-30)"/></svg><svg><path fill="#0077b6" d="M0 0h60v60H0z" transform="translate(540, 60) translate(30,30) rotate(270) translate(-30,-30)"/><circle cx="30" cy="30" r="30" fill="#0077b6" transform="translate(540, 60) translate(30,30) rotate(270) translate(-30,-30)"/></svg><svg><path fill="#90e0ef" d="M0 0h60v60H0z" transform="translate(540, 120) translate(30,30) rotate(90) translate(-30,-30)"/><circle cx="30" cy="30" r="30" fill="#0096c7" transform="translate(540, 120) translate(30,30) rotate(90) translate(-30,-30)"/></svg><svg><path fill="#90e0ef" d="M0 60C33.1371 60 60 33.1371 60 5.24537e-06L5.24537e-06 0L0 60Z" transform="translate(32400, 10800 translate(30,30) rotate(0) translate(-30,-30)"/></svg><svg><path fill="#0096c7" d="M0 0h60v60H0z" transform="translate(540, 240) translate(30,30) rotate(90) translate(-30,-30)"/><circle cx="30" cy="30" r="30" fill="#0077b6" transform="translate(540, 240) translate(30,30) rotate(90) translate(-30,-30)"/></svg><svg><path fill="#023e8a" d="M0 0h60v60H0z" transform="translate(540, 300)"/></svg><svg><path fill="#00b4d8" d="M0 0h60v60H0z" transform="translate(540, 360) translate(30,30) rotate(0) translate(-30,-30)"/><circle cx="30" cy="30" r="30" fill="#00b4d8" transform="translate(540, 360) translate(30,30) rotate(0) translate(-30,-30)"/></svg><svg><path fill="#0077b6" d="M0 0h60v60H0z" transform="translate(540, 420)"/></svg><svg><path fill="#48cae4" d="M0 0h60v60H0z" transform="translate(540, 480)"/></svg><svg><circle cx="30" cy="30" r="30" fill="#0096c7" transform="translate(540, 540)"/></svg></svg>