<svg xmlns="http://www.w3.org/2000/svg" xmlns:xlink="http://www.w3.org/1999/xlink" style="margin:auto;background:rgba(NaN,NaN,NaN,0);display:block;z-index:1;position:relative" width="1084" height="322" preserveAspectRatio="xMidYMid" viewBox="0 0 1084 322"><defs><pattern id="pid-0.7735807359934106" width="345.6" height="345.6" x="0" y="0" patternUnits="userSpaceOnUse"><g><g transform="scale(1.35)"><line x1="237.629" x2="201.397" y1="119.053" y2="155.285" stroke="#93dbe9" stroke-linecap="round" stroke-width="15"/><line x1="237.629" x2="201.397" y1="-392.947" y2="-356.715" stroke="#93dbe9" stroke-linecap="round" stroke-width="15"/><line x1="493.629" x2="457.397" y1="-392.947" y2="-356.715" stroke="#93dbe9" stroke-linecap="round" stroke-width="15"/><line x1="749.629" x2="713.397" y1="-392.947" y2="-356.715" stroke="#93dbe9" stroke-linecap="round" stroke-width="15"/><line x1="237.629" x2="201.397" y1="-136.947" y2="-100.715" stroke="#93dbe9" stroke-linecap="round" stroke-width="15"/><line x1="493.629" x2="457.397" y1="-136.947" y2="-100.715" stroke="#93dbe9" stroke-linecap="round" stroke-width="15"/><line x1="749.629" x2="713.397" y1="-136.947" y2="-100.715" stroke="#93dbe9" stroke-linecap="round" stroke-width="15"/><line x1="237.629" x2="201.397" y1="119.053" y2="155.285" stroke="#93dbe9" stroke-linecap="round" stroke-width="15"/><line x1="493.629" x2="457.397" y1="119.053" y2="155.285" stroke="#93dbe9" stroke-linecap="round" stroke-width="15"/><line x1="749.629" x2="713.397" y1="119.053" y2="155.285" stroke="#93dbe9" stroke-linecap="round" stroke-width="15"/><line x1="244.438" x2="179.252" y1="196.214" y2="261.4" stroke="#93dbe9" stroke-linecap="round" stroke-width="15"/><line x1="244.438" x2="179.252" y1="-315.786" y2="-250.6" stroke="#93dbe9" stroke-linecap="round" stroke-width="15"/><line x1="500.438" x2="435.252" y1="-315.786" y2="-250.6" stroke="#93dbe9" stroke-linecap="round" stroke-width="15"/><line x1="756.438" x2="691.252" y1="-315.786" y2="-250.6" stroke="#93dbe9" stroke-linecap="round" stroke-width="15"/><line x1="244.438" x2="179.252" y1="-59.786" y2="5.4" stroke="#93dbe9" stroke-linecap="round" stroke-width="15"/><line x1="500.438" x2="435.252" y1="-59.786" y2="5.4" stroke="#93dbe9" stroke-linecap="round" stroke-width="15"/><line x1="756.438" x2="691.252" y1="-59.786" y2="5.4" stroke="#93dbe9" stroke-linecap="round" stroke-width="15"/><line x1="244.438" x2="179.252" y1="196.214" y2="261.4" stroke="#93dbe9" stroke-linecap="round" stroke-width="15"/><line x1="500.438" x2="435.252" y1="196.214" y2="261.4" stroke="#93dbe9" stroke-linecap="round" stroke-width="15"/><line x1="756.438" x2="691.252" y1="196.214" y2="261.4" stroke="#93dbe9" stroke-linecap="round" stroke-width="15"/><line x1="219.672" x2="209.218" y1="92.858" y2="103.312" stroke="#93dbe9" stroke-linecap="round" stroke-width="15"/><line x1="219.672" x2="209.218" y1="-419.142" y2="-408.688" stroke="#93dbe9" stroke-linecap="round" stroke-width="15"/><line x1="475.672" x2="465.218" y1="-419.142" y2="-408.688" stroke="#93dbe9" stroke-linecap="round" stroke-width="15"/><line x1="731.672" x2="721.218" y1="-419.142" y2="-408.688" stroke="#93dbe9" stroke-linecap="round" stroke-width="15"/><line x1="219.672" x2="209.218" y1="-163.142" y2="-152.688" stroke="#93dbe9" stroke-linecap="round" stroke-width="15"/><line x1="475.672" x2="465.218" y1="-163.142" y2="-152.688" stroke="#93dbe9" stroke-linecap="round" stroke-width="15"/><line x1="731.672" x2="721.218" y1="-163.142" y2="-152.688" stroke="#93dbe9" stroke-linecap="round" stroke-width="15"/><line x1="219.672" x2="209.218" y1="92.858" y2="103.312" stroke="#93dbe9" stroke-linecap="round" stroke-width="15"/><line x1="475.672" x2="465.218" y1="92.858" y2="103.312" stroke="#93dbe9" stroke-linecap="round" stroke-width="15"/><line x1="731.672" x2="721.218" y1="92.858" y2="103.312" stroke="#93dbe9" stroke-linecap="round" stroke-width="15"/><line x1="112.006" x2="71.158" y1="56.634" y2="97.482" stroke="#93dbe9" stroke-linecap="round" stroke-width="15"/><line x1="112.006" x2="71.158" y1="-455.366" y2="-414.518" stroke="#93dbe9" stroke-linecap="round" stroke-width="15"/><line x1="368.006" x2="327.158" y1="-455.366" y2="-414.518" stroke="#93dbe9" stroke-linecap="round" stroke-width="15"/><line x1="624.006" x2="583.158" y1="-455.366" y2="-414.518" stroke="#93dbe9" stroke-linecap="round" stroke-width="15"/><line x1="112.006" x2="71.158" y1="-199.366" y2="-158.518" stroke="#93dbe9" stroke-linecap="round" stroke-width="15"/><line x1="368.006" x2="327.158" y1="-199.366" y2="-158.518" stroke="#93dbe9" stroke-linecap="round" stroke-width="15"/><line x1="624.006" x2="583.158" y1="-199.366" y2="-158.518" stroke="#93dbe9" stroke-linecap="round" stroke-width="15"/><line x1="112.006" x2="71.158" y1="56.634" y2="97.482" stroke="#93dbe9" stroke-linecap="round" stroke-width="15"/><line x1="368.006" x2="327.158" y1="56.634" y2="97.482" stroke="#93dbe9" stroke-linecap="round" stroke-width="15"/><line x1="624.006" x2="583.158" y1="56.634" y2="97.482" stroke="#93dbe9" stroke-linecap="round" stroke-width="15"/><line x1="60.933" x2="49.389" y1="125.657" y2="137.201" stroke="#93dbe9" stroke-linecap="round" stroke-width="15"/><line x1="60.933" x2="49.389" y1="-386.343" y2="-374.799" stroke="#93dbe9" stroke-linecap="round" stroke-width="15"/><line x1="316.933" x2="305.389" y1="-386.343" y2="-374.799" stroke="#93dbe9" stroke-linecap="round" stroke-width="15"/><line x1="572.933" x2="561.389" y1="-386.343" y2="-374.799" stroke="#93dbe9" stroke-linecap="round" stroke-width="15"/><line x1="60.933" x2="49.389" y1="-130.343" y2="-118.799" stroke="#93dbe9" stroke-linecap="round" stroke-width="15"/><line x1="316.933" x2="305.389" y1="-130.343" y2="-118.799" stroke="#93dbe9" stroke-linecap="round" stroke-width="15"/><line x1="572.933" x2="561.389" y1="-130.343" y2="-118.799" stroke="#93dbe9" stroke-linecap="round" stroke-width="15"/><line x1="60.933" x2="49.389" y1="125.657" y2="137.201" stroke="#93dbe9" stroke-linecap="round" stroke-width="15"/><line x1="316.933" x2="305.389" y1="125.657" y2="137.201" stroke="#93dbe9" stroke-linecap="round" stroke-width="15"/><line x1="572.933" x2="561.389" y1="125.657" y2="137.201" stroke="#93dbe9" stroke-linecap="round" stroke-width="15"/><line x1="103.783" x2="35.085" y1="-2.328" y2="66.37" stroke="#93dbe9" stroke-linecap="round" stroke-width="15"/><line x1="103.783" x2="35.085" y1="-514.328" y2="-445.63" stroke="#93dbe9" stroke-linecap="round" stroke-width="15"/><line x1="359.783" x2="291.085" y1="-514.328" y2="-445.63" stroke="#93dbe9" stroke-linecap="round" stroke-width="15"/><line x1="615.783" x2="547.085" y1="-514.328" y2="-445.63" stroke="#93dbe9" stroke-linecap="round" stroke-width="15"/><line x1="103.783" x2="35.085" y1="-258.328" y2="-189.63" stroke="#93dbe9" stroke-linecap="round" stroke-width="15"/><line x1="359.783" x2="291.085" y1="-258.328" y2="-189.63" stroke="#93dbe9" stroke-linecap="round" stroke-width="15"/><line x1="615.783" x2="547.085" y1="-258.328" y2="-189.63" stroke="#93dbe9" stroke-linecap="round" stroke-width="15"/><line x1="103.783" x2="35.085" y1="-2.328" y2="66.37" stroke="#93dbe9" stroke-linecap="round" stroke-width="15"/><line x1="359.783" x2="291.085" y1="-2.328" y2="66.37" stroke="#93dbe9" stroke-linecap="round" stroke-width="15"/><line x1="615.783" x2="547.085" y1="-2.328" y2="66.37" stroke="#93dbe9" stroke-linecap="round" stroke-width="15"/><line x1="103.783" x2="35.085" y1="253.672" y2="322.37" stroke="#93dbe9" stroke-linecap="round" stroke-width="15"/><line x1="211.699" x2="194.135" y1="166.217" y2="183.781" stroke="#93dbe9" stroke-linecap="round" stroke-width="15"/><line x1="211.699" x2="194.135" y1="-345.783" y2="-328.219" stroke="#93dbe9" stroke-linecap="round" stroke-width="15"/><line x1="467.699" x2="450.135" y1="-345.783" y2="-328.219" stroke="#93dbe9" stroke-linecap="round" stroke-width="15"/><line x1="723.699" x2="706.135" y1="-345.783" y2="-328.219" stroke="#93dbe9" stroke-linecap="round" stroke-width="15"/><line x1="211.699" x2="194.135" y1="-89.783" y2="-72.219" stroke="#93dbe9" stroke-linecap="round" stroke-width="15"/><line x1="467.699" x2="450.135" y1="-89.783" y2="-72.219" stroke="#93dbe9" stroke-linecap="round" stroke-width="15"/><line x1="723.699" x2="706.135" y1="-89.783" y2="-72.219" stroke="#93dbe9" stroke-linecap="round" stroke-width="15"/><line x1="211.699" x2="194.135" y1="166.217" y2="183.781" stroke="#93dbe9" stroke-linecap="round" stroke-width="15"/><line x1="467.699" x2="450.135" y1="166.217" y2="183.781" stroke="#93dbe9" stroke-linecap="round" stroke-width="15"/><line x1="723.699" x2="706.135" y1="166.217" y2="183.781" stroke="#93dbe9" stroke-linecap="round" stroke-width="15"/><line x1="44.013" x2="6.292" y1="153.795" y2="191.516" stroke="#93dbe9" stroke-linecap="round" stroke-width="15"/><line x1="44.013" x2="6.292" y1="-358.205" y2="-320.484" stroke="#93dbe9" stroke-linecap="round" stroke-width="15"/><line x1="300.013" x2="262.292" y1="-358.205" y2="-320.484" stroke="#93dbe9" stroke-linecap="round" stroke-width="15"/><line x1="556.013" x2="518.292" y1="-358.205" y2="-320.484" stroke="#93dbe9" stroke-linecap="round" stroke-width="15"/><line x1="44.013" x2="6.292" y1="-102.205" y2="-64.484" stroke="#93dbe9" stroke-linecap="round" stroke-width="15"/><line x1="300.013" x2="262.292" y1="-102.205" y2="-64.484" stroke="#93dbe9" stroke-linecap="round" stroke-width="15"/><line x1="556.013" x2="518.292" y1="-102.205" y2="-64.484" stroke="#93dbe9" stroke-linecap="round" stroke-width="15"/><line x1="44.013" x2="6.292" y1="153.795" y2="191.516" stroke="#93dbe9" stroke-linecap="round" stroke-width="15"/><line x1="300.013" x2="262.292" y1="153.795" y2="191.516" stroke="#93dbe9" stroke-linecap="round" stroke-width="15"/><line x1="556.013" x2="518.292" y1="153.795" y2="191.516" stroke="#93dbe9" stroke-linecap="round" stroke-width="15"/><line x1="105.492" x2="31.55" y1="123.417" y2="197.36" stroke="#93dbe9" stroke-linecap="round" stroke-width="15"/><line x1="105.492" x2="31.55" y1="-388.583" y2="-314.64" stroke="#93dbe9" stroke-linecap="round" stroke-width="15"/><line x1="361.492" x2="287.55" y1="-388.583" y2="-314.64" stroke="#93dbe9" stroke-linecap="round" stroke-width="15"/><line x1="617.492" x2="543.55" y1="-388.583" y2="-314.64" stroke="#93dbe9" stroke-linecap="round" stroke-width="15"/><line x1="105.492" x2="31.55" y1="-132.583" y2="-58.64" stroke="#93dbe9" stroke-linecap="round" stroke-width="15"/><line x1="361.492" x2="287.55" y1="-132.583" y2="-58.64" stroke="#93dbe9" stroke-linecap="round" stroke-width="15"/><line x1="617.492" x2="543.55" y1="-132.583" y2="-58.64" stroke="#93dbe9" stroke-linecap="round" stroke-width="15"/><line x1="105.492" x2="31.55" y1="123.417" y2="197.36" stroke="#93dbe9" stroke-linecap="round" stroke-width="15"/><line x1="361.492" x2="287.55" y1="123.417" y2="197.36" stroke="#93dbe9" stroke-linecap="round" stroke-width="15"/><line x1="617.492" x2="543.55" y1="123.417" y2="197.36" stroke="#93dbe9" stroke-linecap="round" stroke-width="15"/><animateTransform attributeName="transform" dur="10s" keyTimes="0;1" repeatCount="indefinite" type="translate" values="0 0;-256 256"/></g><g transform="scale(1.35)"><line x1="95.736" x2="50.085" y1="20.457" y2="66.107" stroke="#689cc5" stroke-linecap="round" stroke-width="15"/><line x1="95.736" x2="50.085" y1="-491.543" y2="-445.893" stroke="#689cc5" stroke-linecap="round" stroke-width="15"/><line x1="351.736" x2="306.085" y1="-491.543" y2="-445.893" stroke="#689cc5" stroke-linecap="round" stroke-width="15"/><line x1="607.736" x2="562.085" y1="-491.543" y2="-445.893" stroke="#689cc5" stroke-linecap="round" stroke-width="15"/><line x1="95.736" x2="50.085" y1="-235.543" y2="-189.893" stroke="#689cc5" stroke-linecap="round" stroke-width="15"/><line x1="351.736" x2="306.085" y1="-235.543" y2="-189.893" stroke="#689cc5" stroke-linecap="round" stroke-width="15"/><line x1="607.736" x2="562.085" y1="-235.543" y2="-189.893" stroke="#689cc5" stroke-linecap="round" stroke-width="15"/><line x1="95.736" x2="50.085" y1="20.457" y2="66.107" stroke="#689cc5" stroke-linecap="round" stroke-width="15"/><line x1="351.736" x2="306.085" y1="20.457" y2="66.107" stroke="#689cc5" stroke-linecap="round" stroke-width="15"/><line x1="607.736" x2="562.085" y1="20.457" y2="66.107" stroke="#689cc5" stroke-linecap="round" stroke-width="15"/><line x1="263.343" x2="226.596" y1="112.429" y2="149.177" stroke="#689cc5" stroke-linecap="round" stroke-width="15"/><line x1="263.343" x2="226.596" y1="-399.571" y2="-362.823" stroke="#689cc5" stroke-linecap="round" stroke-width="15"/><line x1="519.343" x2="482.596" y1="-399.571" y2="-362.823" stroke="#689cc5" stroke-linecap="round" stroke-width="15"/><line x1="775.343" x2="738.596" y1="-399.571" y2="-362.823" stroke="#689cc5" stroke-linecap="round" stroke-width="15"/><line x1="263.343" x2="226.596" y1="-143.571" y2="-106.823" stroke="#689cc5" stroke-linecap="round" stroke-width="15"/><line x1="519.343" x2="482.596" y1="-143.571" y2="-106.823" stroke="#689cc5" stroke-linecap="round" stroke-width="15"/><line x1="775.343" x2="738.596" y1="-143.571" y2="-106.823" stroke="#689cc5" stroke-linecap="round" stroke-width="15"/><line x1="263.343" x2="226.596" y1="112.429" y2="149.177" stroke="#689cc5" stroke-linecap="round" stroke-width="15"/><line x1="519.343" x2="482.596" y1="112.429" y2="149.177" stroke="#689cc5" stroke-linecap="round" stroke-width="15"/><line x1="775.343" x2="738.596" y1="112.429" y2="149.177" stroke="#689cc5" stroke-linecap="round" stroke-width="15"/><line x1="7.343" x2="-29.404" y1="112.429" y2="149.177" stroke="#689cc5" stroke-linecap="round" stroke-width="15"/><line x1="29.534" x2="-26.261" y1="205.168" y2="260.963" stroke="#689cc5" stroke-linecap="round" stroke-width="15"/><line x1="29.534" x2="-26.261" y1="-306.832" y2="-251.037" stroke="#689cc5" stroke-linecap="round" stroke-width="15"/><line x1="285.534" x2="229.739" y1="-306.832" y2="-251.037" stroke="#689cc5" stroke-linecap="round" stroke-width="15"/><line x1="541.534" x2="485.739" y1="-306.832" y2="-251.037" stroke="#689cc5" stroke-linecap="round" stroke-width="15"/><line x1="29.534" x2="-26.261" y1="-50.832" y2="4.963" stroke="#689cc5" stroke-linecap="round" stroke-width="15"/><line x1="285.534" x2="229.739" y1="-50.832" y2="4.963" stroke="#689cc5" stroke-linecap="round" stroke-width="15"/><line x1="541.534" x2="485.739" y1="-50.832" y2="4.963" stroke="#689cc5" stroke-linecap="round" stroke-width="15"/><line x1="29.534" x2="-26.261" y1="205.168" y2="260.963" stroke="#689cc5" stroke-linecap="round" stroke-width="15"/><line x1="285.534" x2="229.739" y1="205.168" y2="260.963" stroke="#689cc5" stroke-linecap="round" stroke-width="15"/><line x1="541.534" x2="485.739" y1="205.168" y2="260.963" stroke="#689cc5" stroke-linecap="round" stroke-width="15"/><line x1="235.025" x2="173.489" y1="23.307" y2="84.842" stroke="#689cc5" stroke-linecap="round" stroke-width="15"/><line x1="235.025" x2="173.489" y1="-488.693" y2="-427.158" stroke="#689cc5" stroke-linecap="round" stroke-width="15"/><line x1="491.025" x2="429.489" y1="-488.693" y2="-427.158" stroke="#689cc5" stroke-linecap="round" stroke-width="15"/><line x1="747.025" x2="685.489" y1="-488.693" y2="-427.158" stroke="#689cc5" stroke-linecap="round" stroke-width="15"/><line x1="235.025" x2="173.489" y1="-232.693" y2="-171.158" stroke="#689cc5" stroke-linecap="round" stroke-width="15"/><line x1="491.025" x2="429.489" y1="-232.693" y2="-171.158" stroke="#689cc5" stroke-linecap="round" stroke-width="15"/><line x1="747.025" x2="685.489" y1="-232.693" y2="-171.158" stroke="#689cc5" stroke-linecap="round" stroke-width="15"/><line x1="235.025" x2="173.489" y1="23.307" y2="84.842" stroke="#689cc5" stroke-linecap="round" stroke-width="15"/><line x1="491.025" x2="429.489" y1="23.307" y2="84.842" stroke="#689cc5" stroke-linecap="round" stroke-width="15"/><line x1="747.025" x2="685.489" y1="23.307" y2="84.842" stroke="#689cc5" stroke-linecap="round" stroke-width="15"/><line x1="225.01" x2="200.624" y1="210.105" y2="234.491" stroke="#689cc5" stroke-linecap="round" stroke-width="15"/><line x1="225.01" x2="200.624" y1="-301.895" y2="-277.509" stroke="#689cc5" stroke-linecap="round" stroke-width="15"/><line x1="481.01" x2="456.624" y1="-301.895" y2="-277.509" stroke="#689cc5" stroke-linecap="round" stroke-width="15"/><line x1="737.01" x2="712.624" y1="-301.895" y2="-277.509" stroke="#689cc5" stroke-linecap="round" stroke-width="15"/><line x1="225.01" x2="200.624" y1="-45.895" y2="-21.509" stroke="#689cc5" stroke-linecap="round" stroke-width="15"/><line x1="481.01" x2="456.624" y1="-45.895" y2="-21.509" stroke="#689cc5" stroke-linecap="round" stroke-width="15"/><line x1="737.01" x2="712.624" y1="-45.895" y2="-21.509" stroke="#689cc5" stroke-linecap="round" stroke-width="15"/><line x1="225.01" x2="200.624" y1="210.105" y2="234.491" stroke="#689cc5" stroke-linecap="round" stroke-width="15"/><line x1="481.01" x2="456.624" y1="210.105" y2="234.491" stroke="#689cc5" stroke-linecap="round" stroke-width="15"/><line x1="737.01" x2="712.624" y1="210.105" y2="234.491" stroke="#689cc5" stroke-linecap="round" stroke-width="15"/><line x1="171.55" x2="102.053" y1="78.559" y2="148.056" stroke="#93dbe9" stroke-linecap="round" stroke-width="15"/><line x1="171.55" x2="102.053" y1="-433.441" y2="-363.944" stroke="#93dbe9" stroke-linecap="round" stroke-width="15"/><line x1="427.55" x2="358.053" y1="-433.441" y2="-363.944" stroke="#93dbe9" stroke-linecap="round" stroke-width="15"/><line x1="683.55" x2="614.053" y1="-433.441" y2="-363.944" stroke="#93dbe9" stroke-linecap="round" stroke-width="15"/><line x1="171.55" x2="102.053" y1="-177.441" y2="-107.944" stroke="#93dbe9" stroke-linecap="round" stroke-width="15"/><line x1="427.55" x2="358.053" y1="-177.441" y2="-107.944" stroke="#93dbe9" stroke-linecap="round" stroke-width="15"/><line x1="683.55" x2="614.053" y1="-177.441" y2="-107.944" stroke="#93dbe9" stroke-linecap="round" stroke-width="15"/><line x1="171.55" x2="102.053" y1="78.559" y2="148.056" stroke="#93dbe9" stroke-linecap="round" stroke-width="15"/><line x1="427.55" x2="358.053" y1="78.559" y2="148.056" stroke="#93dbe9" stroke-linecap="round" stroke-width="15"/><line x1="683.55" x2="614.053" y1="78.559" y2="148.056" stroke="#93dbe9" stroke-linecap="round" stroke-width="15"/><line x1="258.436" x2="228.099" y1="10.646" y2="40.983" stroke="#689cc5" stroke-linecap="round" stroke-width="15"/><line x1="258.436" x2="228.099" y1="-501.354" y2="-471.017" stroke="#689cc5" stroke-linecap="round" stroke-width="15"/><line x1="514.436" x2="484.099" y1="-501.354" y2="-471.017" stroke="#689cc5" stroke-linecap="round" stroke-width="15"/><line x1="770.436" x2="740.099" y1="-501.354" y2="-471.017" stroke="#689cc5" stroke-linecap="round" stroke-width="15"/><line x1="258.436" x2="228.099" y1="-245.354" y2="-215.017" stroke="#689cc5" stroke-linecap="round" stroke-width="15"/><line x1="514.436" x2="484.099" y1="-245.354" y2="-215.017" stroke="#689cc5" stroke-linecap="round" stroke-width="15"/><line x1="770.436" x2="740.099" y1="-245.354" y2="-215.017" stroke="#689cc5" stroke-linecap="round" stroke-width="15"/><line x1="258.436" x2="228.099" y1="10.646" y2="40.983" stroke="#689cc5" stroke-linecap="round" stroke-width="15"/><line x1="514.436" x2="484.099" y1="10.646" y2="40.983" stroke="#689cc5" stroke-linecap="round" stroke-width="15"/><line x1="770.436" x2="740.099" y1="10.646" y2="40.983" stroke="#689cc5" stroke-linecap="round" stroke-width="15"/><line x1="2.436" x2="-27.901" y1="10.646" y2="40.983" stroke="#689cc5" stroke-linecap="round" stroke-width="15"/><line x1="35.416" x2="-5.967" y1="10.152" y2="51.535" stroke="#689cc5" stroke-linecap="round" stroke-width="15"/><line x1="35.416" x2="-5.967" y1="-501.848" y2="-460.465" stroke="#689cc5" stroke-linecap="round" stroke-width="15"/><line x1="291.416" x2="250.033" y1="-501.848" y2="-460.465" stroke="#689cc5" stroke-linecap="round" stroke-width="15"/><line x1="547.416" x2="506.033" y1="-501.848" y2="-460.465" stroke="#689cc5" stroke-linecap="round" stroke-width="15"/><line x1="35.416" x2="-5.967" y1="-245.848" y2="-204.465" stroke="#689cc5" stroke-linecap="round" stroke-width="15"/><line x1="291.416" x2="250.033" y1="-245.848" y2="-204.465" stroke="#689cc5" stroke-linecap="round" stroke-width="15"/><line x1="547.416" x2="506.033" y1="-245.848" y2="-204.465" stroke="#689cc5" stroke-linecap="round" stroke-width="15"/><line x1="35.416" x2="-5.967" y1="10.152" y2="51.535" stroke="#689cc5" stroke-linecap="round" stroke-width="15"/><line x1="291.416" x2="250.033" y1="10.152" y2="51.535" stroke="#689cc5" stroke-linecap="round" stroke-width="15"/><line x1="547.416" x2="506.033" y1="10.152" y2="51.535" stroke="#689cc5" stroke-linecap="round" stroke-width="15"/><line x1="90.763" x2="72.925" y1="79.79" y2="97.628" stroke="#5e6fa3" stroke-linecap="round" stroke-width="15"/><line x1="90.763" x2="72.925" y1="-432.21" y2="-414.372" stroke="#5e6fa3" stroke-linecap="round" stroke-width="15"/><line x1="346.763" x2="328.925" y1="-432.21" y2="-414.372" stroke="#5e6fa3" stroke-linecap="round" stroke-width="15"/><line x1="602.763" x2="584.925" y1="-432.21" y2="-414.372" stroke="#5e6fa3" stroke-linecap="round" stroke-width="15"/><line x1="90.763" x2="72.925" y1="-176.21" y2="-158.372" stroke="#5e6fa3" stroke-linecap="round" stroke-width="15"/><line x1="346.763" x2="328.925" y1="-176.21" y2="-158.372" stroke="#5e6fa3" stroke-linecap="round" stroke-width="15"/><line x1="602.763" x2="584.925" y1="-176.21" y2="-158.372" stroke="#5e6fa3" stroke-linecap="round" stroke-width="15"/><line x1="90.763" x2="72.925" y1="79.79" y2="97.628" stroke="#5e6fa3" stroke-linecap="round" stroke-width="15"/><line x1="346.763" x2="328.925" y1="79.79" y2="97.628" stroke="#5e6fa3" stroke-linecap="round" stroke-width="15"/><line x1="602.763" x2="584.925" y1="79.79" y2="97.628" stroke="#5e6fa3" stroke-linecap="round" stroke-width="15"/><animateTransform attributeName="transform" dur="5s" keyTimes="0;1" repeatCount="indefinite" type="translate" values="0 0;-256 256"/></g><g transform="scale(1.35)"><line x1="93.69" x2="75.716" y1="83.838" y2="101.811" stroke="#5e6fa3" stroke-linecap="round" stroke-width="15"/><line x1="93.69" x2="75.716" y1="-428.162" y2="-410.189" stroke="#5e6fa3" stroke-linecap="round" stroke-width="15"/><line x1="349.69" x2="331.716" y1="-428.162" y2="-410.189" stroke="#5e6fa3" stroke-linecap="round" stroke-width="15"/><line x1="605.69" x2="587.716" y1="-428.162" y2="-410.189" stroke="#5e6fa3" stroke-linecap="round" stroke-width="15"/><line x1="93.69" x2="75.716" y1="-172.162" y2="-154.189" stroke="#5e6fa3" stroke-linecap="round" stroke-width="15"/><line x1="349.69" x2="331.716" y1="-172.162" y2="-154.189" stroke="#5e6fa3" stroke-linecap="round" stroke-width="15"/><line x1="605.69" x2="587.716" y1="-172.162" y2="-154.189" stroke="#5e6fa3" stroke-linecap="round" stroke-width="15"/><line x1="93.69" x2="75.716" y1="83.838" y2="101.811" stroke="#5e6fa3" stroke-linecap="round" stroke-width="15"/><line x1="349.69" x2="331.716" y1="83.838" y2="101.811" stroke="#5e6fa3" stroke-linecap="round" stroke-width="15"/><line x1="605.69" x2="587.716" y1="83.838" y2="101.811" stroke="#5e6fa3" stroke-linecap="round" stroke-width="15"/><line x1="207.249" x2="167.481" y1="234.56" y2="274.328" stroke="#5e6fa3" stroke-linecap="round" stroke-width="15"/><line x1="207.249" x2="167.481" y1="-277.44" y2="-237.672" stroke="#5e6fa3" stroke-linecap="round" stroke-width="15"/><line x1="463.249" x2="423.481" y1="-277.44" y2="-237.672" stroke="#5e6fa3" stroke-linecap="round" stroke-width="15"/><line x1="719.249" x2="679.481" y1="-277.44" y2="-237.672" stroke="#5e6fa3" stroke-linecap="round" stroke-width="15"/><line x1="207.249" x2="167.481" y1="-21.44" y2="18.328" stroke="#5e6fa3" stroke-linecap="round" stroke-width="15"/><line x1="463.249" x2="423.481" y1="-21.44" y2="18.328" stroke="#5e6fa3" stroke-linecap="round" stroke-width="15"/><line x1="719.249" x2="679.481" y1="-21.44" y2="18.328" stroke="#5e6fa3" stroke-linecap="round" stroke-width="15"/><line x1="207.249" x2="167.481" y1="234.56" y2="274.328" stroke="#5e6fa3" stroke-linecap="round" stroke-width="15"/><line x1="463.249" x2="423.481" y1="234.56" y2="274.328" stroke="#5e6fa3" stroke-linecap="round" stroke-width="15"/><line x1="719.249" x2="679.481" y1="234.56" y2="274.328" stroke="#5e6fa3" stroke-linecap="round" stroke-width="15"/><line x1="69.197" x2="20.156" y1="61.529" y2="110.57" stroke="#93dbe9" stroke-linecap="round" stroke-width="15"/><line x1="69.197" x2="20.156" y1="-450.471" y2="-401.43" stroke="#93dbe9" stroke-linecap="round" stroke-width="15"/><line x1="325.197" x2="276.156" y1="-450.471" y2="-401.43" stroke="#93dbe9" stroke-linecap="round" stroke-width="15"/><line x1="581.197" x2="532.156" y1="-450.471" y2="-401.43" stroke="#93dbe9" stroke-linecap="round" stroke-width="15"/><line x1="69.197" x2="20.156" y1="-194.471" y2="-145.43" stroke="#93dbe9" stroke-linecap="round" stroke-width="15"/><line x1="325.197" x2="276.156" y1="-194.471" y2="-145.43" stroke="#93dbe9" stroke-linecap="round" stroke-width="15"/><line x1="581.197" x2="532.156" y1="-194.471" y2="-145.43" stroke="#93dbe9" stroke-linecap="round" stroke-width="15"/><line x1="69.197" x2="20.156" y1="61.529" y2="110.57" stroke="#93dbe9" stroke-linecap="round" stroke-width="15"/><line x1="325.197" x2="276.156" y1="61.529" y2="110.57" stroke="#93dbe9" stroke-linecap="round" stroke-width="15"/><line x1="581.197" x2="532.156" y1="61.529" y2="110.57" stroke="#93dbe9" stroke-linecap="round" stroke-width="15"/><line x1="153.369" x2="103.522" y1="129.939" y2="179.786" stroke="#5e6fa3" stroke-linecap="round" stroke-width="15"/><line x1="153.369" x2="103.522" y1="-382.061" y2="-332.214" stroke="#5e6fa3" stroke-linecap="round" stroke-width="15"/><line x1="409.369" x2="359.522" y1="-382.061" y2="-332.214" stroke="#5e6fa3" stroke-linecap="round" stroke-width="15"/><line x1="665.369" x2="615.522" y1="-382.061" y2="-332.214" stroke="#5e6fa3" stroke-linecap="round" stroke-width="15"/><line x1="153.369" x2="103.522" y1="-126.061" y2="-76.214" stroke="#5e6fa3" stroke-linecap="round" stroke-width="15"/><line x1="409.369" x2="359.522" y1="-126.061" y2="-76.214" stroke="#5e6fa3" stroke-linecap="round" stroke-width="15"/><line x1="665.369" x2="615.522" y1="-126.061" y2="-76.214" stroke="#5e6fa3" stroke-linecap="round" stroke-width="15"/><line x1="153.369" x2="103.522" y1="129.939" y2="179.786" stroke="#5e6fa3" stroke-linecap="round" stroke-width="15"/><line x1="409.369" x2="359.522" y1="129.939" y2="179.786" stroke="#5e6fa3" stroke-linecap="round" stroke-width="15"/><line x1="665.369" x2="615.522" y1="129.939" y2="179.786" stroke="#5e6fa3" stroke-linecap="round" stroke-width="15"/><line x1="49.205" x2="2.714" y1="141.76" y2="188.251" stroke="#5e6fa3" stroke-linecap="round" stroke-width="15"/><line x1="49.205" x2="2.714" y1="-370.24" y2="-323.749" stroke="#5e6fa3" stroke-linecap="round" stroke-width="15"/><line x1="305.205" x2="258.714" y1="-370.24" y2="-323.749" stroke="#5e6fa3" stroke-linecap="round" stroke-width="15"/><line x1="561.205" x2="514.714" y1="-370.24" y2="-323.749" stroke="#5e6fa3" stroke-linecap="round" stroke-width="15"/><line x1="49.205" x2="2.714" y1="-114.24" y2="-67.749" stroke="#5e6fa3" stroke-linecap="round" stroke-width="15"/><line x1="305.205" x2="258.714" y1="-114.24" y2="-67.749" stroke="#5e6fa3" stroke-linecap="round" stroke-width="15"/><line x1="561.205" x2="514.714" y1="-114.24" y2="-67.749" stroke="#5e6fa3" stroke-linecap="round" stroke-width="15"/><line x1="49.205" x2="2.714" y1="141.76" y2="188.251" stroke="#5e6fa3" stroke-linecap="round" stroke-width="15"/><line x1="305.205" x2="258.714" y1="141.76" y2="188.251" stroke="#5e6fa3" stroke-linecap="round" stroke-width="15"/><line x1="561.205" x2="514.714" y1="141.76" y2="188.251" stroke="#5e6fa3" stroke-linecap="round" stroke-width="15"/><line x1="84.681" x2="32.683" y1="-7.711" y2="44.287" stroke="#689cc5" stroke-linecap="round" stroke-width="15"/><line x1="84.681" x2="32.683" y1="-519.711" y2="-467.713" stroke="#689cc5" stroke-linecap="round" stroke-width="15"/><line x1="340.681" x2="288.683" y1="-519.711" y2="-467.713" stroke="#689cc5" stroke-linecap="round" stroke-width="15"/><line x1="596.681" x2="544.683" y1="-519.711" y2="-467.713" stroke="#689cc5" stroke-linecap="round" stroke-width="15"/><line x1="84.681" x2="32.683" y1="-263.711" y2="-211.713" stroke="#689cc5" stroke-linecap="round" stroke-width="15"/><line x1="340.681" x2="288.683" y1="-263.711" y2="-211.713" stroke="#689cc5" stroke-linecap="round" stroke-width="15"/><line x1="596.681" x2="544.683" y1="-263.711" y2="-211.713" stroke="#689cc5" stroke-linecap="round" stroke-width="15"/><line x1="84.681" x2="32.683" y1="-7.711" y2="44.287" stroke="#689cc5" stroke-linecap="round" stroke-width="15"/><line x1="340.681" x2="288.683" y1="-7.711" y2="44.287" stroke="#689cc5" stroke-linecap="round" stroke-width="15"/><line x1="596.681" x2="544.683" y1="-7.711" y2="44.287" stroke="#689cc5" stroke-linecap="round" stroke-width="15"/><line x1="84.681" x2="32.683" y1="248.289" y2="300.287" stroke="#689cc5" stroke-linecap="round" stroke-width="15"/><line x1="225.383" x2="185.666" y1="109.69" y2="149.407" stroke="#5e6fa3" stroke-linecap="round" stroke-width="15"/><line x1="225.383" x2="185.666" y1="-402.31" y2="-362.593" stroke="#5e6fa3" stroke-linecap="round" stroke-width="15"/><line x1="481.383" x2="441.666" y1="-402.31" y2="-362.593" stroke="#5e6fa3" stroke-linecap="round" stroke-width="15"/><line x1="737.383" x2="697.666" y1="-402.31" y2="-362.593" stroke="#5e6fa3" stroke-linecap="round" stroke-width="15"/><line x1="225.383" x2="185.666" y1="-146.31" y2="-106.593" stroke="#5e6fa3" stroke-linecap="round" stroke-width="15"/><line x1="481.383" x2="441.666" y1="-146.31" y2="-106.593" stroke="#5e6fa3" stroke-linecap="round" stroke-width="15"/><line x1="737.383" x2="697.666" y1="-146.31" y2="-106.593" stroke="#5e6fa3" stroke-linecap="round" stroke-width="15"/><line x1="225.383" x2="185.666" y1="109.69" y2="149.407" stroke="#5e6fa3" stroke-linecap="round" stroke-width="15"/><line x1="481.383" x2="441.666" y1="109.69" y2="149.407" stroke="#5e6fa3" stroke-linecap="round" stroke-width="15"/><line x1="737.383" x2="697.666" y1="109.69" y2="149.407" stroke="#5e6fa3" stroke-linecap="round" stroke-width="15"/><line x1="172.837" x2="103.526" y1="164.46" y2="233.771" stroke="#5e6fa3" stroke-linecap="round" stroke-width="15"/><line x1="172.837" x2="103.526" y1="-347.54" y2="-278.229" stroke="#5e6fa3" stroke-linecap="round" stroke-width="15"/><line x1="428.837" x2="359.526" y1="-347.54" y2="-278.229" stroke="#5e6fa3" stroke-linecap="round" stroke-width="15"/><line x1="684.837" x2="615.526" y1="-347.54" y2="-278.229" stroke="#5e6fa3" stroke-linecap="round" stroke-width="15"/><line x1="172.837" x2="103.526" y1="-91.54" y2="-22.229" stroke="#5e6fa3" stroke-linecap="round" stroke-width="15"/><line x1="428.837" x2="359.526" y1="-91.54" y2="-22.229" stroke="#5e6fa3" stroke-linecap="round" stroke-width="15"/><line x1="684.837" x2="615.526" y1="-91.54" y2="-22.229" stroke="#5e6fa3" stroke-linecap="round" stroke-width="15"/><line x1="172.837" x2="103.526" y1="164.46" y2="233.771" stroke="#5e6fa3" stroke-linecap="round" stroke-width="15"/><line x1="428.837" x2="359.526" y1="164.46" y2="233.771" stroke="#5e6fa3" stroke-linecap="round" stroke-width="15"/><line x1="684.837" x2="615.526" y1="164.46" y2="233.771" stroke="#5e6fa3" stroke-linecap="round" stroke-width="15"/><line x1="254.854" x2="240.108" y1="-1.209" y2="13.537" stroke="#5e6fa3" stroke-linecap="round" stroke-width="15"/><line x1="254.854" x2="240.108" y1="-513.209" y2="-498.463" stroke="#5e6fa3" stroke-linecap="round" stroke-width="15"/><line x1="510.854" x2="496.108" y1="-513.209" y2="-498.463" stroke="#5e6fa3" stroke-linecap="round" stroke-width="15"/><line x1="766.854" x2="752.108" y1="-513.209" y2="-498.463" stroke="#5e6fa3" stroke-linecap="round" stroke-width="15"/><line x1="254.854" x2="240.108" y1="-257.209" y2="-242.463" stroke="#5e6fa3" stroke-linecap="round" stroke-width="15"/><line x1="510.854" x2="496.108" y1="-257.209" y2="-242.463" stroke="#5e6fa3" stroke-linecap="round" stroke-width="15"/><line x1="766.854" x2="752.108" y1="-257.209" y2="-242.463" stroke="#5e6fa3" stroke-linecap="round" stroke-width="15"/><line x1="254.854" x2="240.108" y1="-1.209" y2="13.537" stroke="#5e6fa3" stroke-linecap="round" stroke-width="15"/><line x1="510.854" x2="496.108" y1="-1.209" y2="13.537" stroke="#5e6fa3" stroke-linecap="round" stroke-width="15"/><line x1="766.854" x2="752.108" y1="-1.209" y2="13.537" stroke="#5e6fa3" stroke-linecap="round" stroke-width="15"/><line x1="254.854" x2="240.108" y1="254.791" y2="269.537" stroke="#5e6fa3" stroke-linecap="round" stroke-width="15"/><animateTransform attributeName="transform" dur="10.3333333333333335s" keyTimes="0;1" repeatCount="indefinite" type="translate" values="0 0;-256 256"/></g></g></pattern></defs><rect width="1084" height="322" x="0" y="0" fill="url(#pid-0.7735807359934106)"/></svg>