<svg xmlns="http://www.w3.org/2000/svg" xmlns:xlink="http://www.w3.org/1999/xlink" style="margin:auto;background:rgba(NaN,NaN,NaN,0);display:block;z-index:1;position:relative" width="1084" height="322" preserveAspectRatio="xMidYMid" viewBox="0 0 1084 322"><defs><pattern id="pid-0.32277503320149736" width="322.56" height="322.56" x="0" y="0" patternUnits="userSpaceOnUse"><g><g transform="scale(1.26)"><line x1="12.8" x2="12.8" y1="-268.8" y2="-217.6" stroke="#d9dbee" stroke-linecap="round" stroke-width="21.6"/><line x1="12.8" x2="12.8" y1="-12.8" y2="38.4" stroke="#d9dbee" stroke-linecap="round" stroke-width="21.6"/><line x1="12.8" x2="12.8" y1="243.2" y2="294.4" stroke="#d9dbee" stroke-linecap="round" stroke-width="21.6"/><line x1="12.8" x2="12.8" y1="-192" y2="-140.8" stroke="#689cc5" stroke-linecap="round" stroke-width="21.6"/><line x1="12.8" x2="12.8" y1="64" y2="115.2" stroke="#689cc5" stroke-linecap="round" stroke-width="21.6"/><line x1="12.8" x2="12.8" y1="320" y2="371.2" stroke="#689cc5" stroke-linecap="round" stroke-width="21.6"/><line x1="12.8" x2="12.8" y1="-115.2" y2="-64" stroke="#5e6fa3" stroke-linecap="round" stroke-width="21.6"/><line x1="12.8" x2="12.8" y1="140.8" y2="192" stroke="#5e6fa3" stroke-linecap="round" stroke-width="21.6"/><line x1="12.8" x2="12.8" y1="396.8" y2="448" stroke="#5e6fa3" stroke-linecap="round" stroke-width="21.6"/><line x1="12.8" x2="12.8" y1="-38.4" y2="38.4" stroke="#d9dbee" stroke-linecap="round" stroke-width="21.6"/><line x1="12.8" x2="12.8" y1="217.6" y2="294.4" stroke="#d9dbee" stroke-linecap="round" stroke-width="21.6"/><line x1="12.8" x2="12.8" y1="473.6" y2="550.4" stroke="#d9dbee" stroke-linecap="round" stroke-width="21.6"/><animateTransform attributeName="transform" dur="50s" keyTimes="0;1" repeatCount="indefinite" type="translate" values="0 0;0 256"/></g><g transform="scale(1.26)"><line x1="38.4" x2="38.4" y1="-243.2" y2="-192" stroke="#b3b7e2" stroke-linecap="round" stroke-width="21.6"/><line x1="38.4" x2="38.4" y1="12.8" y2="64" stroke="#b3b7e2" stroke-linecap="round" stroke-width="21.6"/><line x1="38.4" x2="38.4" y1="268.8" y2="320" stroke="#b3b7e2" stroke-linecap="round" stroke-width="21.6"/><line x1="38.4" x2="38.4" y1="-166.4" y2="-115.2" stroke="#93dbe9" stroke-linecap="round" stroke-width="21.6"/><line x1="38.4" x2="38.4" y1="89.6" y2="140.8" stroke="#93dbe9" stroke-linecap="round" stroke-width="21.6"/><line x1="38.4" x2="38.4" y1="345.6" y2="396.8" stroke="#93dbe9" stroke-linecap="round" stroke-width="21.6"/><line x1="38.4" x2="38.4" y1="-89.6" y2="-12.8" stroke="#689cc5" stroke-linecap="round" stroke-width="21.6"/><line x1="38.4" x2="38.4" y1="166.4" y2="243.2" stroke="#689cc5" stroke-linecap="round" stroke-width="21.6"/><line x1="38.4" x2="38.4" y1="422.4" y2="499.2" stroke="#689cc5" stroke-linecap="round" stroke-width="21.6"/><animateTransform attributeName="transform" dur="16.666666666666668s" keyTimes="0;1" repeatCount="indefinite" type="translate" values="0 0;0 -256"/></g><g transform="scale(1.26)"><line x1="64" x2="64" y1="-243.2" y2="-192" stroke="#689cc5" stroke-linecap="round" stroke-width="21.6"/><line x1="64" x2="64" y1="12.8" y2="64" stroke="#689cc5" stroke-linecap="round" stroke-width="21.6"/><line x1="64" x2="64" y1="268.8" y2="320" stroke="#689cc5" stroke-linecap="round" stroke-width="21.6"/><line x1="64" x2="64" y1="-166.4" y2="-115.2" stroke="#d9dbee" stroke-linecap="round" stroke-width="21.6"/><line x1="64" x2="64" y1="89.6" y2="140.8" stroke="#d9dbee" stroke-linecap="round" stroke-width="21.6"/><line x1="64" x2="64" y1="345.6" y2="396.8" stroke="#d9dbee" stroke-linecap="round" stroke-width="21.6"/><line x1="64" x2="64" y1="-89.6" y2="-12.8" stroke="#191d3a" stroke-linecap="round" stroke-width="21.6"/><line x1="64" x2="64" y1="166.4" y2="243.2" stroke="#191d3a" stroke-linecap="round" stroke-width="21.6"/><line x1="64" x2="64" y1="422.4" y2="499.2" stroke="#191d3a" stroke-linecap="round" stroke-width="21.6"/><animateTransform attributeName="transform" dur="25s" keyTimes="0;1" repeatCount="indefinite" type="translate" values="0 0;0 -256"/></g><g transform="scale(1.26)"><line x1="89.6" x2="89.6" y1="-243.2" y2="-166.4" stroke="#5e6fa3" stroke-linecap="round" stroke-width="21.6"/><line x1="89.6" x2="89.6" y1="12.8" y2="89.6" stroke="#5e6fa3" stroke-linecap="round" stroke-width="21.6"/><line x1="89.6" x2="89.6" y1="268.8" y2="345.6" stroke="#5e6fa3" stroke-linecap="round" stroke-width="21.6"/><line x1="89.6" x2="89.6" y1="-140.8" y2="-89.6" stroke="#93dbe9" stroke-linecap="round" stroke-width="21.6"/><line x1="89.6" x2="89.6" y1="115.2" y2="166.4" stroke="#93dbe9" stroke-linecap="round" stroke-width="21.6"/><line x1="89.6" x2="89.6" y1="371.2" y2="422.4" stroke="#93dbe9" stroke-linecap="round" stroke-width="21.6"/><line x1="89.6" x2="89.6" y1="-64" y2="-12.8" stroke="#191d3a" stroke-linecap="round" stroke-width="21.6"/><line x1="89.6" x2="89.6" y1="192" y2="243.2" stroke="#191d3a" stroke-linecap="round" stroke-width="21.6"/><line x1="89.6" x2="89.6" y1="448" y2="499.2" stroke="#191d3a" stroke-linecap="round" stroke-width="21.6"/><animateTransform attributeName="transform" dur="16.666666666666668s" keyTimes="0;1" repeatCount="indefinite" type="translate" values="0 0;0 -256"/></g><g transform="scale(1.26)"><line x1="115.2" x2="115.2" y1="-243.2" y2="-217.6" stroke="#689cc5" stroke-linecap="round" stroke-width="21.6"/><line x1="115.2" x2="115.2" y1="12.8" y2="38.4" stroke="#689cc5" stroke-linecap="round" stroke-width="21.6"/><line x1="115.2" x2="115.2" y1="268.8" y2="294.4" stroke="#689cc5" stroke-linecap="round" stroke-width="21.6"/><line x1="115.2" x2="115.2" y1="-192" y2="-140.8" stroke="#93dbe9" stroke-linecap="round" stroke-width="21.6"/><line x1="115.2" x2="115.2" y1="64" y2="115.2" stroke="#93dbe9" stroke-linecap="round" stroke-width="21.6"/><line x1="115.2" x2="115.2" y1="320" y2="371.2" stroke="#93dbe9" stroke-linecap="round" stroke-width="21.6"/><line x1="115.2" x2="115.2" y1="-115.2" y2="-64" stroke="#689cc5" stroke-linecap="round" stroke-width="21.6"/><line x1="115.2" x2="115.2" y1="140.8" y2="192" stroke="#689cc5" stroke-linecap="round" stroke-width="21.6"/><line x1="115.2" x2="115.2" y1="396.8" y2="448" stroke="#689cc5" stroke-linecap="round" stroke-width="21.6"/><line x1="115.2" x2="115.2" y1="-38.4" y2="-12.8" stroke="#b3b7e2" stroke-linecap="round" stroke-width="21.6"/><line x1="115.2" x2="115.2" y1="217.6" y2="243.2" stroke="#b3b7e2" stroke-linecap="round" stroke-width="21.6"/><line x1="115.2" x2="115.2" y1="473.6" y2="499.2" stroke="#b3b7e2" stroke-linecap="round" stroke-width="21.6"/><animateTransform attributeName="transform" dur="25s" keyTimes="0;1" repeatCount="indefinite" type="translate" values="0 0;0 256"/></g><g transform="scale(1.26)"><line x1="140.8" x2="140.8" y1="-243.2" y2="-166.4" stroke="#689cc5" stroke-linecap="round" stroke-width="21.6"/><line x1="140.8" x2="140.8" y1="12.8" y2="89.6" stroke="#689cc5" stroke-linecap="round" stroke-width="21.6"/><line x1="140.8" x2="140.8" y1="268.8" y2="345.6" stroke="#689cc5" stroke-linecap="round" stroke-width="21.6"/><line x1="140.8" x2="140.8" y1="-140.8" y2="-115.2" stroke="#5e6fa3" stroke-linecap="round" stroke-width="21.6"/><line x1="140.8" x2="140.8" y1="115.2" y2="140.8" stroke="#5e6fa3" stroke-linecap="round" stroke-width="21.6"/><line x1="140.8" x2="140.8" y1="371.2" y2="396.8" stroke="#5e6fa3" stroke-linecap="round" stroke-width="21.6"/><line x1="140.8" x2="140.8" y1="-89.6" y2="-64" stroke="#93dbe9" stroke-linecap="round" stroke-width="21.6"/><line x1="140.8" x2="140.8" y1="166.4" y2="192" stroke="#93dbe9" stroke-linecap="round" stroke-width="21.6"/><line x1="140.8" x2="140.8" y1="422.4" y2="448" stroke="#93dbe9" stroke-linecap="round" stroke-width="21.6"/><line x1="140.8" x2="140.8" y1="-38.4" y2="-12.8" stroke="#689cc5" stroke-linecap="round" stroke-width="21.6"/><line x1="140.8" x2="140.8" y1="217.6" y2="243.2" stroke="#689cc5" stroke-linecap="round" stroke-width="21.6"/><line x1="140.8" x2="140.8" y1="473.6" y2="499.2" stroke="#689cc5" stroke-linecap="round" stroke-width="21.6"/><animateTransform attributeName="transform" dur="50s" keyTimes="0;1" repeatCount="indefinite" type="translate" values="0 0;0 256"/></g><g transform="scale(1.26)"><line x1="166.4" x2="166.4" y1="-268.8" y2="-192" stroke="#689cc5" stroke-linecap="round" stroke-width="21.6"/><line x1="166.4" x2="166.4" y1="-12.8" y2="64" stroke="#689cc5" stroke-linecap="round" stroke-width="21.6"/><line x1="166.4" x2="166.4" y1="243.2" y2="320" stroke="#689cc5" stroke-linecap="round" stroke-width="21.6"/><line x1="166.4" x2="166.4" y1="-166.4" y2="-89.6" stroke="#3b4368" stroke-linecap="round" stroke-width="21.6"/><line x1="166.4" x2="166.4" y1="89.6" y2="166.4" stroke="#3b4368" stroke-linecap="round" stroke-width="21.6"/><line x1="166.4" x2="166.4" y1="345.6" y2="422.4" stroke="#3b4368" stroke-linecap="round" stroke-width="21.6"/><line x1="166.4" x2="166.4" y1="-64" y2="64" stroke="#689cc5" stroke-linecap="round" stroke-width="21.6"/><line x1="166.4" x2="166.4" y1="192" y2="320" stroke="#689cc5" stroke-linecap="round" stroke-width="21.6"/><line x1="166.4" x2="166.4" y1="448" y2="576" stroke="#689cc5" stroke-linecap="round" stroke-width="21.6"/><animateTransform attributeName="transform" dur="50s" keyTimes="0;1" repeatCount="indefinite" type="translate" values="0 0;0 -256"/></g><g transform="scale(1.26)"><line x1="192" x2="192" y1="-243.2" y2="-166.4" stroke="#3b4368" stroke-linecap="round" stroke-width="21.6"/><line x1="192" x2="192" y1="12.8" y2="89.6" stroke="#3b4368" stroke-linecap="round" stroke-width="21.6"/><line x1="192" x2="192" y1="268.8" y2="345.6" stroke="#3b4368" stroke-linecap="round" stroke-width="21.6"/><line x1="192" x2="192" y1="-140.8" y2="-64" stroke="#93dbe9" stroke-linecap="round" stroke-width="21.6"/><line x1="192" x2="192" y1="115.2" y2="192" stroke="#93dbe9" stroke-linecap="round" stroke-width="21.6"/><line x1="192" x2="192" y1="371.2" y2="448" stroke="#93dbe9" stroke-linecap="round" stroke-width="21.6"/><line x1="192" x2="192" y1="-38.4" y2="-12.8" stroke="#689cc5" stroke-linecap="round" stroke-width="21.6"/><line x1="192" x2="192" y1="217.6" y2="243.2" stroke="#689cc5" stroke-linecap="round" stroke-width="21.6"/><line x1="192" x2="192" y1="473.6" y2="499.2" stroke="#689cc5" stroke-linecap="round" stroke-width="21.6"/><animateTransform attributeName="transform" dur="16.666666666666668s" keyTimes="0;1" repeatCount="indefinite" type="translate" values="0 0;0 -256"/></g><g transform="scale(1.26)"><line x1="217.6" x2="217.6" y1="-243.2" y2="-217.6" stroke="#689cc5" stroke-linecap="round" stroke-width="21.6"/><line x1="217.6" x2="217.6" y1="12.8" y2="38.4" stroke="#689cc5" stroke-linecap="round" stroke-width="21.6"/><line x1="217.6" x2="217.6" y1="268.8" y2="294.4" stroke="#689cc5" stroke-linecap="round" stroke-width="21.6"/><line x1="217.6" x2="217.6" y1="-192" y2="-140.8" stroke="#93dbe9" stroke-linecap="round" stroke-width="21.6"/><line x1="217.6" x2="217.6" y1="64" y2="115.2" stroke="#93dbe9" stroke-linecap="round" stroke-width="21.6"/><line x1="217.6" x2="217.6" y1="320" y2="371.2" stroke="#93dbe9" stroke-linecap="round" stroke-width="21.6"/><line x1="217.6" x2="217.6" y1="-115.2" y2="-64" stroke="#5e6fa3" stroke-linecap="round" stroke-width="21.6"/><line x1="217.6" x2="217.6" y1="140.8" y2="192" stroke="#5e6fa3" stroke-linecap="round" stroke-width="21.6"/><line x1="217.6" x2="217.6" y1="396.8" y2="448" stroke="#5e6fa3" stroke-linecap="round" stroke-width="21.6"/><line x1="217.6" x2="217.6" y1="-38.4" y2="-12.8" stroke="#5e6fa3" stroke-linecap="round" stroke-width="21.6"/><line x1="217.6" x2="217.6" y1="217.6" y2="243.2" stroke="#5e6fa3" stroke-linecap="round" stroke-width="21.6"/><line x1="217.6" x2="217.6" y1="473.6" y2="499.2" stroke="#5e6fa3" stroke-linecap="round" stroke-width="21.6"/><animateTransform attributeName="transform" dur="50s" keyTimes="0;1" repeatCount="indefinite" type="translate" values="0 0;0 256"/></g><g transform="scale(1.26)"><line x1="243.2" x2="243.2" y1="-243.2" y2="-166.4" stroke="#191d3a" stroke-linecap="round" stroke-width="21.6"/><line x1="243.2" x2="243.2" y1="12.8" y2="89.6" stroke="#191d3a" stroke-linecap="round" stroke-width="21.6"/><line x1="243.2" x2="243.2" y1="268.8" y2="345.6" stroke="#191d3a" stroke-linecap="round" stroke-width="21.6"/><line x1="243.2" x2="243.2" y1="-140.8" y2="-64" stroke="#93dbe9" stroke-linecap="round" stroke-width="21.6"/><line x1="243.2" x2="243.2" y1="115.2" y2="192" stroke="#93dbe9" stroke-linecap="round" stroke-width="21.6"/><line x1="243.2" x2="243.2" y1="371.2" y2="448" stroke="#93dbe9" stroke-linecap="round" stroke-width="21.6"/><line x1="243.2" x2="243.2" y1="-38.4" y2="-12.8" stroke="#d9dbee" stroke-linecap="round" stroke-width="21.6"/><line x1="243.2" x2="243.2" y1="217.6" y2="243.2" stroke="#d9dbee" stroke-linecap="round" stroke-width="21.6"/><line x1="243.2" x2="243.2" y1="473.6" y2="499.2" stroke="#d9dbee" stroke-linecap="round" stroke-width="21.6"/><animateTransform attributeName="transform" dur="25s" keyTimes="0;1" repeatCount="indefinite" type="translate" values="0 0;0 -256"/></g></g></pattern></defs><rect width="1084" height="322" x="0" y="0" fill="url(#pid-0.32277503320149736)"/></svg>